<?xml version="1.0" encoding="utf-8"?>
<!-- Generator: Adobe Illustrator 22.0.0, SVG Export Plug-In . SVG Version: 6.00 Build 0)  -->
<svg version="1.1" id="Calque_1" xmlns="http://www.w3.org/2000/svg" xmlns:xlink="http://www.w3.org/1999/xlink" x="0px" y="0px"
	 viewBox="0 0 1000 1000" style="enable-background:new 0 0 1000 1000;" xml:space="preserve">
<style type="text/css">
	.st0{fill:#E4F5F9;}
	.st1{fill:#F0F9FC;}
	.st2{fill:#CAEBF2;}
	.st3{fill:#D9F1F6;}
	.st4{fill:#A1D5E2;}
	.st5{fill:#94CCDA;}
	.st6{fill:#7FBBC9;}
	.st7{fill:#6FB1BC;}
	.st8{fill:#002148;}
	.st9{fill:#E47A4C;}
	.st10{fill:#143733;}
	.st11{fill:#ED996B;}
	.st12{fill:#7DBBC9;}
	.st13{fill:#1D1D1D;}
	.st14{fill:#010A2B;}
	.st15{fill:#00315C;}
	.st16{fill:#2B6660;}
	.st17{fill:#10594B;}
	.st18{fill:#FFCA0B;}
	.st19{fill:#FF9B08;}
	.st20{fill:#0D332D;}
	.st21{fill:#092621;}
</style>
<path class="st0" d="M861.3,629.2c0,3.4-0.1,6.8-0.4,10.3c-0.5,6-1.3,12-2.6,17.8c-1.7,7.9-4,15.6-7,23.1c-1,2.7-2.2,5.4-3.4,8
	c-10.4,22.9-26.5,44.6-47.3,64.2c-9.1,8.6-18.8,16.5-29.1,23.8c-29.5,21-65,38.2-104.7,49.7c-12.9,3.7-25.9,6.8-39.1,9.2
	c-52.7,9.7-103.7,8.1-148.2-2.5c-14.8-3.6-30.2-3.9-45.2-0.9l-5.5,1c-1.5,0.3-3,0.5-4.5,0.8l-4.5,0.8c-1.2,0.2-2.4,0.4-3.7,0.5
	c-0.3,0.1-0.6,0.1-1,0.2c-1.4,0.2-2.9,0.4-4.3,0.6c-1,0.2-2,0.3-3,0.4c-0.8,0.1-1.6,0.2-2.5,0.3c-0.3,0.1-0.6,0.1-0.9,0.1
	c-1.3,0.2-2.6,0.3-3.9,0.4c-0.2,0-0.4,0-0.6,0.1c-1.4,0.2-2.9,0.3-4.3,0.4s-2.9,0.3-4.3,0.4c-0.3,0-0.6,0.1-0.9,0.1l-3,0.3
	c-0.7,0-1.5,0.1-2.2,0.2s-1.4,0.1-2.1,0.1s-1.5,0.1-2.2,0.1c-1.2,0.1-2.4,0.1-3.5,0.2c-0.1,0-0.3,0-0.4,0c-1,0.1-1.9,0.1-2.9,0.1
	l-2.8,0.1c-0.1,0-0.2,0-0.3,0c-1.4,0-2.7,0.1-4,0.1c-2.9,0.1-5.8,0.1-8.7,0.1s-5.6,0-8.3-0.1c-1.5,0-2.9-0.1-4.3-0.2
	s-2.6-0.1-3.9-0.1l-4.7-0.3c-1-0.1-2-0.1-3-0.2c-1.8-0.1-3.5-0.3-5.3-0.4l-2.8-0.3c-1.9-0.2-3.7-0.3-5.6-0.6l-3.6-0.4
	c-1-0.1-1.9-0.2-2.9-0.4c-0.7-0.1-1.5-0.2-2.2-0.3l-2.5-0.3c-0.3-0.1-0.6-0.1-0.9-0.2c-1-0.1-2.1-0.3-3.1-0.5l-1.2-0.2
	c-0.9-0.1-1.7-0.3-2.6-0.4l-1.4-0.2l-3.1-0.6c-1.3-0.2-2.6-0.5-3.9-0.7c-2.1-0.4-4.2-0.9-6.4-1.3l-3.1-0.7l-3.1-0.7l-4.3-1
	c-1.5-0.4-2.9-0.8-4.4-1.1l-0.7-0.2c-0.9-0.3-1.9-0.5-2.8-0.8s-1.9-0.5-2.9-0.8c-2-0.6-4.1-1.2-6.1-1.9c-0.6-0.2-1.3-0.4-1.9-0.6
	L255,823c-0.8-0.3-1.7-0.6-2.5-0.9s-1.4-0.5-2.1-0.8c-1.2-0.4-2.4-0.8-3.6-1.3c-1-0.3-1.9-0.7-2.8-1.1l-1.1-0.4
	c-0.7-0.3-1.3-0.5-2-0.8s-1.1-0.4-1.7-0.7c-2.4-1-4.7-2-7.1-3c-0.8-0.3-1.6-0.7-2.4-1.1l-1-0.4c-0.7-0.3-1.5-0.7-2.2-1
	c-2.3-1.1-4.6-2.2-6.8-3.4c-0.6-0.3-1.3-0.6-1.9-1l-0.7-0.3l-2-1.1c-1.8-0.9-3.5-1.9-5.2-2.9c-0.7-0.4-1.4-0.8-2.2-1.3
	c-0.2-0.1-0.3-0.2-0.4-0.3c-0.8-0.4-1.5-0.9-2.3-1.4s-1.6-1-2.4-1.5l-3.4-2.2c-1.7-1.1-3.3-2.2-4.9-3.4c-0.5-0.3-0.9-0.6-1.4-1
	c-1.3-0.9-2.6-1.9-3.9-2.9c-0.4-0.3-0.7-0.5-1.1-0.8c-1.8-1.4-3.6-2.8-5.4-4.3c-0.8-0.7-1.6-1.4-2.5-2.1s-1.7-1.5-2.6-2.3
	s-1.5-1.3-2.3-2l-2.2-2c-0.1-0.1-0.1-0.1-0.2-0.2c-0.7-0.6-1.3-1.3-1.9-1.9l-0.2-0.2c-0.7-0.7-1.3-1.3-2-2c-0.5-0.5-1-1-1.5-1.5
	c-0.3-0.3-0.6-0.7-0.9-1s-0.5-0.5-0.7-0.8l-0.8-0.9c-0.1-0.1-0.2-0.2-0.3-0.3c-0.5-0.5-1-1.1-1.5-1.6c-0.8-0.9-1.6-1.8-2.3-2.8
	c-0.6-0.8-1.3-1.5-1.9-2.3s-1.3-1.7-2-2.5c0,0-0.1-0.1-0.1-0.1l-1.5-2c-0.5-0.7-1-1.3-1.5-2l-0.2-0.3c-0.1-0.2-0.3-0.4-0.4-0.6
	c-0.3-0.4-0.6-0.8-0.8-1.2c0-0.1-0.1-0.1-0.1-0.2c-0.2-0.2-0.3-0.5-0.5-0.7c-0.5-0.7-0.9-1.4-1.4-2.1c0,0-0.1,0-0.1-0.1
	c-0.4-0.6-0.8-1.3-1.2-1.9c-0.6-0.9-1.1-1.8-1.7-2.8c-1-1.6-1.9-3.3-2.8-5c-0.2-0.4-0.4-0.9-0.7-1.3s-0.5-0.9-0.7-1.4
	c-0.1-0.2-0.2-0.3-0.3-0.5c-0.3-0.6-0.6-1.3-1-1.9c-0.2-0.3-0.3-0.7-0.5-1.1s-0.3-0.7-0.5-1c-0.3-0.6-0.6-1.2-0.8-1.8
	c-0.1-0.2-0.1-0.3-0.2-0.5c-0.3-0.7-0.6-1.3-0.9-2c0-0.1-0.1-0.2-0.1-0.3c-0.3-0.7-0.6-1.4-0.9-2.1c-0.1-0.2-0.2-0.4-0.2-0.5
	c-0.3-0.7-0.5-1.3-0.8-2c-0.6-1.6-1.2-3.2-1.7-4.8s-1.1-3.3-1.5-4.9c-0.2-0.8-0.5-1.7-0.7-2.5s-0.4-1.5-0.6-2.3c0-0.1,0-0.1-0.1-0.2
	c-0.2-0.7-0.3-1.3-0.5-2c-0.1-0.5-0.3-1.1-0.4-1.6c-0.3-1.2-0.5-2.4-0.7-3.6l-0.3-1.7c-0.1-0.3-0.1-0.6-0.1-0.8s-0.1-0.7-0.1-1
	s-0.1-0.6-0.1-0.8s-0.1-0.7-0.1-1s-0.1-0.9-0.2-1.3c-0.2-1.4-0.3-2.8-0.5-4.2c0-0.4-0.1-0.8-0.1-1.3c0-0.1,0-0.1,0-0.2
	c0-0.5-0.1-1.1-0.1-1.6c-0.1-1-0.1-2-0.2-2.9c0-0.1,0-0.3,0-0.4c0-0.5,0-1-0.1-1.5c-0.1-2-0.1-3.9-0.1-5.8c0-0.6,0-1.2,0-1.8
	s0-0.9,0.1-1.4c0-0.7,0.1-1.4,0.1-2.1c0-0.5,0.1-1.1,0.1-1.7c0.1-0.9,0.1-1.9,0.2-2.8c0-0.4,0-0.7,0.1-1.1c0.1-1,0.2-2,0.3-3
	c0-0.1,0-0.3,0.1-0.4c0-0.5,0.1-1,0.2-1.5c0.2-1.2,0.3-2.3,0.5-3.4s0.4-2.3,0.6-3.5c0,0,0-0.1,0-0.1c0.1-0.5,0.2-1.1,0.3-1.6
	c0.2-1.2,0.5-2.3,0.7-3.5s0.5-2.3,0.8-3.4c0.4-1.7,0.9-3.4,1.4-5.2c0.2-0.6,0.4-1.2,0.6-1.8s0.3-1,0.4-1.4c0.6-1.8,1.1-3.5,1.8-5.2
	c0.2-0.5,0.4-1,0.6-1.5l0.3-0.8c1.7-4.5,3.6-9,5.8-13.5c0.4-0.9,0.9-1.8,1.3-2.7c0.8-1.6,1.7-3.3,2.6-4.9l0.6-1c0.6-1,1.1-2,1.7-3
	c0,0,0.1-0.1,0.1-0.1c0.3-0.5,0.6-1.1,0.9-1.6s0.7-1.2,1.1-1.8s0.7-1.2,1.1-1.8c1.4-2.3,2.9-4.6,4.4-6.9c0.8-1.2,1.7-2.4,2.5-3.6
	c0.4-0.6,0.8-1.1,1.2-1.6c0.8-1.2,1.7-2.3,2.5-3.4c8.1-10.6,7-25.7-2.6-35c-1.5-1.5-2.9-2.9-4.3-4.4c-0.4-0.4-0.7-0.8-1.1-1.1
	l-1.1-1.2v-0.1c-0.5-0.5-1-1.1-1.5-1.7c-0.7-0.8-1.4-1.6-2.2-2.5c-0.4-0.5-0.8-0.9-1.1-1.3c-1.1-1.3-2.1-2.5-3.1-3.8
	c-0.5-0.6-0.9-1.2-1.3-1.8l-0.2-0.2c-0.4-0.6-0.9-1.2-1.3-1.8c0,0-0.1,0-0.1-0.1c-0.4-0.6-0.8-1.1-1.2-1.7l-0.3-0.4l-0.9-1.3
	c-0.2-0.4-0.5-0.7-0.7-1.1s-0.6-0.9-0.9-1.4s-0.7-1-1-1.5L138,519l-0.6-0.9c-0.6-1.1-1.3-2.2-1.9-3.3s-1.1-2-1.6-3
	c-0.2-0.4-0.4-0.8-0.7-1.3s-0.4-0.8-0.6-1.2c-0.3-0.6-0.7-1.3-1-1.9s-0.5-1-0.7-1.5c-0.2-0.3-0.3-0.7-0.5-1s-0.4-0.8-0.6-1.2
	c-0.3-0.7-0.6-1.4-0.9-2.1c-0.2-0.4-0.4-0.8-0.5-1.2s-0.4-0.9-0.6-1.4c-1.2-2.9-2.3-5.9-3.3-8.9c-0.2-0.5-0.3-1.1-0.5-1.6
	s-0.3-1-0.4-1.5l-0.1-0.3c-0.2-0.6-0.4-1.3-0.6-1.9c-0.1-0.4-0.2-0.8-0.3-1.1s-0.3-0.9-0.4-1.4c-0.1-0.3-0.2-0.6-0.2-0.9
	s-0.2-0.8-0.3-1.1c-0.1-0.6-0.3-1.1-0.4-1.7c-0.2-0.8-0.4-1.6-0.5-2.4s-0.3-1.6-0.5-2.4c-2.5-13.9-2.7-28.1-0.7-42
	c0.7-4.4,1.5-8.9,2.6-13.2c0.4-1.6,0.8-3.3,1.3-4.9c2.4-8.3,5.4-16.4,9.2-24.2c0.7-1.5,1.5-3.1,2.3-4.6c0.2-0.5,0.5-0.9,0.7-1.4
	c2.4-4.6,5.1-9.2,8-13.7c0.3-0.5,0.6-1,1-1.5c0.8-1.2,1.6-2.3,2.4-3.5c0.2-0.3,0.4-0.5,0.6-0.8c0.5-0.7,1-1.4,1.5-2.1
	c2.4-3.4,4.9-6.7,7.5-10c3-3.7,6.2-7.4,9.5-11c8.6-9.4,17.8-18.1,27.7-26.1l0.2-0.2c5.4-4.4,11-8.6,16.9-12.6c2.9-2,5.8-4,8.8-5.9
	c24.7-15.8,51.3-28.4,79.2-37.5c9.3-3.1,18.9-5.9,28.7-8.3c8-2,16.1-3.7,24.3-5.2c146-26.6,279.1,32.6,297.5,132.2c0,0,0,0.1,0,0.1
	l0.2,1.1c0.4,2.3,0.9,4.6,1.4,6.9c1.3,5.6,2.9,11.1,4.9,16.5c10.7,29.3,31,54.3,57.5,70.8c6.7,4.2,13.7,7.7,21,10.7
	c1.9,0.8,3.9,1.6,5.9,2.3c17.9,6.3,35,14.7,50.9,25.1c13.2,8.6,25.2,18.9,35.7,30.6c1,1.1,1.9,2.2,2.8,3.3
	c15.1,18.1,25.3,38.9,29.5,61.8c1,5.2,1.6,10.5,1.9,15.7C861.2,624.5,861.3,626.9,861.3,629.2L861.3,629.2z"/>
<g>
	<path class="st1" d="M333.8,315c4.5-2.7,11.5-4.7,20-5.8c2.3-0.3,4.4-1.4,5.9-3.1c6.8-8.1,16.8-12.6,27.4-12.5
		c7.8,0,15.4,2.4,21.6,7.1c0.2,0.1,0.4,0.3,0.6,0.4c2.9-1,5.9-1.5,9-1.5c8.1-0.1,15.8,3.4,21,9.6c1.1,1.3,2.7,2.2,4.5,2.4
		c6.5,0.8,11.9,2.4,15.3,4.4c0.9,0.5,1.2,1.6,0.7,2.4c-0.3,0.6-1,1-1.7,0.9H335.2c-1.3,0.1-2.4-0.8-2.6-2.1
		C332.5,316.4,332.9,315.5,333.8,315L333.8,315z"/>
	<path class="st1" d="M524,488.7c4.5-2.7,11.6-4.7,20-5.8c2.3-0.3,4.4-1.4,5.9-3.1c6.8-8.1,16.8-12.7,27.3-12.5
		c7.8,0,15.4,2.4,21.6,7.1c0.2,0.2,0.4,0.3,0.7,0.4c2.9-1,6-1.5,9-1.5c8.1-0.1,15.8,3.4,21,9.6c1.1,1.3,2.7,2.2,4.5,2.4
		c6.5,0.8,11.9,2.4,15.3,4.4c0.9,0.5,1.2,1.6,0.7,2.4c-0.3,0.6-1,0.9-1.7,0.9h-123c-1.3,0.1-2.4-0.9-2.5-2.1
		C522.8,490,523.2,489.1,524,488.7L524,488.7z"/>
	<path class="st1" d="M276.6,444.6c4.5-2.7,11.6-4.7,20-5.8c2.3-0.2,4.4-1.4,5.9-3.1c6.8-8.1,16.8-12.7,27.4-12.5
		c7.8,0,15.4,2.4,21.6,7.1c0.2,0.1,0.4,0.3,0.6,0.4c2.9-1,5.9-1.5,9-1.5c8.1-0.1,15.8,3.4,21,9.6c1.1,1.3,2.7,2.2,4.5,2.4
		c6.5,0.8,11.9,2.4,15.3,4.4c0.9,0.4,1.3,1.5,0.8,2.4c-0.3,0.7-1.1,1.1-1.9,1H277.9c-1.3,0.2-2.5-0.7-2.6-2
		C275.2,446,275.7,445,276.6,444.6L276.6,444.6z"/>
	<path class="st1" d="M359.6,505.7c2.5-1.3,5.3-2.1,8.2-2.4c0.9-0.1,1.8-0.6,2.4-1.3c2.8-3.3,6.9-5.1,11.2-5.1c3.2,0,6.3,1,8.8,2.9
		l0.3,0.2c1.2-0.4,2.4-0.6,3.7-0.6c3.3,0,6.4,1.4,8.6,3.9c0.5,0.6,1.1,0.9,1.8,1c2.2,0.2,4.3,0.8,6.3,1.8c0.3,0.2,0.5,0.7,0.2,1
		c-0.1,0.2-0.4,0.4-0.7,0.4h-50.2c-0.6,0-1-0.4-1-1C359.1,506.2,359.3,505.9,359.6,505.7L359.6,505.7z"/>
	<path class="st1" d="M405.2,495c0.7-0.3,1.4-0.5,2.1-0.6c0.2,0,0.5-0.1,0.6-0.3c0.7-0.8,1.8-1.3,2.9-1.3c0.8,0,1.6,0.3,2.3,0.7h0.1
		c0.3-0.1,0.7-0.2,1-0.1c0.8,0,1.7,0.4,2.2,1c0.1,0.1,0.3,0.2,0.5,0.3c0.6,0.1,1.1,0.2,1.6,0.5c0.1,0.1,0.1,0.2,0.1,0.3
		c0,0.1-0.1,0.1-0.2,0.1h-13c-0.1,0-0.2-0.2-0.2-0.3C405.2,495.1,405.2,495,405.2,495z"/>
	<path class="st1" d="M520.3,419.5c0.7-0.3,1.4-0.5,2.1-0.6c0.2,0,0.5-0.1,0.6-0.3c1.3-1.5,3.5-1.7,5.1-0.6h0.1
		c0.3-0.1,0.6-0.2,1-0.1c0.8,0,1.7,0.4,2.2,1c0.1,0.1,0.3,0.2,0.5,0.3c0.6,0,1.1,0.2,1.6,0.5c0.1,0,0.1,0.2,0.1,0.3
		c0,0.1-0.1,0.1-0.2,0.1h-12.9c-0.1,0-0.2-0.1-0.2-0.3C520.2,419.6,520.2,419.6,520.3,419.5L520.3,419.5z"/>
	<path class="st1" d="M590.1,455.6c0.7-0.3,1.4-0.5,2.1-0.6c0.2,0,0.5-0.1,0.6-0.3c0.7-0.8,1.8-1.3,2.9-1.3c0.8,0,1.6,0.3,2.3,0.7
		h0.1c0.3-0.1,0.6-0.2,1-0.1c0.8,0,1.7,0.4,2.2,1c0.1,0.1,0.3,0.2,0.5,0.3c0.6,0,1.1,0.2,1.6,0.5c0.1,0,0.1,0.2,0.1,0.3
		c0,0.1-0.1,0.1-0.2,0.1h-12.9c-0.1,0-0.2-0.1-0.2-0.3C590,455.7,590,455.6,590.1,455.6L590.1,455.6z"/>
	<path class="st1" d="M600.6,411c0.7-0.3,1.4-0.5,2.1-0.6c0.2,0,0.5-0.1,0.6-0.3c1.3-1.5,3.5-1.7,5.1-0.6h0.1c0.3-0.1,0.7-0.2,1-0.1
		c0.8,0,1.7,0.4,2.2,1c0.1,0.1,0.3,0.2,0.5,0.3c0.6,0,1.1,0.2,1.6,0.5c0.1,0,0.1,0.2,0.1,0.3c0,0.1-0.1,0.1-0.2,0.1h-13
		c-0.1,0-0.2-0.2-0.2-0.3C600.6,411.1,600.6,411.1,600.6,411L600.6,411z"/>
	<path class="st1" d="M538.6,324c0.7-0.3,1.4-0.5,2.1-0.6c0.2,0,0.5-0.2,0.6-0.3c0.7-0.8,1.8-1.3,2.9-1.3c0.8,0,1.6,0.3,2.3,0.7h0.1
		c0.3-0.1,0.7-0.2,1-0.2c0.8,0,1.7,0.4,2.2,1c0.1,0.1,0.3,0.2,0.5,0.3c0.6,0,1.1,0.2,1.6,0.5c0.1,0.1,0.1,0.2,0.1,0.3
		c0,0.1-0.1,0.1-0.2,0.1h-13C538.6,324.4,538.5,324.2,538.6,324C538.5,324.1,538.6,324,538.6,324L538.6,324z"/>
	<path class="st1" d="M483.7,360.1c0.7-0.3,1.4-0.5,2.1-0.6c0.2,0,0.5-0.1,0.6-0.3c0.7-0.8,1.8-1.3,2.9-1.3c0.8,0,1.6,0.3,2.3,0.7
		h0.1c0.3-0.1,0.6-0.2,1-0.1c0.8,0,1.7,0.4,2.2,1c0.1,0.1,0.3,0.2,0.5,0.3c0.6,0,1.1,0.2,1.6,0.5c0.1,0.1,0.1,0.2,0.1,0.3
		c0,0.1-0.1,0.1-0.2,0.1h-12.9c-0.1,0-0.2-0.2-0.2-0.3C483.7,360.2,483.7,360.2,483.7,360.1z"/>
	<path class="st1" d="M255,368c0.7-0.3,1.4-0.5,2.1-0.6c0.2,0,0.5-0.1,0.6-0.3c0.7-0.8,1.8-1.3,2.9-1.3c0.8,0,1.6,0.3,2.3,0.8h0.1
		c0.3-0.1,0.6-0.2,1-0.1c0.8,0,1.7,0.4,2.2,1c0.1,0.1,0.3,0.2,0.5,0.3c0.6,0,1.1,0.2,1.6,0.5c0.1,0.1,0.1,0.2,0.1,0.3
		c0,0.1-0.1,0.1-0.2,0.1h-12.9c-0.1,0-0.2-0.1-0.2-0.3C254.9,368.1,255,368,255,368L255,368z"/>
	<path class="st1" d="M273.4,308.8c0.7-0.3,1.4-0.5,2.1-0.6c0.2,0,0.5-0.2,0.6-0.3c1.3-1.5,3.5-1.8,5.1-0.6h0.1
		c0.3-0.1,0.6-0.2,1-0.1c0.8,0,1.7,0.4,2.2,1c0.1,0.1,0.3,0.2,0.5,0.3c0.6,0,1.1,0.2,1.6,0.5c0.1,0.1,0.1,0.2,0.1,0.3
		c0,0.1-0.1,0.1-0.2,0.1h-12.9c-0.1,0-0.2-0.1-0.2-0.3C273.3,308.8,273.3,308.8,273.4,308.8L273.4,308.8z"/>
	<path class="st1" d="M198.8,341.7c0.7-0.3,1.4-0.5,2.1-0.6c0.2,0,0.5-0.1,0.6-0.3c0.7-0.9,1.8-1.3,2.9-1.3c0.8,0,1.6,0.3,2.3,0.7
		h0.1c0.3-0.1,0.6-0.2,0.9-0.1c0.8,0,1.7,0.4,2.2,1c0.1,0.1,0.3,0.2,0.5,0.3c0.6,0,1.1,0.2,1.6,0.5c0.1,0.1,0.1,0.2,0.1,0.3
		c0,0.1-0.1,0.1-0.2,0.1H199c-0.1,0-0.2-0.1-0.2-0.3C198.8,341.8,198.8,341.7,198.8,341.7L198.8,341.7z"/>
	<path class="st1" d="M477.6,399.6c2.5-1.3,5.3-2.1,8.2-2.4c0.9-0.1,1.8-0.6,2.4-1.3c2.8-3.3,6.9-5.2,11.2-5.1c3.2,0,6.3,1,8.8,2.9
		c0.1,0.1,0.2,0.1,0.3,0.2c1.2-0.4,2.4-0.6,3.7-0.6c3.3,0,6.4,1.4,8.6,3.9c0.5,0.6,1.1,0.9,1.8,1c2.2,0.2,4.3,0.8,6.3,1.8
		c0.3,0.2,0.5,0.6,0.3,1c-0.1,0.2-0.4,0.4-0.7,0.4h-50.2c-0.6,0-1-0.5-1-1C477.2,400.1,477.3,399.8,477.6,399.6L477.6,399.6z"/>
	<path class="st1" d="M532,284.5c2.5-1.3,5.3-2.1,8.2-2.4c0.9-0.1,1.8-0.6,2.4-1.3c2.8-3.3,6.9-5.2,11.2-5.1c3.2,0,6.3,1,8.8,2.9
		l0.3,0.2c1.2-0.4,2.4-0.6,3.7-0.6c3.3,0,6.4,1.4,8.5,3.9c0.5,0.6,1.1,0.9,1.8,1c2.2,0.2,4.3,0.8,6.3,1.8c0.3,0.2,0.5,0.6,0.3,1
		c-0.1,0.2-0.4,0.4-0.7,0.4h-50.1c-0.6,0-1-0.5-0.9-1.1C531.6,284.9,531.8,284.6,532,284.5L532,284.5z"/>
	<path class="st1" d="M651.1,385.3h-30.9c-0.6,0-1-0.5-0.9-1.1c0-0.3,0.2-0.6,0.4-0.7c2.5-1.3,5.3-2.1,8.2-2.4
		c0.9-0.1,1.8-0.6,2.4-1.3c2.8-3.3,6.9-5.2,11.2-5.1c2.9,0,5.7,0.8,8.1,2.4c0,0,0,0.1,0,0.1l0.2,1.1
		C650.1,380.8,650.6,383.1,651.1,385.3L651.1,385.3z"/>
	<path class="st1" d="M191,383.5h-55c2.4-4.6,5.1-9.2,8-13.7c0.3-0.5,0.6-1,1-1.5c0.8-1.2,1.6-2.3,2.4-3.5c0.2-0.3,0.4-0.5,0.6-0.8
		c1.1-0.1,2.3-0.2,3.4-0.2c8.1-0.1,15.8,3.4,21,9.6c1.1,1.3,2.7,2.2,4.5,2.4c6.5,0.8,11.9,2.4,15.3,4.4c0.9,0.5,1.2,1.6,0.7,2.5
		C192.5,383.2,191.7,383.6,191,383.5L191,383.5z"/>
</g>
<path class="st2" d="M375.3,588.4c4.5-22.6,12.9-48,34.2-56.7c16.9-6.9,36.8-0.4,50.6,11.5s22.7,28.3,31.3,44.4
	c0.1-6.6,5.5-12,12.1-11.9c6.1,0.1,11.1,4.6,11.8,10.6c5.8-8.4,16.5-11.7,26-8.1c9.1,3.8,14.7,14.5,12.6,24.1c0.8-4.4,5-7.3,9.4-6.5
	c3.9,0.7,6.7,4.2,6.6,8.2c5-9.4,21.2-6.6,25.3,3.2s-1.8,21.5-10.7,27.4s-19.8,7.3-30.4,8.4c-57.8,5.8-116,4.7-174,1.7
	c-17-0.9-56.3-3.4-52.6-28.7c1.5-9.9,10.2-19.4,18.5-24.3C348.6,590.4,376.3,583.3,375.3,588.4L375.3,588.4z"/>
<path class="st3" d="M701.5,648.5L701.5,648.5C668.3,406.6,861,339.4,861,339.4c0.2,0.9,0.4,1.8,0.6,2.7
	C910.5,565.3,706.8,646.5,701.5,648.5z"/>
<g>
	<path class="st2" d="M861.6,342.1l-2.8,2.7c-30.8,29.3-53.3,66.2-65.3,107c-7.6,25.8-10.8,52.7-16.1,79.1
		c-2.1,10.4-4.7,21-10.6,29.9c-10.8,16-30.5,23.5-43.7,37.6c-11.8,12.6-17.3,29.3-21.2,45.8c-0.2,1.5-0.3,2.9-0.2,4.4h-0.1
		C668.2,406.6,861,339.4,861,339.4C861.2,340.3,861.4,341.2,861.6,342.1L861.6,342.1z"/>
	<path class="st2" d="M749.5,535.2c0.8,0,1.5-0.7,1.5-1.5s-0.7-1.5-1.5-1.5s-1.5,0.7-1.5,1.5S748.7,535.2,749.5,535.2z"/>
	<path class="st2" d="M750.5,535.4c24.2-16.2,49.8-30.1,76.5-41.5c1.8-0.8,0.2-3.3-1.5-2.6c-26.8,11.4-52.4,25.3-76.6,41.5
		C747.4,533.9,748.9,536.5,750.5,535.4L750.5,535.4z"/>
	<path class="st2" d="M773.8,473.6c19.8-22,45.5-37.7,74-45.5c0.8-0.2,1.2-1.1,1-1.9c-0.2-0.8-1-1.2-1.8-1
		c-29,7.9-55.2,23.9-75.3,46.2C770.4,472.9,772.5,475,773.8,473.6L773.8,473.6z"/>
	<path class="st2" d="M796.2,421.1c14.8-21.9,39.8-32.4,64-40.4c1.8-0.6,1-3.5-0.8-2.9c-25.1,8.3-50.6,19.1-65.8,41.8
		C792.5,421.2,795.1,422.7,796.2,421.1L796.2,421.1z"/>
</g>
<path class="st3" d="M761.2,632.4c76.7-91,163.9-43.2,163.9-43.2l-0.8,1.1C859.5,680.8,763.7,633.7,761.2,632.4L761.2,632.4z"/>
<g>
	<path class="st2" d="M924.2,590.2l-1.9-0.2c-20.6-1.6-41.3,2.3-60,11.3c-11.8,5.7-22.6,13.3-33.8,20c-4.5,2.6-9.2,5.2-14.3,5.9
		c-9.3,1.3-18.5-3.4-27.9-3.5c-8.4-0.1-16.3,3.3-23.5,7.3c-0.6,0.4-1.2,0.9-1.7,1.4c76.7-91,163.9-43.2,163.9-43.2L924.2,590.2z"/>
	<path class="st2" d="M818.4,613.8c0.8,0,1.5-0.7,1.5-1.5s-0.7-1.5-1.5-1.5s-1.5,0.7-1.5,1.5S817.5,613.8,818.4,613.8z"/>
	<path class="st2" d="M818.1,613.2c13.7,3.4,27,8.2,39.8,14.1c0.9,0.4,1.6-0.9,0.8-1.3c-12.9-6-26.4-10.7-40.2-14.2
		c-0.4-0.1-0.8,0.1-0.9,0.5C817.5,612.7,817.7,613.1,818.1,613.2z"/>
	<path class="st2" d="M848,601.4c14.4,0.1,28.4,4.2,40.6,11.9c0.8,0.5,1.6-0.8,0.8-1.3c-12.4-7.9-26.7-12.1-41.3-12.1
		c-0.4,0-0.8,0.3-0.8,0.8S847.6,601.4,848,601.4z"/>
	<path class="st2" d="M874.2,592.4c13-1.6,24.7,3.7,35.7,10c0.4,0.2,0.8,0,1-0.3c0.2-0.3,0.1-0.8-0.2-1
		c-11.2-6.4-23.2-11.8-36.4-10.2C873.2,591.1,873.2,592.6,874.2,592.4L874.2,592.4z"/>
</g>
<path class="st3" d="M715.7,654.3l-0.2-0.2c-6-6.1-137-142.7-17.9-302.6c0,0,0.6,0.5,1.6,1.6C713.7,367.8,820.1,485,715.7,654.3
	L715.7,654.3z"/>
<g>
	<path class="st2" d="M702.9,581.6c-4.7,24-0.7,48.8,11.3,70.1c0.4,0.8,0.9,1.5,1.3,2.3c-6-6.1-137-142.7-17.9-302.6
		c0,0,0.6,0.5,1.6,1.6c-2.5,5.2-4.6,10.6-6.3,16.1c-4.3,14.8-6.6,30.1-6.6,45.5c0,9.6,0.8,19.3,4.3,28.2c4.5,11.6,13,21.1,19.1,31.9
		c8.2,14.9,11.6,31.9,9.6,48.8C716.7,543.4,706.9,561.8,702.9,581.6L702.9,581.6z"/>
	<path class="st2" d="M697.8,589.8l47.1-70.7c1.1-1.6-1.5-3.1-2.6-1.5l-47.1,70.7C694.1,589.9,696.7,591.4,697.8,589.8z"/>
	<path class="st2" d="M709.7,509.4c14.6-19.8,25.8-42,33.1-65.5c0.6-1.9-2.3-2.6-2.9-0.8c-7.2,23.3-18.3,45.2-32.8,64.8
		C706,509.4,708.6,510.9,709.7,509.4L709.7,509.4z"/>
	<path class="st2" d="M689.4,458.6c10.4-20.3,19.2-41.5,26.3-63.2c0.6-1.8-2.3-2.6-2.9-0.8c-7,21.5-15.7,42.4-26,62.5
		C685.9,458.8,688.5,460.3,689.4,458.6L689.4,458.6z"/>
</g>
<path class="st3" d="M222.2,618h-0.2c-6.1-0.4-140.3-9.9-153.7-151c0,0,0.6,0,1.6,0.1C84.6,467.9,196.5,478.9,222.2,618L222.2,618z"
	/>
<g>
	<path class="st2" d="M180.8,585.8c8.9,14.9,22.9,26.1,39.4,31.6l1.8,0.7c-6.1-0.4-140.3-9.9-153.7-151c0,0,0.6,0,1.6,0.1
		c1.2,3.9,2.6,7.8,4.3,11.5c4.8,9.9,10.9,19,18.2,27.1c4.5,5.1,9.6,9.8,15.7,12.8c7.9,4,16.9,4.9,25.3,7.7
		c11.4,3.9,21.3,11.3,28.3,21.2C169.9,559.1,173.4,573.5,180.8,585.8L180.8,585.8z"/>
	<path class="st2" d="M182,592.4l-8.9-59.8c-0.2-1.4-2.4-0.8-2.2,0.6l8.9,59.7C180.1,594.4,182.2,593.8,182,592.4L182,592.4z"/>
	<path class="st2" d="M150,544.7c-1.8-17.5-6.4-34.6-13.8-50.6c-0.6-1.3-2.6-0.2-1.9,1.1c7.2,15.6,11.8,32.4,13.5,49.5
		C147.9,546.1,150.2,546.1,150,544.7L150,544.7z"/>
	<path class="st2" d="M115,527.3c-4.2-15.7-9.7-31-16.3-45.8c-0.6-1.3-2.5-0.2-1.9,1.1c6.5,14.7,11.9,29.8,16.1,45.3
		c0.2,0.6,0.9,0.9,1.5,0.7C114.8,528.3,115.1,527.8,115,527.3L115,527.3z"/>
</g>
<path class="st3" d="M186.6,603.1l-0.1-0.1c-3.1-3.6-69.6-83.7,2-166.9c0,0,0.3,0.3,0.8,0.9C196.8,445.7,250.6,514.2,186.6,603.1z"
	/>
<g>
	<path class="st2" d="M182.5,562.7c-3.5,13-2.3,26.8,3.5,38.9c0.2,0.4,0.4,0.9,0.6,1.3c-3.1-3.6-69.6-83.7,2-166.9
		c0,0,0.3,0.3,0.8,0.9c-1.6,2.8-2.9,5.6-4.1,8.6c-3,7.9-4.8,16.3-5.4,24.7c-0.6,5.3-0.1,10.6,1.2,15.7c2,6.5,6.3,12.1,9.2,18.3
		c3.9,8.5,5.1,18,3.3,27.1C191.5,542.2,185.4,552,182.5,562.7L182.5,562.7z"/>
	<path class="st2" d="M179.2,567l28.7-37c0.6-0.8-0.5-1.8-1.1-1.1l-28.7,37C177.5,566.7,178.6,567.8,179.2,567z"/>
	<path class="st2" d="M188.9,523.3c8.8-10.4,15.9-22.1,20.9-34.8c0.4-0.9-1.1-1.3-1.4-0.4c-4.9,12.4-11.8,24-20.5,34.2
		C187.2,523,188.3,524.1,188.9,523.3z"/>
	<path class="st2" d="M179.8,494.5c6.5-10.8,12.1-22,16.9-33.7c0.4-0.9-1.1-1.3-1.4-0.4c-4.7,11.5-10.3,22.6-16.7,33.3
		c-0.2,0.4,0,0.8,0.3,1C179.2,494.9,179.6,494.8,179.8,494.5z"/>
</g>
<path class="st3" d="M931.2,486.3c0,0-29.8,149.8-212.6,150.3c0,0,0.2-0.6,0.5-1.8c4.7-17.6,47.8-160.5,209-148.8L931.2,486.3z"/>
<g>
	<path class="st2" d="M928.1,486c-17.6,4.2-34,12.7-47.6,24.6c-12.1,10.7-22.2,24.3-36.7,31.5c-21.7,10.8-50.6,5.8-68.3,22.3
		c-8.6,8-12.7,19.6-15.8,30.9c-2.1,7.5-4,15.6-9.7,21c-4.1,3.9-9.5,5.9-14.6,8.3c-5.8,2.7-11.2,6.1-16.2,10.1
		C723.8,617.2,766.9,474.3,928.1,486L928.1,486z"/>
	<path class="st2" d="M748.3,589.2c20.3,2.6,40.7,3.7,61.2,3.3c1.9,0,1.9-3,0-3c-20.4,0.4-40.9-0.7-61.2-3.3
		C746.4,586,746.4,589,748.3,589.2z"/>
	<path class="st2" d="M775,555.7c25.9,10.9,54.8,12.6,81.8,4.8c1.8-0.5,1.1-3.4-0.8-2.9c-26.5,7.7-54.8,6-80.2-4.8
		C774,552.1,773.2,555,775,555.7z"/>
	<path class="st2" d="M849.3,533.2c19.8,1.6,39.5-3.6,55.9-14.8c1.6-1.1,0.1-3.7-1.5-2.6c-16,10.9-35.2,15.9-54.4,14.3
		C847.3,530,847.4,533,849.3,533.2z"/>
	<path class="st2" d="M337.3,614.2c-4.9,9.6-14,16.5-23.5,21.4c-37.3,19.3-82.2,13-123.7,19.8c-11.1,1.8-22.1,4.6-33.4,4.8
		c-8.9,0.2-17.6-2.2-25.2-6.9c0.1-0.5,0.2-1.1,0.3-1.6c0.2-1.2,0.5-2.3,0.7-3.5s0.5-2.3,0.8-3.4c0.4-1.7,0.9-3.4,1.4-5.2
		c0.2-0.6,0.4-1.2,0.6-1.8s0.3-1,0.4-1.4c0.6-1.8,1.1-3.5,1.8-5.2c0.2-0.5,0.4-1,0.6-1.5l0.3-0.8c1.7-4.5,3.6-9,5.8-13.5
		c0.4-0.9,0.9-1.8,1.3-2.7c0.8-1.6,1.7-3.3,2.6-4.9l0.6-1c0.6-1,1.1-2,1.7-3c0,0,0.1-0.1,0.1-0.1c0.3-0.5,0.6-1.1,0.9-1.6
		s0.7-1.2,1.1-1.8s0.7-1.2,1.1-1.8c1.4-2.3,2.9-4.6,4.4-6.9c0.8-1.2,1.7-2.4,2.5-3.6c0.4-0.6,0.8-1.1,1.2-1.6
		c0.8-1.2,1.7-2.3,2.5-3.4c1.5-1.9,2.7-4.1,3.6-6.3c10,0.3,23.4,3.3,22.7,12.8c1.1-15.7,12-29.1,24-39.3
		c12.3-10.5,27.5-19.3,43.6-18.2c25.4,1.8,42.9,27.3,48.8,52c6.4-8.7,21-8,28.2,0.1S342.2,604.6,337.3,614.2L337.3,614.2z"/>
</g>
<path class="st4" d="M860.9,639.5c-0.5,6-1.3,12-2.6,17.8c-1.7,7.9-4,15.6-7,23.1c-1,2.7-2.2,5.4-3.4,8
	c-10.4,22.9-26.5,44.6-47.3,64.2c-9.1,8.6-18.8,16.5-29.1,23.8c-18.2,12.9-37.6,23.8-58,32.8c-15.2,6.7-30.8,12.4-46.7,17
	c-12.9,3.7-25.9,6.8-39.1,9.2c-52.7,9.6-103.7,8.1-148.2-2.5c-14.8-3.6-30.2-3.9-45.2-0.9l-5.5,1c-1.5,0.3-3,0.5-4.5,0.8l-4.5,0.8
	c-1.2,0.2-2.4,0.4-3.7,0.5c-0.3,0.1-0.6,0.1-1,0.2c-1.4,0.2-2.9,0.4-4.3,0.6c-1,0.2-2,0.3-3,0.4c-0.8,0.1-1.6,0.2-2.5,0.3
	c-0.3,0.1-0.6,0.1-0.9,0.1c-1.3,0.2-2.6,0.3-3.9,0.4c-0.2,0-0.4,0-0.6,0.1c-1.4,0.2-2.9,0.3-4.3,0.4s-2.9,0.3-4.3,0.4
	c-0.3,0-0.6,0.1-0.9,0.1l-3,0.3c-0.7,0-1.5,0.1-2.2,0.2s-1.4,0.1-2.1,0.1s-1.5,0.1-2.2,0.1c-1.2,0.1-2.4,0.1-3.5,0.2
	c-0.1,0-0.3,0-0.4,0c-1,0.1-1.9,0.1-2.9,0.1l-2.8,0.1c-0.1,0-0.2,0-0.3,0c-1.4,0-2.7,0.1-4,0.1c-2.9,0.1-5.8,0.1-8.7,0.1
	s-5.6,0-8.3-0.1c-1.5,0-2.9-0.1-4.3-0.2s-2.6-0.1-3.9-0.1l-4.7-0.3c-1-0.1-2-0.1-3-0.2c-1.8-0.1-3.5-0.3-5.3-0.4l-2.8-0.3
	c-1.9-0.2-3.7-0.3-5.6-0.6l-3.6-0.4c-1-0.1-1.9-0.2-2.9-0.4c-0.7-0.1-1.5-0.2-2.2-0.3l-2.5-0.3c-0.3-0.1-0.6-0.1-0.9-0.2
	c-1-0.1-2.1-0.3-3.1-0.5l-1.2-0.2c-0.9-0.1-1.7-0.3-2.6-0.4l-1.4-0.2l-3.1-0.6c-1.3-0.2-2.6-0.5-3.9-0.7c-2.1-0.4-4.2-0.9-6.4-1.3
	l-3.1-0.7l-3.1-0.7l-4.3-1c-1.5-0.4-2.9-0.8-4.4-1.1l-0.7-0.2c-0.9-0.3-1.9-0.5-2.8-0.8s-1.9-0.5-2.9-0.8c-2-0.6-4.1-1.2-6.1-1.9
	c-0.6-0.2-1.3-0.4-1.9-0.6L255,823c-0.8-0.3-1.7-0.6-2.5-0.9s-1.4-0.5-2.1-0.8c-1.2-0.4-2.4-0.8-3.6-1.3c-1-0.3-1.9-0.7-2.8-1.1
	l-1.1-0.4c-0.7-0.3-1.3-0.5-2-0.8s-1.1-0.4-1.7-0.7c-2.4-1-4.7-2-7.1-3c-0.8-0.3-1.6-0.7-2.4-1.1l-1-0.4c-0.7-0.3-1.5-0.7-2.2-1
	c-2.3-1.1-4.6-2.2-6.8-3.4c-0.6-0.3-1.3-0.6-1.9-1l-0.7-0.3l-2-1.1c-1.8-0.9-3.5-1.9-5.2-2.9c-0.7-0.4-1.4-0.8-2.2-1.3
	c-0.2-0.1-0.3-0.2-0.4-0.3c-0.8-0.4-1.5-0.9-2.3-1.4s-1.6-1-2.4-1.5l-3.4-2.2c-1.7-1.1-3.3-2.2-4.9-3.4c-0.5-0.3-0.9-0.6-1.4-1
	c-1.3-0.9-2.6-1.9-3.9-2.9c-0.4-0.3-0.7-0.5-1.1-0.8c-1.8-1.4-3.6-2.8-5.4-4.3c-0.8-0.7-1.6-1.4-2.5-2.1s-1.7-1.5-2.6-2.3
	s-1.5-1.3-2.3-2l-2.2-2c-0.1-0.1-0.1-0.1-0.2-0.2c-0.7-0.6-1.3-1.3-1.9-1.9l-0.2-0.2c-0.7-0.7-1.3-1.3-2-2c-0.5-0.5-1-1-1.5-1.5
	c-0.3-0.3-0.6-0.7-0.9-1s-0.5-0.5-0.7-0.8l-0.8-0.9c-0.1-0.1-0.2-0.2-0.3-0.3c-0.5-0.5-1-1.1-1.5-1.6c-0.8-0.9-1.6-1.8-2.3-2.8
	c-0.6-0.8-1.3-1.5-1.9-2.3s-1.3-1.7-2-2.5c0,0-0.1-0.1-0.1-0.1l-1.5-2c-0.5-0.7-1-1.3-1.5-2l-0.2-0.3c-0.1-0.2-0.3-0.4-0.4-0.6
	c-0.3-0.4-0.6-0.8-0.8-1.2c0-0.1-0.1-0.1-0.1-0.2c-0.2-0.2-0.3-0.5-0.5-0.7c-0.5-0.7-0.9-1.4-1.4-2.1c0,0-0.1,0-0.1-0.1
	c-0.4-0.6-0.8-1.3-1.2-1.9c-0.6-0.9-1.1-1.8-1.7-2.8c-1-1.6-1.9-3.3-2.8-5c-0.2-0.4-0.4-0.9-0.7-1.3s-0.5-0.9-0.7-1.4
	c-0.1-0.2-0.2-0.3-0.3-0.5c-0.3-0.6-0.6-1.3-1-1.9c-0.2-0.3-0.3-0.7-0.5-1.1s-0.3-0.7-0.5-1c-0.3-0.6-0.6-1.2-0.8-1.8
	c-0.1-0.2-0.1-0.3-0.2-0.5c-0.3-0.7-0.6-1.3-0.9-2c0-0.1-0.1-0.2-0.1-0.3c-0.3-0.7-0.6-1.4-0.9-2.1c-0.1-0.2-0.2-0.4-0.2-0.5
	c-0.3-0.7-0.5-1.3-0.8-2c-0.6-1.6-1.2-3.2-1.7-4.8s-1.1-3.3-1.5-4.9c-0.2-0.8-0.5-1.7-0.7-2.5s-0.4-1.5-0.6-2.3c0-0.1,0-0.1-0.1-0.2
	c-0.2-0.7-0.3-1.3-0.5-2c-0.1-0.5-0.3-1.1-0.4-1.6c-0.3-1.2-0.5-2.4-0.7-3.6l-0.3-1.7c-0.1-0.3-0.1-0.6-0.1-0.8s-0.1-0.7-0.1-1
	s-0.1-0.6-0.1-0.8s-0.1-0.7-0.1-1s-0.1-0.9-0.2-1.3c-0.2-1.4-0.3-2.8-0.5-4.2c0-0.4-0.1-0.8-0.1-1.3c0-0.1,0-0.1,0-0.2
	c0-0.5-0.1-1.1-0.1-1.6c-0.1-1-0.1-2-0.2-2.9c0-0.1,0-0.3,0-0.4c0-0.5,0-1-0.1-1.5c-0.1-2-0.1-3.9-0.1-5.8c0-0.6,0-1.2,0-1.8
	s0-0.9,0.1-1.4c0-0.7,0.1-1.4,0.1-2.1c0-0.5,0.1-1.1,0.1-1.7c0.1-0.9,0.1-1.9,0.2-2.8c0-0.4,0-0.7,0.1-1.1c0.1-1,0.2-2,0.3-3
	c0-0.1,0-0.3,0.1-0.4c0-0.5,0.1-1,0.2-1.5c0.2-1.2,0.3-2.3,0.5-3.4s0.4-2.3,0.6-3.5l0.3-1.7c0.2-1.2,0.5-2.3,0.7-3.5
	s0.5-2.3,0.8-3.4c0.4-1.7,0.9-3.4,1.4-5.2c0.2-0.6,0.4-1.2,0.6-1.8s0.3-1,0.4-1.4c0.6-1.8,1.1-3.5,1.8-5.2c0.2-0.5,0.4-1,0.6-1.5
	l0.3-0.8c94.4-10.5,204-16.5,321-16.5c12.3,0,24.5,0.1,36.7,0.2C633.8,614,759.9,623.8,860.9,639.5L860.9,639.5z"/>
<path class="st5" d="M713.5,809.2c-15.2,6.7-30.8,12.4-46.7,17c-12.9,3.7-25.9,6.8-39.1,9.2c-52.7,9.6-103.7,8-148.2-2.6
	c-14.8-3.6-30.2-3.9-45.2-0.9l-5.5,1c-1.5,0.3-3,0.5-4.5,0.8l-4.5,0.8c-1.2,0.2-2.4,0.4-3.7,0.5c-0.3,0.1-0.6,0.1-1,0.2
	c-1.4,0.2-2.9,0.4-4.3,0.6c-1,0.2-2,0.3-3,0.4c-0.8,0.1-1.6,0.2-2.5,0.3c-0.3,0.1-0.6,0.1-0.9,0.1c-1.3,0.2-2.6,0.3-3.9,0.4
	c-0.2,0-0.4,0-0.6,0.1c-1.4,0.2-2.9,0.3-4.3,0.4s-2.9,0.3-4.3,0.4c-0.3,0-0.6,0.1-0.9,0.1l-3,0.3c-0.7,0-1.5,0.1-2.2,0.2
	s-1.4,0.1-2.1,0.1s-1.5,0.1-2.2,0.1c-1.2,0.1-2.4,0.1-3.5,0.2c-0.1,0-0.3,0-0.4,0c-1,0.1-1.9,0.1-2.9,0.1l-2.8,0.1
	c-0.1,0-0.2,0-0.3,0c-1.4,0-2.7,0.1-4,0.1c-2.9,0.1-5.8,0.1-8.7,0.1s-5.6,0-8.3-0.1c-1.5,0-2.9-0.1-4.3-0.2s-2.6-0.1-3.9-0.1
	l-4.7-0.3c-1-0.1-2-0.1-3-0.2c-1.8-0.1-3.5-0.3-5.3-0.4l-2.8-0.3c-1.9-0.2-3.7-0.3-5.6-0.6l-3.6-0.4c-1-0.1-1.9-0.2-2.9-0.4
	c-0.7-0.1-1.5-0.2-2.2-0.3l-2.5-0.3c-0.3-0.1-0.6-0.1-0.9-0.2c-1-0.1-2.1-0.3-3.1-0.5l-1.2-0.2c-0.9-0.1-1.7-0.3-2.6-0.4l-1.4-0.2
	l-3.1-0.6c-1.3-0.2-2.6-0.5-3.9-0.7c-2.1-0.4-4.2-0.9-6.4-1.3l-3.1-0.7l-3.1-0.7l-4.3-1c-1.5-0.4-2.9-0.8-4.4-1.1l-0.7-0.2
	c-0.9-0.3-1.9-0.5-2.8-0.8s-1.9-0.5-2.9-0.8c-2-0.6-4.1-1.2-6.1-1.9c-0.6-0.2-1.3-0.4-1.9-0.6L255,823c-0.8-0.3-1.7-0.6-2.5-0.9
	s-1.4-0.5-2.1-0.8c-1.2-0.4-2.4-0.8-3.6-1.3c-1-0.3-1.9-0.7-2.8-1.1l-1.1-0.4c-0.7-0.3-1.3-0.5-2-0.8s-1.1-0.4-1.7-0.7
	c-2.4-1-4.7-2-7.1-3c-0.8-0.3-1.6-0.7-2.4-1.1l-1-0.4c-0.7-0.3-1.5-0.7-2.2-1c-2.3-1.1-4.6-2.2-6.8-3.4c-0.6-0.3-1.3-0.6-1.9-1
	l-0.7-0.3l-2-1.1c-1.8-0.9-3.5-1.9-5.2-2.9c-0.7-0.4-1.4-0.8-2.2-1.3c-0.2-0.1-0.3-0.2-0.4-0.3c-0.8-0.4-1.5-0.9-2.3-1.4
	s-1.6-1-2.4-1.5l-3.4-2.2c-1.7-1.1-3.3-2.2-4.9-3.4c-0.5-0.3-0.9-0.6-1.4-1c-1.3-0.9-2.6-1.9-3.9-2.9c-0.4-0.3-0.7-0.5-1.1-0.8
	c-1.8-1.4-3.6-2.8-5.4-4.3c-0.8-0.7-1.6-1.4-2.5-2.1s-1.7-1.5-2.6-2.3s-1.5-1.3-2.3-2l-2.2-2c-0.1-0.1-0.1-0.1-0.2-0.2
	c-0.7-0.6-1.3-1.3-1.9-1.9l-0.2-0.2c-0.7-0.7-1.3-1.3-2-2c-0.5-0.5-1-1-1.5-1.5c-0.3-0.3-0.6-0.7-0.9-1s-0.5-0.5-0.7-0.8l-0.8-0.9
	c-0.1-0.1-0.2-0.2-0.3-0.3c-0.5-0.5-1-1.1-1.5-1.6c-0.8-0.9-1.6-1.8-2.3-2.8c-0.6-0.8-1.3-1.5-1.9-2.3s-1.3-1.7-2-2.5
	c0,0-0.1-0.1-0.1-0.1l-1.5-2c-0.5-0.7-1-1.3-1.5-2l-0.2-0.3c-0.1-0.2-0.3-0.4-0.4-0.6c-0.3-0.4-0.6-0.8-0.8-1.2
	c0-0.1-0.1-0.1-0.1-0.2c-0.2-0.2-0.3-0.5-0.5-0.7c-0.5-0.7-0.9-1.4-1.4-2.1c0,0-0.1,0-0.1-0.1c-0.4-0.6-0.8-1.3-1.2-1.9
	c-0.6-0.9-1.1-1.8-1.7-2.8c-1-1.6-1.9-3.3-2.8-5c-0.2-0.4-0.4-0.9-0.7-1.3s-0.5-0.9-0.7-1.4c-0.1-0.2-0.2-0.3-0.3-0.5
	c-0.3-0.6-0.6-1.3-1-1.9c-0.2-0.3-0.3-0.7-0.5-1.1s-0.3-0.7-0.5-1c-0.3-0.6-0.6-1.2-0.8-1.8c-0.1-0.2-0.1-0.3-0.2-0.5
	c-0.3-0.7-0.6-1.3-0.9-2c0-0.1-0.1-0.2-0.1-0.3c-0.3-0.7-0.6-1.4-0.9-2.1c-0.1-0.2-0.2-0.4-0.2-0.5c-0.3-0.7-0.5-1.3-0.8-2
	c-0.6-1.6-1.2-3.2-1.7-4.8s-1.1-3.3-1.5-4.9c-0.2-0.8-0.5-1.7-0.7-2.5s-0.4-1.5-0.6-2.3c0-0.1,0-0.1-0.1-0.2c-0.2-0.7-0.3-1.3-0.5-2
	c-0.1-0.5-0.3-1.1-0.4-1.6c-0.3-1.2-0.5-2.4-0.7-3.6l-0.3-1.7c-0.1-0.3-0.1-0.6-0.1-0.8s-0.1-0.7-0.1-1s-0.1-0.6-0.1-0.8
	s-0.1-0.7-0.1-1s-0.1-0.9-0.2-1.3c-0.2-1.4-0.3-2.8-0.5-4.2c0-0.4-0.1-0.8-0.1-1.3c0-0.1,0-0.1,0-0.2c0-0.5-0.1-1.1-0.1-1.6
	c-0.1-1-0.1-2-0.2-2.9c0-0.1,0-0.3,0-0.4c0-0.5,0-1-0.1-1.5c-0.1-2-0.1-3.9-0.1-5.8c0-0.6,0-1.2,0-1.8s0-0.9,0.1-1.4
	c0-0.7,0.1-1.4,0.1-2.1c0-0.5,0.1-1.1,0.1-1.7c0.1-0.9,0.1-1.9,0.2-2.8c0-0.4,0-0.7,0.1-1.1c0.1-1,0.2-2,0.3-3c0-0.1,0-0.3,0.1-0.4
	c0-0.5,0.1-1,0.2-1.5c0.2-1.2,0.3-2.3,0.5-3.4s0.4-2.3,0.6-3.5l0.3-1.7c0.2-1.2,0.5-2.3,0.7-3.5s0.5-2.3,0.8-3.4
	c0.4-1.7,0.9-3.4,1.4-5.2c0.2-0.6,0.4-1.2,0.6-1.8s0.3-1,0.4-1.4c0.6-1.8,1.1-3.5,1.8-5.2c0.2-0.5,0.4-1,0.6-1.5l0.3-0.8
	c94.4-10.5,204-16.5,321-16.5c12.3,0,24.5,0.1,36.7,0.2c1.2,1.1,2.2,2.4,2.9,3.9c5.4,11-7.7,21.5-18.8,26.6
	c-33.6,15.5-67.9,29.2-102.9,41.1c-13.1,4.5-26.6,8.8-37.3,17.7c-3.6,3-6.8,6.5-9.3,10.5c-5,7.9-7.4,17.2-4.8,26
	c3,10.5,11.4,17.2,21.7,21.6c8.1,3.5,17.4,5.5,26,6.7c112.7,16,230.7,2.4,337.5,41.5L713.5,809.2z"/>
<path class="st6" d="M323.3,787.8l-2.1,1.9c-1.3,1.1-1.4,3.1-0.2,4.4c0.6,0.6,1.4,1,2.3,1h21.8c1.7,0,3.1-1.4,3.1-3.1
	c0-0.8-0.3-1.6-0.9-2.2l-1.5-1.5C339.5,782.3,329.7,782.1,323.3,787.8L323.3,787.8z"/>
<path class="st7" d="M347.2,789.9l-1.5-1.5c-4.1-4-9.9-5.6-15.4-4.2c2.9,0.7,5.5,2.2,7.6,4.2l1.5,1.5c1.2,1.2,1.2,3.1,0,4.3
	c-0.6,0.6-1.4,0.9-2.2,0.9h7.9c1.7,0,3.1-1.4,3.1-3.1C348.1,791.2,347.8,790.4,347.2,789.9L347.2,789.9z"/>
<path class="st6" d="M169.6,693.4l-1.1,1c-0.6,0.6-0.7,1.5-0.1,2.2c0.3,0.3,0.7,0.5,1.1,0.5h10.9c0.8,0,1.5-0.7,1.5-1.5
	c0-0.4-0.2-0.8-0.5-1.1l-0.8-0.8C177.7,690.7,172.8,690.5,169.6,693.4z"/>
<path class="st7" d="M181.5,694.4l-0.8-0.8c-2-2-5-2.8-7.7-2.1c1.4,0.3,2.7,1.1,3.8,2.1l0.8,0.8c0.6,0.6,0.6,1.6,0,2.2
	c-0.3,0.3-0.7,0.5-1.1,0.5h3.9c0.8,0,1.5-0.7,1.5-1.5C182,695.1,181.8,694.7,181.5,694.4z"/>
<path class="st6" d="M347.6,672.3l-1.1,1c-0.6,0.6-0.7,1.5-0.1,2.2c0.3,0.3,0.7,0.5,1.1,0.5h10.9c0.9,0,1.5-0.7,1.5-1.5
	c0-0.4-0.2-0.8-0.5-1.1l-0.8-0.7C355.7,669.6,350.8,669.4,347.6,672.3z"/>
<path class="st7" d="M359.5,673.3l-0.8-0.7c-2-2-4.9-2.8-7.7-2.1c1.4,0.4,2.7,1.1,3.8,2.1l0.8,0.7c0.6,0.6,0.6,1.6,0,2.2
	c-0.3,0.3-0.7,0.5-1.1,0.5h3.9c0.9,0,1.5-0.7,1.5-1.5C360,674,359.8,673.6,359.5,673.3L359.5,673.3z"/>
<path class="st6" d="M551.3,672.3l-1.1,1c-0.6,0.6-0.7,1.5-0.1,2.2c0.3,0.3,0.7,0.5,1.1,0.5h10.9c0.8,0,1.5-0.7,1.5-1.5
	c0-0.4-0.2-0.8-0.5-1.1l-0.8-0.7C559.4,669.6,554.5,669.4,551.3,672.3z"/>
<path class="st7" d="M563.2,673.3l-0.8-0.7c-2-2-4.9-2.8-7.7-2.1c1.4,0.3,2.7,1.1,3.8,2.1l0.8,0.7c0.6,0.6,0.6,1.6,0,2.2
	c-0.3,0.3-0.7,0.5-1.1,0.5h3.9c0.8,0,1.5-0.7,1.5-1.5C563.7,674,563.5,673.6,563.2,673.3z"/>
<path class="st6" d="M742.9,713.1l-1.1,1c-0.6,0.6-0.7,1.5-0.1,2.2c0.3,0.3,0.7,0.5,1.1,0.5h10.9c0.9,0,1.5-0.7,1.5-1.5
	c0-0.4-0.2-0.8-0.5-1.1l-0.8-0.7C751,710.3,746.1,710.2,742.9,713.1z"/>
<path class="st7" d="M754.9,714.1l-0.8-0.7c-2-2-4.9-2.8-7.7-2.1c1.4,0.3,2.7,1.1,3.8,2.1l0.8,0.7c0.6,0.6,0.6,1.6,0,2.2
	c-0.3,0.3-0.7,0.5-1.1,0.5h3.9c0.9,0,1.5-0.7,1.5-1.5C755.3,714.8,755.1,714.4,754.9,714.1z"/>
<path class="st6" d="M816.8,666.4l-0.6,0.6c-0.4,0.3-0.4,0.9-0.1,1.3c0.2,0.2,0.4,0.3,0.7,0.3h6.3c0.5,0,0.9-0.4,0.9-0.9
	c0-0.2-0.1-0.5-0.3-0.6l-0.4-0.4C821.5,664.8,818.7,664.7,816.8,666.4L816.8,666.4z"/>
<path class="st7" d="M823.7,667l-0.4-0.4c-1.2-1.2-2.9-1.6-4.5-1.2c0.8,0.2,1.6,0.6,2.2,1.2l0.4,0.4c0.3,0.4,0.3,0.9,0,1.3
	c-0.2,0.2-0.4,0.3-0.6,0.3h2.3c0.5,0,0.9-0.4,0.9-0.9C824,667.4,823.9,667.2,823.7,667L823.7,667z"/>
<path class="st6" d="M758,645.3l-0.6,0.5c-0.4,0.3-0.4,0.9-0.1,1.3c0.2,0.2,0.4,0.3,0.7,0.3h6.3c0.5,0,0.9-0.4,0.9-0.9
	c0-0.2-0.1-0.5-0.3-0.6l-0.4-0.4C762.7,643.7,759.9,643.7,758,645.3L758,645.3z"/>
<path class="st7" d="M764.9,645.9l-0.4-0.4c-1.2-1.2-2.9-1.6-4.5-1.2c0.8,0.2,1.6,0.6,2.2,1.2l0.4,0.4c0.4,0.3,0.4,0.9,0,1.2
	c-0.2,0.2-0.4,0.3-0.7,0.3h2.3c0.5,0,0.9-0.4,0.9-0.9C765.2,646.3,765.1,646.1,764.9,645.9z"/>
<path class="st6" d="M600,640.1l-0.6,0.5c-0.4,0.3-0.4,0.9-0.1,1.3c0.2,0.2,0.4,0.3,0.7,0.3h6.3c0.5,0,0.9-0.4,0.9-0.9
	c0-0.2-0.1-0.5-0.3-0.6l-0.4-0.4C604.7,638.5,601.9,638.4,600,640.1L600,640.1z"/>
<path class="st7" d="M606.9,640.6l-0.4-0.4c-1.2-1.2-2.9-1.6-4.5-1.2c0.8,0.2,1.6,0.6,2.2,1.2l0.4,0.4c0.3,0.3,0.3,0.9,0,1.3
	c-0.2,0.2-0.4,0.3-0.6,0.3h2.3c0.5,0,0.9-0.4,0.9-0.9C607.2,641.1,607.1,640.8,606.9,640.6L606.9,640.6z"/>
<path class="st6" d="M398.9,636.1l-0.6,0.6c-0.4,0.3-0.4,0.9-0.1,1.3c0.2,0.2,0.4,0.3,0.7,0.3h6.3c0.5,0,0.9-0.4,0.9-0.9
	c0-0.2-0.1-0.5-0.3-0.6l-0.4-0.4C403.6,634.5,400.7,634.5,398.9,636.1L398.9,636.1z"/>
<path class="st7" d="M405.8,636.7l-0.4-0.4c-1.2-1.2-2.9-1.6-4.5-1.2c0.8,0.2,1.6,0.6,2.2,1.2l0.4,0.4c0.4,0.3,0.4,0.9,0,1.3
	c-0.2,0.2-0.4,0.3-0.7,0.3h2.3c0.5,0,0.9-0.4,0.9-0.9C406.1,637.1,406,636.9,405.8,636.7z"/>
<path class="st6" d="M477.6,798.8l-0.6,0.5c-0.4,0.3-0.4,0.9-0.1,1.3c0.2,0.2,0.4,0.3,0.7,0.3h6.3c0.5,0,0.9-0.4,0.9-0.9
	c0-0.2-0.1-0.5-0.3-0.6L484,799C482.2,797.3,479.4,797.2,477.6,798.8L477.6,798.8z"/>
<path class="st7" d="M484.5,799.4L484,799c-1.2-1.2-2.9-1.6-4.5-1.2c0.8,0.2,1.6,0.6,2.2,1.2l0.4,0.4c0.3,0.3,0.3,0.9,0,1.3
	c-0.2,0.2-0.4,0.3-0.6,0.3h2.3c0.5,0.1,0.9-0.3,1-0.8C484.8,799.9,484.7,799.6,484.5,799.4z"/>
<path class="st6" d="M143.8,655.5l-0.6,0.6c-0.4,0.3-0.4,0.9-0.1,1.3c0.2,0.2,0.4,0.3,0.7,0.3h6.3c0.5,0,0.9-0.4,0.9-0.9
	c0-0.2-0.1-0.5-0.3-0.6l-0.4-0.4C148.5,653.9,145.7,653.8,143.8,655.5L143.8,655.5z"/>
<path class="st7" d="M150.8,656.1l-0.4-0.4c-1.2-1.2-2.9-1.6-4.5-1.2c0.8,0.2,1.6,0.6,2.2,1.2l0.4,0.4c0.4,0.3,0.4,0.9,0,1.3
	c-0.2,0.2-0.4,0.3-0.6,0.3h2.3c0.5,0,0.9-0.4,0.9-0.9C151,656.5,150.9,656.2,150.8,656.1L150.8,656.1z"/>
<path class="st6" d="M194.5,638.3l-0.4,0.3c-0.2,0.2-0.2,0.5,0,0.7c0.1,0.1,0.2,0.2,0.4,0.2h3.7c0.3,0,0.5-0.2,0.5-0.5
	c0-0.1-0.1-0.3-0.2-0.4l-0.3-0.3C197.3,637.3,195.6,637.3,194.5,638.3L194.5,638.3z"/>
<path class="st7" d="M198.6,638.6l-0.3-0.3c-0.7-0.7-1.7-0.9-2.6-0.7c0.5,0.1,0.9,0.4,1.3,0.7l0.3,0.3c0.2,0.2,0.2,0.5,0,0.7
	c-0.1,0.1-0.2,0.2-0.4,0.2h1.3c0.3,0,0.5-0.2,0.5-0.5C198.8,638.9,198.7,638.7,198.6,638.6L198.6,638.6z"/>
<path class="st6" d="M224.7,649.2l-0.4,0.3c-0.2,0.2-0.2,0.5,0,0.7c0.1,0.1,0.2,0.2,0.4,0.2h3.7c0.3,0,0.5-0.2,0.5-0.5
	c0-0.1-0.1-0.3-0.2-0.4l-0.3-0.3C227.5,648.2,225.8,648.2,224.7,649.2L224.7,649.2z"/>
<path class="st7" d="M228.8,649.5l-0.3-0.3c-0.7-0.7-1.7-1-2.6-0.7c0.5,0.1,0.9,0.4,1.3,0.7l0.3,0.3c0.2,0.2,0.2,0.5,0,0.7
	c-0.1,0.1-0.2,0.1-0.4,0.2h1.3c0.3,0,0.5-0.2,0.5-0.5C228.9,649.7,228.9,649.6,228.8,649.5L228.8,649.5z"/>
<path class="st6" d="M195.4,768.8l-0.4,0.3c-0.2,0.2-0.2,0.5,0,0.7c0.1,0.1,0.2,0.2,0.4,0.2h3.7c0.3,0,0.5-0.2,0.5-0.5
	c0-0.1-0.1-0.3-0.2-0.4l-0.3-0.3C198.2,767.9,196.5,767.9,195.4,768.8L195.4,768.8z"/>
<path class="st7" d="M199.5,769.2l-0.3-0.3c-0.7-0.7-1.7-1-2.6-0.7c0.5,0.1,0.9,0.4,1.3,0.7l0.3,0.3c0.2,0.2,0.2,0.5,0,0.7
	c-0.1,0.1-0.2,0.2-0.4,0.2h1.3c0.3,0,0.5-0.2,0.5-0.5C199.6,769.4,199.6,769.3,199.5,769.2L199.5,769.2z"/>
<path class="st6" d="M358.1,806.3l-0.4,0.3c-0.2,0.2-0.2,0.5,0,0.7c0.1,0.1,0.2,0.2,0.4,0.2h3.7c0.3,0,0.5-0.2,0.5-0.5
	c0-0.1-0.1-0.3-0.2-0.4l-0.3-0.3C360.9,805.3,359.2,805.3,358.1,806.3L358.1,806.3z"/>
<path class="st7" d="M362.2,806.6l-0.3-0.3c-0.7-0.7-1.7-1-2.6-0.7c0.5,0.1,0.9,0.4,1.3,0.7l0.3,0.3c0.2,0.2,0.2,0.5,0,0.7
	c-0.1,0.1-0.2,0.1-0.4,0.2h1.3c0.3,0,0.5-0.2,0.5-0.5C362.4,806.8,362.3,806.7,362.2,806.6z"/>
<path class="st6" d="M532,769.8l-0.4,0.3c-0.2,0.2-0.2,0.5,0,0.7c0.1,0.1,0.2,0.2,0.4,0.2h3.7c0.3,0,0.5-0.2,0.5-0.5
	c0-0.1-0.1-0.3-0.2-0.4l-0.3-0.3C534.8,768.9,533.1,768.8,532,769.8L532,769.8z"/>
<path class="st7" d="M536.1,770.2l-0.3-0.3c-0.7-0.7-1.7-1-2.6-0.7c0.5,0.1,0.9,0.4,1.3,0.7l0.3,0.3c0.2,0.2,0.2,0.5,0,0.7
	c-0.1,0.1-0.2,0.2-0.4,0.2h1.3c0.3,0,0.5-0.2,0.5-0.5C536.3,770.4,536.2,770.3,536.1,770.2L536.1,770.2z"/>
<path class="st6" d="M706.8,770.8l-0.4,0.3c-0.2,0.2-0.2,0.5,0,0.7c0.1,0.1,0.2,0.2,0.4,0.2h3.7c0.3,0,0.5-0.2,0.5-0.5
	c0-0.1-0.1-0.3-0.2-0.4l-0.3-0.3C709.6,769.8,707.9,769.8,706.8,770.8L706.8,770.8z"/>
<path class="st7" d="M710.9,771.1l-0.3-0.3c-0.7-0.7-1.7-0.9-2.6-0.7c0.5,0.1,0.9,0.4,1.3,0.7l0.3,0.3c0.2,0.2,0.2,0.5,0,0.7
	c-0.1,0.1-0.2,0.1-0.4,0.2h1.3c0.3,0,0.5-0.2,0.5-0.5C711,771.4,711,771.2,710.9,771.1z"/>
<path class="st8" d="M510.9,329.6l-127-20.5l-4.4,8.4l-5-1.8l-11,20.4l36,87l35.8,15.9l72.7-56.3L510.9,329.6z"/>
<path class="st9" d="M609.3,256.5l5.4-0.5c4.3-0.4,8.5,0.9,11.8,3.7l6.8,5.8c0.6,0.5,0.7,1.4,0.2,2c-0.4,0.5-1,0.6-1.6,0.4l-8.1-1.9
	c-1-0.3-2,0.2-2.4,1.1c-0.2,0.4-0.1,0.9,0.1,1.4l3.5,4.6c0.5,0.6,0.4,1.6-0.3,2c-0.4,0.3-1,0.4-1.5,0.2l-3.9-1.7
	c-2.6-1.1-5-2.4-7.3-4l-5.6-3.8l-2.7-5.5L609.3,256.5z"/>
<path class="st10" d="M609.3,256.5l-2.9,9.4L516,259c2.6-7.2,5-14.9,7-23.1v-0.6l7.3-8.3C558.2,231.8,585,241.8,609.3,256.5z"/>
<path class="st11" d="M556.3,236.8L556.3,236.8l-7.1,8.6l-7,8.5l-0.1,0.1l-3.9-9.9l-2.9-7.2l-9.8-24.8L541,214l1.2,0.1l4,4.4l2,3.6
	L556.3,236.8z"/>
<path class="st9" d="M556.3,236.8l-3.7-1.1c-2.5-0.7-5,0.8-5.7,3.3c-0.3,0.9-0.2,1.9,0.1,2.8l1.7,4.2L556.3,236.8z"/>
<path class="st11" d="M321.8,277.7l-3.1,0.3c-6.2,0.7-12,3.3-16.5,7.6c-3.7,3.5-3.9,9.3-0.5,13c3.5,3.8,8.3,3,11.9-0.7l1.7-1.8
	c0.5-0.5,1.3-0.5,1.8,0c0.3,0.3,0.5,0.8,0.3,1.3l-1.6,4c-0.9,3,2.3,2.7,3,2.1c4.2-3.3,6.9-8.2,7.3-13.6l0.4-4.8L321.8,277.7z"/>
<ellipse class="st5" cx="474" cy="735.7" rx="298.1" ry="26.7"/>
<path class="st12" d="M347.4,759.9c-101.3-4.3-171.5-13.5-171.5-24.2c0-10.1,62.5-18.9,154.7-23.5c-5,7.9-7.4,17.2-4.8,26
	C328.8,748.8,337.2,755.5,347.4,759.9z"/>
<path class="st8" d="M592,471.2l-6.4,9.1l-9.1-6.3l-21-75.3l-3.5-10.4c0,0-38.1,20-73.9,35.2c-19.8,8.4-40.4,15.9-56.5,18.6
	c-5.1,1-10.3,1.3-15.4,1c10.7-31.3,26.4-51.1,26.4-51.1s44.3-12.8,78.2-62.4c17.9,0.6,50.7,9.1,68.9,24.1
	C609.3,378,592,471.2,592,471.2L592,471.2z"/>
<path class="st13" d="M606.5,486.9l-20,3l-3.9,0.6c-3.3,0.5-6.4-1.8-6.9-5.1c-0.1-0.4-0.1-0.9-0.1-1.3l0.2-2.8l0.5-7.4l15.5-2.7
	l15.4,5.2c2.9,0.9,4.4,4,3.5,6.9C610.2,485.2,608.5,486.6,606.5,486.9L606.5,486.9z"/>
<path class="st14" d="M559.6,388.3l-4,10.2l-3.5-10.4l4.4-2.5c1-0.6,2.4-0.3,3,0.7C559.8,387,559.8,387.7,559.6,388.3L559.6,388.3z"
	/>
<path class="st14" d="M483.8,360.8c-1.8,1.6-3.5,3.1-5.2,4.5l-0.2,0.1l-0.2,0.2c-0.7,0.6-1.3,1.2-2,1.6l-0.1,0.1
	c-23.4,18.8-43.4,24.6-43.4,24.6v0.1c0,0.4-0.3,2.9-0.9,7v0.1c0,0.3-0.1,0.6-0.1,1v0.3c-2.3,14.1-5.5,28-9.8,41.6
	c16.1-2.8,36.7-10.2,56.5-18.6l-0.5-0.1c-11.7-1.7-19.9-12.6-18.2-24.3c0.6-4.1,2.4-7.9,5.1-11C472,379.6,478.4,370.5,483.8,360.8
	L483.8,360.8z"/>
<path class="st15" d="M447.7,382.8c0,0-0.1,1.1-0.4,3.1c-0.2,1.4-0.4,3.2-0.8,5.4c-2.7,16.1-6.5,32-11.3,47.7
	c-9.3,30.2-24.6,66.3-48.8,78c-56.4,27.2-131.6-34.6-131.6-34.6l-4.3-8.7l8.9-6.3l75,4.4l11.7,0.6c0,0,0.4-9.7,0.7-27.7
	c0-0.3,0-0.6,0-0.9c0-0.8,0-1.6,0-2.4c0.3-15.9,0.4-37.6,0.3-64.3c0-3.6,0.1-7,0.4-10.3c4-27.2,17.6-43.2,27-51.2c0,0,0-0.1,0-0.1
	c0,0,0,0.1,0,0.1c2.8-2.5,6-4.7,9.3-6.6h0.1c2.2-1,4.3-2,6.4-3l0.9-0.4l41.7,29.1v0.1l7.6,24.5L447.7,382.8z"/>
<path class="st8" d="M432.9,391.9c-16.9-1.7-33.2-6.9-48-15.3c-9-5.2-20.4-2.2-25.6,6.8c-0.3,0.5-0.5,0.9-0.7,1.4
	c-5.6,11.8-11.1,30-11.7,56.7c0.3-15.9,0.4-37.6,0.3-64.3c0-3.6,0.1-7,0.4-10.3c4-27.2,17.6-43.2,27-51.2c0,0,0-0.1,0-0.1
	c0,0,0,0.1,0,0.1c2.8-2.5,6-4.7,9.3-6.6h0.1c2.2-1,4.3-2,6.4-3L432.9,391.9z"/>
<path class="st11" d="M587.6,227c-0.4,0.4-0.6,0.9-0.7,1.5c-0.6,4.2-1.9,16-9.7,14.4c-7.1-1.5-14.1-3.5-20.9-6.1
	c-4.5-1.8-8.1-4-9.3-6.1c-0.4-0.7-0.8-1.6-1.2-2.7c-1.5-3.6-3.3-9.1-4.8-13.9c-1.7-5.6-3.1-10.3-3.1-10.3l9.7-17.7l33-4.2l5-0.6
	c0,0,3.8,2.4,4.2,9.5c0.1,2.4-0.1,4.8-0.6,7.2c-2.6,12.7-0.5,16.4,2.2,20.5c0.6,0.8,1,1.7,1.3,2.6C594,224.9,589.4,225,587.6,227z"
	/>
<path class="st9" d="M589.9,190.7c-2,6-6.8,10.6-12.8,12.5c-9.9,3.3-23.3,7.8-28.8,19.1c-0.4,0.8-0.7,1.6-1,2.4
	c-0.4,1.2-0.9,2.3-1.5,3.4c-2.2,4.2-5.9,7.4-10.4,9l-9.8-24.8L541,214c-1.7-5.6-3.1-10.3-3.1-10.3l9.7-17.7l33-4.2
	C585.5,186.4,589.6,190.4,589.9,190.7L589.9,190.7z"/>
<path class="st16" d="M542.3,254.5c-0.3,1.6-0.7,3.2-1.2,4.8l-0.4,1.6c-1.4,5.9-3,11.5-4.8,16.9c-1.9,5.9-4,11.6-6.3,17
	c-5.1,12.2-11.4,23.9-18.8,34.9c-1.6,2.3-3.2,4.5-4.8,6.7c-0.5,0.7-1.1,1.4-1.6,2.1c-0.9,1.1-1.7,2.2-2.6,3.2l-1,1.2
	c0,0-0.1,0.1-0.1,0.1l-1.3,1.5c-0.6,0.7-1.2,1.3-1.7,1.9s-1,1.2-1.6,1.8c-0.3,0.3-0.6,0.6-0.9,1s-0.9,0.9-1.3,1.4l-1.3,1.4l-1.3,1.4
	l-0.8,0.9l-1.2,1.2c-0.5,0.5-1,1-1.5,1.5l-0.3,0.3l-0.1,0.1c-0.5,0.5-1,0.9-1.5,1.4c-0.5,0.4-1.2,1-1.7,1.6l-0.6,0.6l-1.1,0.9
	c-1,0.9-1.9,1.7-2.8,2.5l-1.2,1l-0.1,0.1l-0.2,0.1l-0.2,0.2l-1,0.8c-0.3,0.3-0.7,0.5-1,0.8l-0.1,0.1l-0.9,0.7
	c-0.1,0-0.1,0.1-0.2,0.1L474,369c-0.8,0.6-1.6,1.2-2.3,1.8c-0.3,0.3-0.7,0.5-1,0.8l-0.6,0.4l-1,0.7c-0.2,0.1-0.4,0.3-0.5,0.4
	l-0.5,0.4c-0.2,0.1-0.3,0.3-0.5,0.4c-0.1,0.1-0.2,0.2-0.4,0.3l-0.3,0.2l-0.4,0.3c-0.4,0.3-0.9,0.6-1.3,0.9l-0.1,0.1
	c-0.1,0.1-0.2,0.1-0.3,0.2c0,0-0.1,0.1-0.1,0.1l-0.1,0.1c0,0,0,0-0.1,0c0,0-0.1,0.1-0.1,0.1l-0.1,0.1l-0.4,0.2
	c-0.1,0.1-0.2,0.2-0.4,0.2l-0.1,0.1c-0.3,0.2-0.7,0.4-1,0.7l-0.3,0.2l-1.5,0.9l-0.1,0.1l-1.3,0.8l-0.2,0.1c-0.1,0.1-0.3,0.2-0.5,0.3
	l-0.8,0.5c-0.7,0.4-1.4,0.8-2,1.2l-0.9,0.5c-0.3,0.2-0.6,0.3-0.9,0.5c-0.3,0.2-0.6,0.3-0.9,0.5l-0.7,0.4l-0.2,0.1
	c-0.3,0.2-0.6,0.3-0.9,0.5l-1.3,0.7c-0.7,0.4-1.3,0.7-2,1l-0.2,0.1l-0.1,0.1l-0.2,0.1l-0.2,0.1L447,386l-0.3,0.1l-0.4,0.2h-0.1
	l-0.5,0.2l-0.6,0.3l-0.9,0.4l-0.2,0.1l-0.3,0.1l0,0l-0.2,0.1l-0.2,0.1h-0.1l-0.2,0.1h-0.1l-0.6,0.3l-0.3,0.1l-0.5,0.2
	c-0.6,0.3-1.3,0.5-1.8,0.8l-0.3,0.1l-0.4,0.2l-0.9,0.3l-0.3,0.1l-0.2,0.1l-0.5,0.2l-0.6,0.2l-0.2,0.1h-0.2l-0.4,0.2
	c-0.1,0-0.2,0.1-0.3,0.1l-0.3,0.1h-0.1L435,391h-0.1h-0.1l-0.1,0.1h-0.2l-0.4,0.1h-0.1h-0.1h-0.1l-0.4,0.1h-0.1h-0.1h-0.1
	c-2.5-1.1-4.9-2.4-7.3-3.7c-4-2.3-7.7-4.9-11.3-7.9c-4.6-3.8-8.8-8-12.6-12.5c-1.8-2.1-3.4-4.2-5-6.4c-0.5-0.6-0.9-1.3-1.3-1.9
	l-0.7,0.4c-0.5-0.6-0.9-1.3-1.3-2c-0.4-0.7-0.9-1.4-1.4-2.1l-0.1-0.2c-0.4-0.6-0.7-1.2-1.1-1.7l-0.3-0.6c-0.3-0.5-0.6-1-0.9-1.5
	c-0.1-0.2-0.2-0.4-0.3-0.6c-0.3-0.6-0.7-1.2-1-1.7c-0.9-1.6-1.7-3.1-2.5-4.7c-0.4-0.8-0.8-1.6-1.2-2.3c-1-1.9-1.9-3.8-2.7-5.6
	l-0.5-1.1c0-0.1-0.1-0.1-0.1-0.2c-0.5-1.2-1-2.4-1.5-3.6c-0.3-0.6-0.5-1.2-0.7-1.7c-0.2-0.6-0.4-1.2-0.6-1.7
	c-0.1-0.3-0.2-0.5-0.3-0.8c-0.2-0.5-0.4-1.1-0.6-1.6l-0.3-0.8l-0.5-1.5l-0.5-1.4l-0.2-0.7c-0.4-1.3-0.8-2.5-1.2-3.6
	c-0.1-0.2-0.1-0.3-0.1-0.5c0-0.1-0.1-0.2-0.1-0.4c-0.1-0.3-0.2-0.7-0.3-1c2.8-2.5,6-4.7,9.3-6.6h0.1c2.5-1.2,4.9-2.3,7.3-3.5
	c6.2-3.1,12.2-6.5,18-10.3c8.3-5.4,16.1-11.5,23.5-18.1c4.6-4.1,8.9-8.2,12.9-12.4c1.2-1.3,2.4-2.5,3.6-3.8c3.5-3.8,6.9-7.6,10-11.3
	c4.4-5.2,8.4-10.2,12-14.9c1.3-1.7,2.7-3.3,4.2-4.7c10.7-10.7,24.3-15.1,34.7-17c5.1-1,10.3-1.4,15.5-1.2l6,15.2l5.9,14.9l0.8,1.9
	L542.3,254.5z"/>
<path class="st10" d="M517.6,265.9c0,0-25.3,18.2-62,23.4c-36.8,5.2-55.3,50.6-38.3,79.6c-23.4-25.1-33.5-59.8-33.5-59.8
	c2.5-1.2,4.9-2.3,7.3-3.5c6.2-3.1,12.2-6.5,18-10.3c8.3-5.4,16.1-11.4,23.5-18c4.6-4.1,8.9-8.2,12.9-12.4c1.2-1.3,2.4-2.5,3.6-3.8
	c3.5-3.8,6.9-7.6,10-11.3c4.4-5.2,8.4-10.2,12-14.9c1.3-1.7,2.7-3.3,4.2-4.7L517.6,265.9z"/>
<path class="st13" d="M259.4,467.4l-4.6,15.1l-11.5,11.4c-2.1,2.1-5.6,2.1-7.7,0c-1.5-1.5-2-3.6-1.3-5.6l6.6-19.8l1-3
	c1-3.2,4.5-4.9,7.6-3.8c0.4,0.1,0.8,0.3,1.2,0.5l3.9,2.3L259.4,467.4z"/>
<path class="st16" d="M536,247.4c-4.9,13.1-17.8,21.4-31.7,20.5c-1.6-0.1-3.4-0.2-5.3-0.4c-15-1.2-39.3-3.8-59.1-8.2
	c-3.2-0.7-6.2-1.5-9.1-2.3c-1.9-0.5-3.8-1.2-5.6-1.7c-2.6-0.8-5.1-1.8-7.6-3l-0.1-0.1l-90.8,33.6l-2.8-4.4l-2.5-3.8
	c7.2-7.8,15-15.1,23.3-21.8c46.4-37.5,107.9-56.1,164.5-51.1c17.4,1.5,30.3,16.9,28.8,34.3C537.6,241.9,537,244.7,536,247.4
	L536,247.4z"/>
<path class="st10" d="M532.8,230.3l-7.8,2.8c0,0-0.7-22.5-49-18.4s-100.3,20.3-131.4,41.3c46.4-37.5,107.9-56.1,164.5-51.1
	c9.1,0.8,17.4,5.5,22.8,12.8C532.4,225,532.8,230.3,532.8,230.3z"/>
<path class="st17" d="M542.3,254.5l-10.4,3c-3,0.9-6.3-0.8-7.2-3.8c-0.2-0.6-0.3-1.3-0.2-1.9l0.2-8.5l0.8-29.1c0-1.1,0.9-1.9,2-1.9
	c0,0,0.1,0,0.1,0l10.2,0.8l4.4,40.8L542.3,254.5z"/>
<path class="st18" d="M595.9,184.2c-0.5,0.4-0.9,0.9-1.2,1.5c-0.2,0.6-0.4,1.1-0.7,1.6c-5.8,9.5-29.8,1.2-29.8,1.2
	c0.3,2.1,0.3,4.2,0.2,6.2c-0.4,7.1-3.2,11.3-5.5,13.5c-0.5,0.5-1.3,0.5-1.8,0c-0.2-0.2-0.3-0.5-0.4-0.8c-0.1-1.2-0.8-2.5-2.9-3.5
	c-4.8-2.1-7.5,2-8.2,6.9c-0.1,0.6-0.2,1.3-0.2,1.9c-0.1,2.6,0.6,4.2,1.5,5c0.4,0.4,0.4,1,0.1,1.4c-0.2,0.2-0.4,0.3-0.6,0.3
	c-0.5,0.1-1,0.1-1.5,0.1c-2.2,0-4.3-0.7-6-2.1c-10.8-9.1-12.8-32.5-0.9-46.1c9.5-11,18.1-8.7,22.1-6.6c1.5,0.8,3.3,0.9,4.9,0.2
	c4.1-1.8,13.1-3.9,24.2,4.5c1.5,1.1,2.9,2.3,4.3,3.6C600.5,179.9,597.6,183.1,595.9,184.2L595.9,184.2z"/>
<path class="st14" d="M346.1,472.3v3.3c0.1,1.9-1.4,3.5-3.4,3.6c-1.1,0-2.1-0.4-2.8-1.3l-5.6-6.2L346.1,472.3z"/>
<path class="st9" d="M587.6,227c-3.9,0-4.5-4.6-1.2-4.1c2.3,0.2,4.5-0.5,6.3-2C594,224.9,589.4,225,587.6,227z"/>
<path class="st19" d="M564.5,194.6l-2.7-4.1c-0.5-0.7-0.3-1.6,0.4-2.1c0.4-0.2,0.8-0.3,1.2-0.2l0.9,0.2
	C564.5,190.5,564.6,192.6,564.5,194.6z"/>
<path class="st10" d="M430.7,257c-1.9-0.5-3.8-1.2-5.6-1.7c-2.6-0.9-5.2-1.9-7.7-3l6.2-2.1c2.4-0.8,5,0.5,5.9,2.9c0,0,0,0.1,0,0.1
	L430.7,257z"/>
<path class="st20" d="M442.9,388l-0.6,0.3l-0.3,0.1l-0.5,0.2c-0.6,0.3-1.3,0.5-1.8,0.8l-0.3,0.1l-0.4,0.2l-0.9,0.3l-0.3,0.1
	l-0.2,0.1l-0.5,0.2l-0.6,0.2l-0.2,0.1h-0.2l-0.4,0.2c-0.1,0-0.2,0.1-0.3,0.1l-0.3,0.1h-0.1l-0.2,0.1h-0.1h-0.1l-0.1,0.1h-0.2
	l-0.4,0.1h-0.1h-0.1h-0.1l-0.4,0.1h-0.1H433h-0.1c-2.5-1.1-4.9-2.4-7.3-3.7c-4-2.3-7.7-4.9-11.3-7.9c-4.6-3.8-8.8-8-12.6-12.5
	c-0.7-0.9-1.5-1.8-2.2-2.7l-0.8-1l-0.9-1.2c-0.4-0.5-0.8-1.1-1.2-1.6c-0.3-0.5-0.9-1.3-1.3-1.9l-0.6,0.2c-0.5-0.6-0.9-1.3-1.3-2
	c-0.4-0.7-0.9-1.4-1.4-2.1l-0.1-0.2c-0.4-0.6-0.7-1.2-1.1-1.7l-0.3-0.6c-0.3-0.5-0.6-1-0.9-1.5c-0.1-0.2-0.2-0.4-0.3-0.6
	c-0.3-0.6-0.7-1.2-1-1.7c-0.9-1.6-1.7-3.1-2.5-4.7c-0.4-0.8-0.8-1.6-1.2-2.3c-1-1.9-1.9-3.8-2.7-5.6l-0.5-1.1c0-0.1-0.1-0.1-0.1-0.2
	c-0.5-1.2-1-2.4-1.5-3.6c-0.3-0.6-0.5-1.2-0.7-1.7s-0.4-1.2-0.6-1.7c-0.1-0.3-0.2-0.5-0.3-0.8c-0.2-0.5-0.4-1.1-0.6-1.6l-0.3-0.8
	l-0.5-1.5l-0.5-1.4l-0.2-0.7c-0.4-1.3-0.8-2.5-1.2-3.6c-0.1-0.2-0.1-0.3-0.1-0.5c0-0.1-0.1-0.2-0.1-0.4c-0.1-0.3-0.2-0.7-0.3-1
	c0,0,0-0.1,0-0.1c0,0,0,0.1,0,0.1c2.8-2.5,6-4.7,9.3-6.6h0.1c0,0,10.1,34.7,33.5,59.8C424.6,376.9,433.3,383.4,442.9,388L442.9,388z
	"/>
<path class="st19" d="M593.4,173.1c0,0-13-9.1-24.4-4.2c-11.4,5-11.4,9.8-19.7,11.1c-8.3,1.3-13.3,17.9-3.7,30.8
	c-0.1,0.6-0.2,1.3-0.2,1.9c-0.1,2.6,0.6,4.2,1.5,5c0.4,0.4,0.4,1,0.1,1.4c-0.2,0.2-0.4,0.3-0.6,0.3c-0.5,0.1-1,0.1-1.5,0.1
	c-2.2,0-4.3-0.7-6-2.1c-10.8-9.1-12.8-32.5-0.9-46.1c9.5-11,18.1-8.7,22.1-6.6c1.5,0.8,3.3,0.9,4.9,0.2c4.1-1.8,13.1-3.9,24.2,4.5
	C590.7,170.6,592.1,171.8,593.4,173.1L593.4,173.1z"/>
<path class="st21" d="M417.4,368.9c0,0-7.2-0.2-15.8-1c-0.7-0.9-1.5-1.8-2.2-2.7l-0.8-1l-0.9-1.2c-0.4-0.5-0.8-1.1-1.2-1.6
	c-0.3-0.5-0.9-1.3-1.3-1.9l-0.3-0.3c-0.5-0.6-0.9-1.3-1.3-2c-0.4-0.7-0.9-1.4-1.4-2.1l-0.1-0.2c-0.4-0.6-0.7-1.2-1.1-1.7l-0.3-0.6
	c-0.3-0.5-0.6-1-0.9-1.5c-0.1-0.2-0.2-0.4-0.3-0.6c-0.3-0.6-0.7-1.2-1-1.7c-0.9-1.6-1.7-3.1-2.5-4.7c-0.4-0.8-0.8-1.6-1.2-2.3
	c-1-1.9-1.9-3.8-2.7-5.6l-0.5-1.1c0-0.1-0.1-0.1-0.1-0.2c-0.5-1.2-1-2.4-1.5-3.6c-0.3-0.6-0.5-1.2-0.7-1.7c-0.2-0.6-0.4-1.2-0.6-1.7
	c-0.1-0.3-0.2-0.5-0.3-0.8c-0.2-0.5-0.4-1.1-0.6-1.6l-0.3-0.8l-0.5-1.5l-0.5-1.4l-0.2-0.7c-0.4-1.3-0.8-2.5-1.2-3.6
	c-0.1-0.2-0.1-0.3-0.1-0.5c0-0.1-0.1-0.2-0.1-0.4c-0.1-0.3-0.2-0.7-0.3-1c2.8-2.5,6-4.7,9.3-6.6h0.1
	C383.9,309.2,394,343.8,417.4,368.9L417.4,368.9z"/>
<g>
	<path class="st16" d="M595.3,471.1c-0.2,0.1-0.3,0.3-0.3,0.5c-0.6,4.5-2.7,5.9-2.7,5.9c-0.4,0.2-0.5,0.7-0.2,1.1
		c0.2,0.4,0.7,0.5,1.1,0.2c0.1-0.1,2.7-1.7,3.5-6.9c0.1-0.4-0.2-0.8-0.7-0.9C595.7,471,595.5,471,595.3,471.1L595.3,471.1z"/>
	<path class="st16" d="M599.2,471.9c-0.2,0.1-0.3,0.3-0.3,0.5c-0.6,4.4-2.7,5.9-2.7,5.9c-0.4,0.2-0.5,0.7-0.2,1.1
		c0.2,0.4,0.7,0.5,1,0.2c0,0,0,0,0,0c0.1-0.1,2.7-1.7,3.5-6.9c0.1-0.4-0.2-0.8-0.7-0.9c0,0,0,0,0,0
		C599.5,471.7,599.3,471.7,599.2,471.9L599.2,471.9z"/>
	<path class="st16" d="M602.7,473.5c-0.2,0.1-0.3,0.3-0.3,0.5c-0.6,4.4-2.7,5.9-2.7,5.9c-0.4,0.2-0.5,0.7-0.2,1.1
		c0.2,0.4,0.7,0.5,1.1,0.2c0.1-0.1,2.7-1.7,3.5-6.9c0.1-0.4-0.2-0.8-0.6-0.9c0,0,0,0,0,0C603.1,473.3,602.8,473.4,602.7,473.5z"/>
	<path class="st16" d="M253.8,485.1c0-0.2-0.2-0.4-0.3-0.5c-3.7-2.5-4.1-5-4.1-5c-0.1-0.4-0.4-0.7-0.9-0.7c-0.4,0.1-0.7,0.4-0.7,0.9
		l0,0c0,0.1,0.4,3.2,4.8,6.1c0.4,0.2,0.8,0.1,1.1-0.3C253.7,485.4,253.8,485.2,253.8,485.1L253.8,485.1z"/>
	<path class="st16" d="M251.5,488.2c0-0.2-0.2-0.4-0.3-0.5c-3.7-2.5-4.1-5-4.1-5c-0.1-0.4-0.4-0.7-0.9-0.7c-0.4,0.1-0.7,0.4-0.7,0.9
		l0,0c0,0.1,0.4,3.2,4.8,6.1c0.4,0.2,0.8,0.1,1.1-0.2c0,0,0,0,0,0C251.5,488.6,251.5,488.4,251.5,488.2z"/>
	<path class="st16" d="M248.5,490.7c0-0.2-0.2-0.4-0.3-0.5c-3.7-2.5-4.1-5-4.1-5c-0.1-0.4-0.4-0.7-0.9-0.7c-0.4,0.1-0.7,0.4-0.7,0.9
		l0,0c0,0.1,0.4,3.2,4.8,6.1c0.4,0.2,0.8,0.1,1.1-0.2c0,0,0,0,0,0C248.6,491.1,248.6,490.9,248.5,490.7z"/>
	<path class="st16" d="M586.6,488.8c0,0.4,0,0.7-0.1,1.1l-3.9,0.6c-3.3,0.5-6.4-1.8-6.9-5.1c-0.1-0.4-0.1-0.9-0.1-1.3l0.2-2.8
		c0.9-0.3,1.8-0.5,2.7-0.5C583,480.8,586.6,484.4,586.6,488.8C586.6,488.8,586.6,488.8,586.6,488.8z"/>
	<path class="st16" d="M254.5,464.4c-0.7,3.8-4,6.6-7.8,6.6c-2.2,0-4.3-0.9-5.8-2.6l1-3c1-3.2,4.5-4.9,7.6-3.8
		c0.4,0.1,0.8,0.3,1.2,0.5L254.5,464.4z"/>
</g>
</svg>
