<svg xmlns="http://www.w3.org/2000/svg" width="150" height="45" viewBox="0 0 150 45">
<path d="M83.9 11.6c-5.6-3.2-12.7-1.9-16.5 5.8-1.5 3.1-1.9 8.1-1.9 12.9 0 4.6.1 9.8.2 12.2 0 .7.8 1.1 1.4.8 2.1-1.1 6.3-3.4 10.3-5.8 3.5-2 7.2-4.6 9.7-7.7 4.7-5.7 3.2-14.5-3.2-18.2zM75.3 27c-3-1.6-4.1-5.3-2.5-8.3s5.3-4.1 8.3-2.5c3 1.6 4.1 5.3 2.5 8.3-1.6 3-5.3 4.1-8.3 2.5z" fill="#ec7253"/>
<path fill="#273940" class="st1" d="M13.3 14.9H9.5c-.1 0-.3.1-.3.3v17.2c0 .1-.1.3-.3.3H3.8c-.1 0-.3-.1-.3-.3V15.1c0-.1-.1-.3-.3-.3h-2c-.1 0-.3-.1-.3-.3v-4.1c0-.1.1-.3.3-.3h2c.1 0 .3-.1.3-.3v-.7c0-2.7.8-4.7 2.3-6 1.5-1.3 4.4-1.9 7.5-1.8.1 0 .3.1.3.3v4.2c0 .1-.1.3-.3.3-1.3 0-2.8.2-3.3.7-.5.4-.8 1.3-.8 2.5v.9h4.1c.1 0 .3.1.3.3v4.1c0 .2-.1.3-.3.3zM40.7 6.7c-.7-.6-1-1.4-1-2.4 0-.9.3-1.7 1-2.4.6-.6 1.5-.9 2.5-.9s1.8.3 2.5.9c.7.6 1 1.4 1 2.4 0 .9-.3 1.7-1 2.4-.7.6-1.5.9-2.5.9s-1.9-.3-2.5-.9zm5.2 3.8v21.8c0 .1-.1.3-.3.3h-5.1c-.1 0-.3-.1-.3-.3V10.5c0-.1.1-.3.3-.3h5.1c.2.1.3.2.3.3zM58.9 10.9c1.1-.6 2.3-1 3.7-1 .1 0 .3.1.3.3v5.4c0 .1-.1.3-.3.3h-1.2c-1.8 0-3.1.4-4 1.2-.9.8-1.3 2.3-1.3 4.3v10.8c0 .1-.1.3-.3.3h-5.1c-.1 0-.3-.1-.3-.3V10.5c0-.1.1-.3.3-.3h5.1c.1 0 .3.1.3.3v2.4c0 .2.3.4.5.2.5-.9 1.3-1.6 2.3-2.2zM99.6 3v29.3c0 .1-.1.3-.3.3h-5.1c-.1 0-.3-.1-.3-.3V3c0-.1.1-.3.3-.3h5.1c.2.1.3.2.3.3zM148.7 10.3h-5.4c-.1 0-.2.1-.2.2l-5.5 14.8c-.1.2-.4.2-.5 0l-5.5-14.8c0-.1-.1-.2-.2-.2h-5.8c-.2 0-.3.2-.2.4l8.8 21.4-.3.7c0 .1-.1.2-.1.3l-.1.2c-.8 2-2 4-4.6 4-.9 0-2-.2-2.9-.5-.2-.1-.3.1-.3.2v4.6c0 .1.1.2.2.2 1.2.4 3.1.7 4.4.7 4.7 0 6.8-3.5 9.1-9l9.6-22.8c-.1-.3-.3-.4-.5-.4zM122.2 14.4c-.9-1.4-2-2.6-3.6-3.3-1.5-.8-3.2-1.2-5.1-1.2-1.8 0-3.5.4-4.9 1.1-1.5.7-2.6 1.7-3.5 3-.6.9-1.1 1.8-1.4 2.8-.1.2.1.3.3.3h5.2c.1 0 .2-.1.2-.1.3-.5.6-1 1-1.3.8-.6 1.8-.9 2.9-.9 1.3 0 2.4.4 3.2 1.3.7.8 1.1 1.8 1.2 3.1 0 .1-.1.3-.3.3H112c-3.1 0-5.4.7-6.9 2s-2.3 3-2.3 5.1c0 1.3.3 2.4 1 3.4.6 1 1.5 1.8 2.7 2.3 1.1.6 2.4.8 3.8.8 1.6 0 3.1-.3 4.5-1 1.1-.5 2-1.2 2.6-1.9.2-.2.5-.1.5.2v2.1c0 .1.1.3.3.3h5.2c.1 0 .3-.1.3-.3v-13c-.2-2-.6-3.7-1.5-5.1zm-4.4 8.7c0 1.1-.3 2.1-.9 2.9-.6.8-1.3 1.4-2.2 1.8-.9.4-1.8.6-2.8.6-1 0-1.9-.2-2.4-.7-.6-.5-.9-1.1-.9-1.9 0-.8.3-1.5.9-2 .6-.5 1.6-.8 2.9-.8h5.4v.1zM34.6 14.4c-.9-1.4-2-2.6-3.6-3.3-1.5-.8-3.2-1.2-5.1-1.2-1.8 0-3.5.4-4.9 1.1-1.5.7-2.6 1.7-3.5 3-.6.9-1.1 1.8-1.4 2.8-.1.1 0 .2.2.2h5.2c.1 0 .2-.1.2-.1.3-.5.6-1 1-1.3.8-.6 1.8-.9 2.9-.9 1.3 0 2.4.4 3.2 1.3.7.8 1.1 1.8 1.2 3.1 0 .1-.1.3-.3.3h-5.4c-3.1 0-5.4.7-6.9 2s-2.3 3-2.3 5.1c0 1.3.3 2.4 1 3.4.6 1 1.5 1.8 2.7 2.3 1.1.6 2.4.8 3.8.8 1.6 0 3.1-.3 4.5-1 1.1-.5 2-1.2 2.6-1.9.2-.2.5-.1.5.2v2.1c0 .1.1.3.3.3h5.2c.1 0 .3-.1.3-.3V19.5c-.2-2-.6-3.7-1.4-5.1zm-4.5 8.7c0 1.1-.3 2.1-.9 2.9-.6.8-1.3 1.4-2.2 1.8-.9.4-1.8.6-2.8.6-1 0-1.9-.2-2.4-.7-.6-.5-.9-1.1-.9-1.9 0-.8.3-1.5.9-2 .6-.5 1.6-.8 2.9-.8h5.4v.1z"/>
</svg>
