<svg aria-hidden="true" style="position: absolute; width: 0; height: 0; overflow: hidden;" version="1.1" xmlns="http://www.w3.org/2000/svg" xmlns:xlink="http://www.w3.org/1999/xlink">
    <defs>
        <symbol id="spinner" viewBox="0 0 32 32">
            <path fill="currentColor" d="M16 32c-4.274 0-8.292-1.664-11.314-4.686s-4.686-7.040-4.686-11.314c0-3.026 0.849-5.973 2.456-8.522 1.563-2.478 3.771-4.48 6.386-5.791l1.344 2.682c-2.126 1.065-3.922 2.693-5.192 4.708-1.305 2.069-1.994 4.462-1.994 6.922 0 7.168 5.832 13 13 13s13-5.832 13-13c0-2.459-0.69-4.853-1.994-6.922-1.271-2.015-3.066-3.643-5.192-4.708l1.344-2.682c2.615 1.31 4.824 3.313 6.386 5.791 1.607 2.549 2.456 5.495 2.456 8.522 0 4.274-1.664 8.292-4.686 11.314s-7.040 4.686-11.314 4.686z"></path>
        </symbol>

        <symbol id="account" viewBox="0 0 24 24">
            <path d="M12 19.219q1.594 0 3.352-0.938t2.648-2.297q-0.047-1.313-2.109-2.203t-3.891-0.891-3.891 0.867-2.109 2.227q0.891 1.359 2.648 2.297t3.352 0.938zM12 5.016q-1.219 0-2.109 0.891t-0.891 2.109 0.891 2.109 2.109 0.891 2.109-0.891 0.891-2.109-0.891-2.109-2.109-0.891zM12 2.016q4.125 0 7.055 2.93t2.93 7.055-2.93 7.055-7.055 2.93-7.055-2.93-2.93-7.055 2.93-7.055 7.055-2.93z"></path>
        </symbol>

        <symbol id="pin" viewBox="0 0 24 24">
            <path d="M12,11.4c0.8,0,1.5-0.3,2.1-0.9C14.7,9.9,15,9.2,15,8.4s-0.3-1.5-0.9-2.1c-0.6-0.6-1.3-0.9-2.1-0.9s-1.5,0.3-2.1,0.9
	C9.3,6.9,9,7.6,9,8.4c0,0.8,0.3,1.5,0.9,2.1C10.5,11.1,11.2,11.4,12,11.4z M12,0c2.3,0,4.3,0.8,5.9,2.5s2.5,3.6,2.5,5.9
	c0,1.2-0.3,2.5-0.9,4c-0.6,1.5-1.3,2.9-2.1,4.2c-0.8,1.3-1.6,2.5-2.5,3.7c-0.8,1.1-1.5,2.1-2.1,2.7L12,24c-0.2-0.3-0.5-0.6-0.9-1
	c-0.4-0.4-1.1-1.3-2-2.6s-1.8-2.6-2.6-3.8c-0.7-1.2-1.4-2.6-2-4.1S3.6,9.6,3.6,8.4c0-2.3,0.8-4.3,2.5-5.9S9.7,0,12,0L12,0z"/>
        </symbol>

        <symbol id="pin-off" viewBox="0 0 24 24">
            <path d="M11.719 11.484q5.109 5.063 8.297 8.25l-1.266 1.266-3.375-3.328q-0.75 1.125-1.594 2.203t-1.313 1.594l-0.469 0.516q-0.281-0.328-0.75-0.867t-1.688-2.156-2.133-3.141-1.664-3.445-0.75-3.375q0-0.516 0.188-1.547l-3.188-3.188 1.266-1.266 8.344 8.344zM12 6.516q-1.078 0-1.828 0.844l-3.234-3.188q0.844-0.891 2.344-1.523t2.719-0.633q2.906 0 4.945 2.039t2.039 4.945q0 2.25-1.688 5.484l-3.609-3.656q0.797-0.703 0.797-1.828 0-1.031-0.727-1.758t-1.758-0.727z"></path>
        </symbol>

        <symbol id="reward" viewBox="0 0 24 24">
            <path d="M8,10c0,0.6,0.3,1.2,1,1.5V10H8z M15,11.5c0.7-0.3,1-0.8,1-1.5h-1V11.5z"/>
            <path d="M19.1,4.9C17.1,3,14.8,2,12,2S6.9,3,4.9,4.9C3,6.9,2,9.3,2,12s1,5.1,2.9,7.1c2,2,4.3,2.9,7.1,2.9s5.1-1,7.1-2.9
                c2-2,2.9-4.3,2.9-7.1S21,6.9,19.1,4.9z M17,10.1c0,0.7-0.3,1.3-0.7,1.8c-0.4,0.4-0.9,0.7-1.5,0.8c-0.2,0.4-0.4,0.7-0.8,1
                c-0.3,0.2-0.6,0.4-0.9,0.5V16h2v1H9v-1h2v-1.9c-0.3-0.1-0.6-0.3-0.9-0.5c-0.4-0.3-0.7-0.7-0.8-1c-0.7-0.1-1.2-0.4-1.7-0.9
                C7.2,11.2,7,10.6,7,10c0-0.3,0.1-0.6,0.3-0.8C7.5,9,7.7,9,8,9h1V8h6v1h1c0.3,0,0.6,0,0.8,0.2S17,9.7,17,10.1z"/>
        </symbol>

        <symbol id="clock" viewBox="0 0 24 24">
            <path d="M16.219 16.219l0.797-1.313-4.5-2.719v-5.203h-1.5v6zM12 2.016q4.125 0 7.055 2.93t2.93 7.055-2.93 7.055-7.055 2.93-7.055-2.93-2.93-7.055 2.93-7.055 7.055-2.93z"></path>
        </symbol>

        <symbol id="clear" viewBox="0 0 24 24">
            <path d="M18.984 6.422l-5.578 5.578 5.578 5.578-1.406 1.406-5.578-5.578-5.578 5.578-1.406-1.406 5.578-5.578-5.578-5.578 1.406-1.406 5.578 5.578 5.578-5.578z"></path>
        </symbol>

        <symbol id="gps" viewBox="0 0 24 24">
            <path d="M12 18.984q2.906 0 4.945-2.039t2.039-4.945-2.039-4.945-4.945-2.039-4.945 2.039-2.039 4.945 2.039 4.945 4.945 2.039zM20.953 11.016h2.063v1.969h-2.063q-0.328 2.953-2.672 5.297t-5.297 2.672v2.063h-1.969v-2.063q-2.953-0.328-5.297-2.672t-2.672-5.297h-2.063v-1.969h2.063q0.328-2.953 2.672-5.297t5.297-2.672v-2.063h1.969v2.063q2.953 0.328 5.297 2.672t2.672 5.297zM12 8.016q1.641 0 2.813 1.172t1.172 2.813-1.172 2.813-2.813 1.172-2.813-1.172-1.172-2.813 1.172-2.813 2.813-1.172z"></path>
        </symbol>

        <symbol id="map" viewBox="0 0 24 24">
            <path d="M15 18.984v-11.859l-6-2.109v11.859zM20.484 3q0.516 0 0.516 0.516v15.094q0 0.375-0.375 0.469l-5.625 1.922-6-2.109-5.344 2.063-0.141 0.047q-0.516 0-0.516-0.516v-15.094q0-0.375 0.375-0.469l5.625-1.922 6 2.109 5.344-2.063z"></path>
        </symbol>

        <symbol id="arrow-left" viewBox="0 0 24 24">
            <path d="M11.672 3.891l-8.109 8.109 8.109 8.109-1.781 1.781-9.891-9.891 9.891-9.891z"></path>
        </symbol>

        <symbol id="calendar" viewBox="0 0 24 24">
            <path d="M18.984 20.016v-11.016h-13.969v11.016h13.969zM18.984 3.984q0.797 0 1.406 0.609t0.609 1.406v14.016q0 0.797-0.609 1.383t-1.406 0.586h-13.969q-0.844 0-1.43-0.563t-0.586-1.406v-14.016q0-0.797 0.586-1.406t1.43-0.609h0.984v-1.969h2.016v1.969h7.969v-1.969h2.016v1.969h0.984zM17.016 11.016v1.969h-2.016v-1.969h2.016zM12.984 11.016v1.969h-1.969v-1.969h1.969zM9 11.016v1.969h-2.016v-1.969h2.016z"></path>
        </symbol>

        <symbol id="timer" viewBox="0 0 24 24">
            <path d="M12 20.016q2.906 0 4.945-2.063t2.039-4.969-2.039-4.945-4.945-2.039-4.945 2.039-2.039 4.945 2.039 4.969 4.945 2.063zM19.031 7.406q0.797 1.031 1.383 2.648t0.586 2.93q0 3.703-2.625 6.352t-6.375 2.648-6.375-2.648-2.625-6.352 2.625-6.352 6.375-2.648q1.266 0 2.93 0.609t2.695 1.406l1.406-1.453q0.75 0.609 1.406 1.406zM11.016 14.016v-6h1.969v6h-1.969zM15 0.984v2.016h-6v-2.016h6z"></path>
        </symbol>

        <symbol id="group" viewBox="0 0 24 24">
            <path d="M15.984 12.984q1.313 0 2.859 0.375t2.859 1.219 1.313 1.922v2.484h-6v-2.484q0-2.063-1.969-3.469 0.328-0.047 0.938-0.047zM8.016 12.984q1.313 0 2.859 0.375t2.836 1.219 1.289 1.922v2.484h-14.016v-2.484q0-1.078 1.313-1.922t2.859-1.219 2.859-0.375zM8.016 11.016q-1.219 0-2.109-0.891t-0.891-2.109 0.891-2.109 2.109-0.891 2.086 0.891 0.867 2.109-0.867 2.109-2.086 0.891zM15.984 11.016q-1.219 0-2.109-0.891t-0.891-2.109 0.891-2.109 2.109-0.891 2.109 0.891 0.891 2.109-0.891 2.109-2.109 0.891z"></path>
        </symbol>

        <symbol id="flag" viewBox="0 0 24 24">
            <path d="M21 3.984h-14.016v-1.969h-1.969v19.969h1.969v-7.969h14.016l-2.016-5.016zM15 9q0 0.844-0.586 1.43t-1.43 0.586q-0.797 0-1.383-0.586t-0.586-1.43 0.586-1.43 1.383-0.586q0.844 0 1.43 0.586t0.586 1.43z"></path>
        </symbol>

        <symbol id="pin-check" viewBox="0 0 24 24">
            <path d="M10.453 14.016l6.563-6.609-1.406-1.406-5.156 5.203-2.063-2.109-1.406 1.406zM12 2.016q2.906 0 4.945 2.039t2.039 4.945q0 1.453-0.727 3.328t-1.758 3.516-2.039 3.070-1.711 2.273l-0.75 0.797q-0.281-0.328-0.75-0.867t-1.688-2.156-2.133-3.141-1.664-3.445-0.75-3.375q0-2.906 2.039-4.945t4.945-2.039z"></path>
        </symbol>

        <symbol id="explore" viewBox="0 0 24 24">
            <path d="M14.203 14.203l3.797-8.203-8.203 3.797-3.797 8.203zM12 2.016q4.125 0 7.055 2.93t2.93 7.055-2.93 7.055-7.055 2.93-7.055-2.93-2.93-7.055 2.93-7.055 7.055-2.93zM12 10.922q0.469 0 0.773 0.305t0.305 0.773-0.305 0.773-0.773 0.305-0.773-0.305-0.305-0.773 0.305-0.773 0.773-0.305z"></path>
        </symbol>

        <symbol id="check-circle" viewBox="0 0 24 24">
            <path d="M9.984 17.016l9-9-1.406-1.453-7.594 7.594-3.563-3.563-1.406 1.406zM12 2.016q4.125 0 7.055 2.93t2.93 7.055-2.93 7.055-7.055 2.93-7.055-2.93-2.93-7.055 2.93-7.055 7.055-2.93z"></path>
        </symbol>

        <symbol id="check" viewBox="0 0 24 24">
            <path d="M9 16.219l10.594-10.641 1.406 1.406-12 12-5.578-5.578 1.359-1.406z"></path>
        </symbol>

    </defs>
</svg>


