<svg aria-hidden="true" style="position: absolute; width: 0; height: 0; overflow: hidden;" version="1.1" xmlns="http://www.w3.org/2000/svg" xmlns:xlink="http://www.w3.org/1999/xlink">
    <defs>
        <symbol id="spinner" viewBox="0 0 32 32">
            <path fill="currentColor" d="M16 32c-4.274 0-8.292-1.664-11.314-4.686s-4.686-7.040-4.686-11.314c0-3.026 0.849-5.973 2.456-8.522 1.563-2.478 3.771-4.48 6.386-5.791l1.344 2.682c-2.126 1.065-3.922 2.693-5.192 4.708-1.305 2.069-1.994 4.462-1.994 6.922 0 7.168 5.832 13 13 13s13-5.832 13-13c0-2.459-0.69-4.853-1.994-6.922-1.271-2.015-3.066-3.643-5.192-4.708l1.344-2.682c2.615 1.31 4.824 3.313 6.386 5.791 1.607 2.549 2.456 5.495 2.456 8.522 0 4.274-1.664 8.292-4.686 11.314s-7.040 4.686-11.314 4.686z"></path>
        </symbol>

        <symbol id="account" viewBox="0 0 24 24">
            <path d="M12 19.219q1.594 0 3.352-0.938t2.648-2.297q-0.047-1.313-2.109-2.203t-3.891-0.891-3.891 0.867-2.109 2.227q0.891 1.359 2.648 2.297t3.352 0.938zM12 5.016q-1.219 0-2.109 0.891t-0.891 2.109 0.891 2.109 2.109 0.891 2.109-0.891 0.891-2.109-0.891-2.109-2.109-0.891zM12 2.016q4.125 0 7.055 2.93t2.93 7.055-2.93 7.055-7.055 2.93-7.055-2.93-2.93-7.055 2.93-7.055 7.055-2.93z"></path>
        </symbol>

        <symbol id="pin" viewBox="0 0 24 24">
            <path d="M12 11.484q1.031 0 1.758-0.727t0.727-1.758-0.727-1.758-1.758-0.727-1.758 0.727-0.727 1.758 0.727 1.758 1.758 0.727zM12 2.016q2.906 0 4.945 2.039t2.039 4.945q0 1.453-0.727 3.328t-1.758 3.516-2.039 3.070-1.711 2.273l-0.75 0.797q-0.281-0.328-0.75-0.867t-1.688-2.156-2.133-3.141-1.664-3.445-0.75-3.375q0-2.906 2.039-4.945t4.945-2.039z"></path>
        </symbol>

        <symbol id="reward" viewBox="0 0 24 24">
            <path d="M8,10c0,0.6,0.3,1.2,1,1.5V10H8z M15,11.5c0.7-0.3,1-0.8,1-1.5h-1V11.5z"/>
            <path d="M19.1,4.9C17.1,3,14.8,2,12,2S6.9,3,4.9,4.9C3,6.9,2,9.3,2,12s1,5.1,2.9,7.1c2,2,4.3,2.9,7.1,2.9s5.1-1,7.1-2.9
                c2-2,2.9-4.3,2.9-7.1S21,6.9,19.1,4.9z M17,10.1c0,0.7-0.3,1.3-0.7,1.8c-0.4,0.4-0.9,0.7-1.5,0.8c-0.2,0.4-0.4,0.7-0.8,1
                c-0.3,0.2-0.6,0.4-0.9,0.5V16h2v1H9v-1h2v-1.9c-0.3-0.1-0.6-0.3-0.9-0.5c-0.4-0.3-0.7-0.7-0.8-1c-0.7-0.1-1.2-0.4-1.7-0.9
                C7.2,11.2,7,10.6,7,10c0-0.3,0.1-0.6,0.3-0.8C7.5,9,7.7,9,8,9h1V8h6v1h1c0.3,0,0.6,0,0.8,0.2S17,9.7,17,10.1z"/>
        </symbol>

        <symbol id="clock" viewBox="0 0 24 24">
            <path d="M16.219 16.219l0.797-1.313-4.5-2.719v-5.203h-1.5v6zM12 2.016q4.125 0 7.055 2.93t2.93 7.055-2.93 7.055-7.055 2.93-7.055-2.93-2.93-7.055 2.93-7.055 7.055-2.93z"></path>
        </symbol>


        <!-- <symbol id="account" viewBox="0 0 20 20">
            <path fill="" d="M12,19.219a7.135,7.135,0,0,0,3.352-.938A7.02,7.02,0,0,0,18,15.984q-.047-1.313-2.109-2.2A9.855,9.855,0,0,0,12,12.89a10.036,10.036,0,0,0-3.891.867Q6.047,14.625,6,15.984a7.03,7.03,0,0,0,2.648,2.3A7.131,7.131,0,0,0,12,19.219Zm0-14.2a2.881,2.881,0,0,0-2.109.891,2.942,2.942,0,0,0,0,4.218,2.942,2.942,0,0,0,4.218,0,2.942,2.942,0,0,0,0-4.218A2.881,2.881,0,0,0,12,5.016Zm0-3a9.617,9.617,0,0,1,7.055,2.93A9.617,9.617,0,0,1,21.985,12a9.617,9.617,0,0,1-2.93,7.055A9.617,9.617,0,0,1,12,21.986a9.617,9.617,0,0,1-7.055-2.93A9.617,9.617,0,0,1,2.015,12a9.617,9.617,0,0,1,2.93-7.055A9.617,9.617,0,0,1,12,2.016Z" transform="translate(-2.015 -2.016)"/>
        </symbol>

        <symbol id="checkmark" viewBox="0 0 32 32">
            <path fill="" d="M27 4l-15 15-7-7-5 5 12 12 20-20z"></path>
        </symbol>

        <symbol id="clock" viewBox="0 0 256 256">
            <path fill="none" d="M0,0H256V256H0Z"/>
            <path fill="" d="M128,24A104,104,0,1,0,232,128,104,104,0,0,0,128,24Zm56,112H128a8,8,0,0,1-8-8V72a8,8,0,0,1,16,0v48h48a8,8,0,0,1,0,16Z"/>
        </symbol>

        <symbol id="cross" viewBox="0 0 32 32">
            <path fill="" d="M31.708 25.708c-0-0-0-0-0-0l-9.708-9.708 9.708-9.708c0-0 0-0 0-0 0.105-0.105 0.18-0.227 0.229-0.357 0.133-0.356 0.057-0.771-0.229-1.057l-4.586-4.586c-0.286-0.286-0.702-0.361-1.057-0.229-0.13 0.048-0.252 0.124-0.357 0.228 0 0-0 0-0 0l-9.708 9.708-9.708-9.708c-0-0-0-0-0-0-0.105-0.104-0.227-0.18-0.357-0.228-0.356-0.133-0.771-0.057-1.057 0.229l-4.586 4.586c-0.286 0.286-0.361 0.702-0.229 1.057 0.049 0.13 0.124 0.252 0.229 0.357 0 0 0 0 0 0l9.708 9.708-9.708 9.708c-0 0-0 0-0 0-0.104 0.105-0.18 0.227-0.229 0.357-0.133 0.355-0.057 0.771 0.229 1.057l4.586 4.586c0.286 0.286 0.702 0.361 1.057 0.229 0.13-0.049 0.252-0.124 0.357-0.229 0-0 0-0 0-0l9.708-9.708 9.708 9.708c0 0 0 0 0 0 0.105 0.105 0.227 0.18 0.357 0.229 0.356 0.133 0.771 0.057 1.057-0.229l4.586-4.586c0.286-0.286 0.362-0.702 0.229-1.057-0.049-0.13-0.124-0.252-0.229-0.357z"></path>
        </symbol>

        <symbol id="grade" viewBox="0 0 40 40">
            <g data-name="Group 21" transform="translate(-1169 -33)">
                <circle fill="" cx="20" cy="20" r="20" transform="translate(1169 33)" />
                <path d="M15.03,4.312V2H3.468V4.312H0V6.625A3.471,3.471,0,0,0,4.509,9.934,5.784,5.784,0,0,0,8.093,12.29v3.584H6.937a2.312,2.312,0,0,0-2.312,2.312h9.249a2.312,2.312,0,0,0-2.312-2.312H10.405V12.29a5.784,5.784,0,0,0,3.583-2.356A3.471,3.471,0,0,0,18.5,6.625V4.312H15.03ZM3.468,8.72a2.1,2.1,0,0,1-2.1-2.1V5.468h2.1V6.625a5.764,5.764,0,0,0,.379,2.061,2.1,2.1,0,0,1-.379.035Zm13.657-2.1a2.095,2.095,0,0,1-2.474,2.061,5.762,5.762,0,0,0,.379-2.061V5.468h2.1Z" transform="translate(1180 43)" fill="#fff"/>
            </g>
        </symbol>

        <symbol id="pencil" viewBox="0 0 32 32">
            <path fill="" d="M27 0c2.761 0 5 2.239 5 5 0 1.126-0.372 2.164-1 3l-2 2-7-7 2-2c0.836-0.628 1.874-1 3-1zM2 23l-2 9 9-2 18.5-18.5-7-7-18.5 18.5zM22.362 11.362l-14 14-1.724-1.724 14-14 1.724 1.724z"></path>
        </symbol>

        <symbol id="pin" viewBox="0 0 256 256">
            <path fill="none" d="M0,0H256V256H0Z" />
            <path fill="" d="M127.994,16a88.1,88.1,0,0,0-88,88c0,75.3,80,132.172,83.406,134.555a8.023,8.023,0,0,0,9.187,0c3.406-2.383,83.406-59.258,83.406-134.555a88.1,88.1,0,0,0-88-88ZM128,72a32,32,0,1,1-32,32,32,32,0,0,1,32-32Z" />
        </symbol> -->

    </defs>
</svg>


