
<!-- <svg xmlns="http://www.w3.org/2000/svg" width="1440" height="1100" viewBox="0 0 1440 1100"> -->

<svg aria-hidden="true" style="position: absolute; width: 0; height: 0; overflow: hidden;" version="1.1" xmlns="http://www.w3.org/2000/svg" xmlns:xlink="http://www.w3.org/1999/xlink">
    
    <defs>
    
        <symbol id="background" viewBox="0 0 1440 1100">
            <!-- <linearGradient id="Path-15_1_" gradientUnits="userSpaceOnUse" x1="794.996" y1="798" x2="794.996" y2="1097.0417">
                <stop  offset="0" style="stop-color:#FFC88D"/>
                <stop  offset="1" style="stop-color:#FFC88D;stop-opacity:0"/>
            </linearGradient>
            <path id="Path-15" fill="url(#Path-15_1_)" d="M1446,813.2c0,0.2-0.2,289.8-0.4,289.8H141c-0.2,0,68.6-106.4,80.7-125.4
                c1.4-2.2,2.8-4.3,4.3-6.5c78.2-114.3,229.9-263.5,229.9-263.5c9.6-11.5,23.8-18.2,38.8-18.2H545c11,0,21.6-3.6,30.4-10.1l85.5-64.2
                c8.2-6.2,18.4-8.8,28.6-7.5l65.1,8.9c17.3,2.3,34.6-4.4,45.7-17.8l33.6-40.4l42-50.6c7.5-9,17.9-15.2,29.5-17.4
                c2.6-0.5,5.1-0.8,7.7-0.9l77.9-2.6l12.2-0.4c5.1-0.2,10.1-1.1,15-2.8l43.3-15.1l103.3-36.1l282.8-93.8l1.6-0.5L1446,813.2z"/> -->



            <!-- <linearGradient id="SVGID_1_" gradientUnits="userSpaceOnUse" x1="361.4576" y1="764.5725" x2="361.4576" y2="1088.4487">
                <stop  offset="0" style="stop-color:#EEAC75"/>
                <stop  offset="1" style="stop-color:#EEAC75;stop-opacity:0"/>
            </linearGradient>
            <path fill="url(#SVGID_1_)" d="M500.1,1003.3c-23.4-28.6-36.3-64.5-35.5-101.4c0.3-14.9,2.8-28.2,8.7-36.1
                c3.6-4.9,6.5-10.8,7.7-19.8l9.1-56.2c0.8-2,1.4-4,1.7-6.1c1.6-12.5-7.2-24-19.7-25.6l-0.9-0.1c-1.3-0.2-2.7-0.5-3.9-1
                c-8.4-3.5-11.7-13.5-7.3-21.1l13.2-23.1l-3.2-0.9c-1.9-0.6-3.5-1.8-4.6-3.4c-2.4-3.8-1.3-8.7,2.5-11.1c-0.1,0.1-0.3,0.2-0.4,0.2
                c-0.8,0.5-1.6,1-2.3,1.6c-0.2,0.2-0.5,0.4-0.7,0.5c-0.4,0.3-0.7,0.6-1.1,0.8c-0.3,0.2-0.6,0.4-0.8,0.7c-0.3,0.3-0.7,0.5-1,0.8
                c-0.5,0.5-1.1,0.9-1.6,1.4c-0.3,0.3-0.5,0.5-0.8,0.8c-0.3,0.3-0.7,0.7-1,1c-0.2,0.3-0.5,0.5-0.7,0.8c-0.5,0.5-0.9,1-1.3,1.5
                c-0.1,0.1-0.2,0.2-0.2,0.3l0,0C455,708.6,304,857.2,226,971.2c-1.5,2.1-2.9,4.3-4.3,6.5C209.6,996.6,140.8,1103,141,1103h440.9
                L500.1,1003.3z"/>
            <linearGradient id="Path-19_1_" gradientUnits="userSpaceOnUse" x1="970.2766" y1="442.507" x2="1512.2765" y2="815.507">
                <stop  offset="0" style="stop-color:#EEAC75"/>
                <stop  offset="1" style="stop-color:#EEAC75;stop-opacity:0"/>
            </linearGradient>
            <path id="Path-19" fill="url(#Path-19_1_)" d="M1446.1,941.6c0,0-454.5-22.5-631.1-174.2c-0.1-0.3-5.9-17-5.9-17l-2.2-6.3
                c-4.7-13.5,0.5-28.5,12.6-36.1l73.5-46.3c14.3-9,18.7-27.9,9.7-42.3c-1.9-3-4.3-5.7-7.1-7.9l-11.8-9.2
                c-9.2-7.2-13.5-18.9-11.2-30.3l15.3-74.8c5.4-3.4,11.3-5.8,17.6-7c2.6-0.5,5.1-0.8,7.7-0.9l77.9-2.6l12.2-0.4
                c5.1-0.2,10.1-1.1,15-2.8l43.3-15.1l103.3-36.1L1449,338L1446.1,941.6z"/> -->

                
        </symbol>


<symbol id="prov" viewBox="0 0 1440 1100">


        <g id="foreground">
            <linearGradient id="Path-23_1_" gradientUnits="userSpaceOnUse" x1="895.99" y1="642" x2="895.99" y2="1090.0903">
                <stop  offset="0" style="stop-color:#D27F4F"/>
                <stop  offset="1" style="stop-color:#D27F4F;stop-opacity:0"/>
            </linearGradient>
            <path id="Path-23" className="st3" d="M1452,517.5V1104H340c0,0,195.2-17.2,341.1-89.9s128.5-113.7,168.6-177
                c25.8-40.7,77.4-52.9,100-56.3c5.1-0.8,15.2-2.1,20.4-2.4c27.3-1.7,37.4-12.6,43.3-33.8l21.8-77.9c6.1-21.7,26.3-36.7,49.4-36.7
                h47.2c11,0,21.5-4.9,28.2-13.4l60.5-76.1c34.3-40.1,79.6-54.1,130.9-52.7C1406.7,489.1,1452,517.5,1452,517.5z"/>
        </g>

        <g id="shadow-woman">
            <path id="Path-16" className="st4" d="M554.7,704.9l-20.3,10.1c-12.5,6.3-27,7.6-40.5,3.7l-20.8-6l-3.1-0.9c-4.3-1.2-6.7-5.7-5.5-10
                c0.6-1.9,1.8-3.5,3.4-4.6l0.1-0.1c0.1-0.1,0.2-0.2,0.4-0.2c0.3-0.2,0.5-0.3,0.8-0.5l0.6-0.3l1.5-0.8l1.2-0.6l0.1-0.1
                c6.9-3.4,14.4-5.1,22.1-5.1h45.4c3.2,0,6.4,0.8,9.2,2.3l5.6,3c2.8,1.5,3.9,4.9,2.4,7.7C556.7,703.6,555.8,704.4,554.7,704.9
                L554.7,704.9z"/>
            <path id="Path-20" className="st4" d="M704.6,672.4l81.3,17.5c16.3,3.5,33.3-1.5,45.2-13.2l12.9-12.8c14.8-14.7,2.2-39.7-18.5-36.5
                l-36.7,5.8c-2.5,0.4-5,0.3-7.5-0.2l-63.8-12.6c-9.9-2-19.8,3.2-23.8,12.5l-4.3,9.9c-4.7,10.9,0.2,23.5,11.1,28.3
                C701.8,671.6,703.2,672.1,704.6,672.4z"/>
            <path id="Path-21" className="st4" d="M638.6,751.4c9.7-8.2,14.7-20.7,13.2-33.3l-1.8-13.7c-1.9-15.8-22.9-19.8-30.5-6l-8.1,14.6
                c-4.6,8.4-10.7,15.8-17.9,22.1L564.9,760c-5.8,5-7.3,13.4-3.6,20.1l3.9,7.3c4.3,7.9,14.2,10.9,22.2,6.6
                C588.3,793.5,638.6,751.4,638.6,751.4z"/>
            <path id="Path-24" className="st4" d="M833.9,568.7v25.4c0,8.6-5.5,16.4-13.6,19.2l-17.9,6.3c-3.7,1.3-7.8,0.5-10.7-2.2l-2.5-2.3
                c-1.8-1.7-1.9-4.4-0.2-6.2c0.2-0.2,0.4-0.4,0.7-0.6c4-2.7,7.6-6,10.7-9.7l26.9-32.4c1.3-1.6,3.7-1.8,5.3-0.5
                C833.4,566.6,833.9,567.6,833.9,568.7z"/>
        </g>

        <g id="shadow-man">
            <path id="Path-25" className="st5" d="M995.2,517.3l-46.6,10.9c-5.1,1.2-10.5,0.4-15-2.2l-25-14.3c-6.6-3.8-8.9-12.2-5.1-18.8
                c0.5-0.9,1.1-1.8,1.9-2.5c2.6-0.5,5.1-0.8,7.7-0.9l77.7-2.6c0.1,0,0.2,0,0.3,0.1l10,10.2c4.7,4.7,4.6,12.4-0.1,17
                C999.3,515.7,997.3,516.8,995.2,517.3L995.2,517.3z"/>
            <path id="Path-26" className="st5" d="M1168.5,449.8l-41.2,30.7c-4.9,3.7-10.9,5.7-17.1,5.7h-50.5c-2.6,0-4.7-2.1-4.7-4.7
                c0-0.8,0.2-1.5,0.6-2.2l4.8-8.9c0.7-1.2,1.8-2.2,3.1-2.6l96.5-33.7c3-1,6.3-0.5,8.8,1.4c3.9,3,4.6,8.7,1.6,12.6
                C1169.7,448.8,1169.2,449.3,1168.5,449.8L1168.5,449.8z"/>
        </g>
                    
        <g id="man">
            <path id="Path" className="st6" d="M1064.9,112.8l-73.1-19l-51.9-18.9l-23.6-2.4l11.7-11h25.7l85.3,10.5l24,18.5L1064.9,112.8z"/>
            <path id="Path-2" className="st7" d="M1112.8,174l-10.3,18.1l-60.6,8l-25.6,18.2l-3.5-5.5l2.5-32.9l35.5-45.2l44,19.4L1112.8,174z"/>
            <path id="Path-3" className="st8" d="M1027.1,307.5c-10.5,7.5-21.3,14.5-32.6,20.8l-27.8,89.5l-18,58h-10.1c0,0-3.5-145.1,1.1-169.2
                c1.5-7.8,5.5-18.5,10.5-30.1c0.5-0.1,24.3-21.6,45.2-18.8c10.6,1.4,34,13.6,45.1,18.8C1042.1,284.2,1032.6,299.9,1027.1,307.5
                L1027.1,307.5z"/>
            <path id="Path-4" className="st9" d="M1021.9,286.2c-10.6-4.8-21.9-8-33.4-9.4c-12.7-1.7-25.5-1.8-38.2-0.2c13.3-30.7,33.9-67,33.9-67
                c9.1,2,49.5-18.3,59.6-18.3C1043.7,191.2,1041.4,246.8,1021.9,286.2z"/>
            <path id="Path-5" className="st8" d="M876.3,133.4l-1.6-9.1l-7.6,1.6l-14.4-5.2l-7.9-16.5l-27.7-10l3.3-14.5l21.4-12.9l25.3,9l8.6,14.2
                l6.5,11.8l3.4-9l5.8-0.3v17.8l-8.7,24.5L876.3,133.4z"/>
            <path id="Path-6" className="st10" d="M887.8,186.1c-19.4-35.2-11.5-52.7-11.5-52.7s12.5-3.1,20.3,5.7c-0.2,2.9,5.1,17.6,4.9,20.4
                C901.1,170.4,897.4,178.8,887.8,186.1L887.8,186.1z"/>
            <path id="Path-7" className="st10" d="M950.4,197.4l13.5-36.1L974,84.6L935.9,72l-22.8,4.4l-19.2,24.4l-10.3,38.9v36l4.2,10.3
                L950.4,197.4z"/>
            <path id="Path-8" className="st11" d="M950.4,197.4c-0.5,18.7-3,42.6-11.6,53.5c-14.6,18.7-105.1,41.4-106.6,41.8c-1.5,0.4,0,0,0.1,0
                c2.8-13.8,52.8-65.6,67.3-82c4.9-5.5,27.3-30.8,45.4-30.8C948.3,181.8,952,189.2,950.4,197.4L950.4,197.4z"/>
            <path id="Path-9" className="st8" d="M832.3,292.7l4.1-8.2l-9.3,1.3l-3.6,7.6L832.3,292.7z"/>
            <path id="Path-27" className="st10" d="M1112.8,174c-1.1-0.3-2.2-0.6-3.3-0.9c-0.3-0.1-0.6-0.2-0.9-0.2c-0.6-0.2-1.3-0.3-1.9-0.4
                c-2.2-0.5-4.5-0.8-6.7-1.1c-0.4-0.1-0.8-0.1-1.2-0.1l-1.2-0.1l-2-0.2h-0.2c-0.5,0-0.9-0.1-1.4-0.1c-0.9-0.1-1.8-0.1-2.6-0.1
                c-0.9,0-1.8,0-2.6,0h-1.2c-11.9,0.5-23.5,4.1-33.5,10.7c-2.7,1.7-5.2,3.7-7.7,5.7l-1,0.9c-0.9,0.8-1.7,1.5-2.5,2.4
                c-0.6,0.6-1.1,1.1-1.8,1.7c-0.4,0.4-0.9,0.8-1.3,1.2c-0.6,0.6-1.3,1.1-1.9,1.7c-0.4,0.4-0.9,0.8-1.3,1.2c-4.6,4-9.4,7.6-14.5,11
                l-1,0.7h-0.1l-0.9,0.6l-0.1,0.1l-1.4,0.9c-3.5,2.3-5.8,3.5-5.8,3.5c-9.7,0-19.3-1.1-28.8-3.2c-11.7-2.7-23-6.7-33.7-12.1
                c-3.4-1.7-6.7-3.5-9.9-5.3c-6.7-3.9-13.2-8.3-19.4-13c-4.4-3.4-8.6-6.8-12.4-10.2c-5.5-4.9-10.4-9.7-14.6-14.2
                c-2.1-2.2-4.1-4.4-5.8-6.4c-4.2-4.8-8.2-9.8-11.9-15c20.2-24.4,9.7-40.1,9.3-40.6c7.4-10,18-16.6,30.7-20.3
                c21.4-6.3,48.6-4.3,76.1,3.8c14.3,4.3,28.2,9.9,41.4,16.9c10.9,5.7,21.3,12.3,31.1,19.7c13.6,10.3,25.5,22.1,34.6,34.8
                C1105.3,155.7,1109.8,164.6,1112.8,174z"/>
            <path id="Path-42" className="st8" d="M876.3,90.4l-0.8,4.7l-4.6,26.9c0,0-1.5,1.8-3.7,3.9c-3.6,3.7-9.1,8.7-12.7,9.4
                c-5.7,1.1-10-5.7-13.5-7.8c-0.1-0.1-0.3-0.2-0.4-0.2c-2.1-0.8-5.8,0.3-7.4-1.4c-0.4-0.5-0.7-1.1-0.7-1.7c-1-7.3-4.2-10.4-11.1-16.8
                c-3.8-3.5-4.3-8.9-4-13.2c6-4.9,13.8-13.8,21.3-12.2c5,1.1,8.3,5.2,10.5,9.3c0.2,0.3,0.3,0.7,0.5,1c0.2,0.4,0.3,0.7,0.5,1.1
                c0.2,0.4,0.4,0.9,0.5,1.2l0.4,0.9c0.1,0.2,0.1,0.3,0.2,0.5c0.1,0.3,0.2,0.6,0.3,0.9c0.4,1,1.5,1.6,2.5,1.3c0.3-0.1,0.5-0.2,0.7-0.5
                l0.7-0.6c1-0.9,1-2.5,0-3.4c-0.1-0.1-0.1-0.1-0.2-0.2c-1.6-1.3-3.4-3.4-2.7-5.7c0-0.1,0.1-0.3,0.1-0.4c0.1-0.2,0.2-0.3,0.2-0.5
                c2.5-4.4,7.2,0.7,7.2,0.7l7.8,5.6c1.6,1.2,3.8,1,5.3-0.4c1-0.9,1.9-1.8,2.7-2.7L876.3,90.4z"/>
            <path id="Path-43" className="st12" d="M876.6,89.1l-0.9,0.9c-0.8,0.9-1.8,1.8-2.7,2.7c-0.8,0.8-1.9,1.2-3,1.1c-0.8,0-1.6-0.3-2.2-0.8
                l-7.8-5.6c0,0-4.8-5.1-7.2-0.7c-1.5,2.7,0.5,5.1,2.3,6.7c1,0.8,1.2,2.4,0.3,3.4c-0.1,0.1-0.1,0.1-0.2,0.2l-0.7,0.6
                c-0.8,0.8-2.1,0.7-2.8-0.1c-0.2-0.2-0.4-0.5-0.5-0.7c-0.6-2-1.4-3.9-2.4-5.7l-0.2-0.3l-0.1-0.2c-0.1-0.2-0.3-0.5-0.4-0.7
                c-2.1-3.7-5.3-7.1-9.8-8.1c-4.1-0.9-8.2,1.4-12.2,4.5c-3.2,2.5-6.3,5.5-9.1,7.8c-2.5,2-4.6,3.3-6.4,3c-6-1-6.3-7.7-1.4-11.6
                c0.9-0.8,1.8-1.7,2.6-2.6c6.4-7.2,18.8-24.1,30.6-26.4c13-2.5,19.8,3.5,25.9,15c2.2,4.3,4.8,8.3,7.9,12l0.3,0.3
                C878.1,85.3,878,87.6,876.6,89.1z"/>
            <g id="Group-3" transform="translate(430.978 90.352)">
                <path id="Path-44" className="st8" d="M445.3,43l-9.1-7.5c2.2-2.2,3.7-3.9,3.7-3.9l4.6-26.9l0.8-4.7l9.3,2.4
                    C455,2.9,465.5,18.6,445.3,43z"/>
                <path id="Path-45" className="st8" d="M498.7,62.4l-1.4-0.2c-5.9-0.8-11.8-1-17.7-0.6c-5.6,0.4-11.1,1.3-16.5,2.8
                    c-2.1,0.6-4.3,1.3-6.3,2.1c-0.4,11-0.3,21.3,0.1,29.3c0.4,9.8,1,16.1,1,16.1l-61.7,83.5l5.1,7c0.4-0.3,7.3-4.7,17.1-11.1
                    c5.7-3.8,12.4-8.2,19.4-12.9c20.4-13.9,43.1-30.2,50.7-38.8c3.9-4.4,9.8-14.5,16.2-27.4c1.6-3.3,3.3-6.7,4.9-10.4
                    c2.5-5.4,5-11.2,7.4-17.1c2-4.9,3.9-9.9,5.8-15C515.1,66.2,507,63.7,498.7,62.4z"/>
                <path id="Path-46" className="st8" d="M387.6,197.5c-3.8,0.9-7.5,2.6-10.7,4.9l-8.3,5.9c-0.6,0.4-0.8,1.3-0.3,2
                    c0.2,0.4,0.6,0.6,1.1,0.6l8.4,0.7c1.2,0.1,2.2,1.2,2.1,2.4c0,0.5-0.2,0.9-0.5,1.3l-6.2,7.4c-0.2,0.3-0.2,0.7,0.1,0.9
                    c0.1,0.1,0.3,0.2,0.5,0.1l2.8-0.5c2.2-0.4,4.2-1.6,5.6-3.4c1.2-1.5,2.9-2.6,4.9-2.8l3.1-0.4c3.4-0.4,6.3-2.6,7.6-5.7l3.7-8.5
                    l-5.1-7L387.6,197.5z"/>
                <path id="Path-47" className="st8" d="M695.1,350.3l-9.9,2.1c0,0-71.1-92-85.4-125c-1.4-3.3-2.7-6.8-3.7-10.2
                    c-2-6.4-3.7-13.7-5.2-21.4c-6.6-33.4-9-73.4-9-73.4c8.4-4.8,16.3-10.3,23.6-16.6c2.2-1.8,4.3-3.8,6.5-5.9
                    c13.9-13.7,33-21.1,52.4-19.4c5.9,0.5,11.7,1.5,17.4,3.1c13.6,41.8-2.8,86.2-15,110.9c-2.1,4.2-4.1,7.8-5.7,10.8
                    c-3.1,5.4-5.1,8.4-5.1,8.4l3.4,11.7L695.1,350.3z"/>
            </g>
            <path id="Path-48" className="st13" d="M962,133.4c-2.2,8.6-5.1,17.6-8.4,26.6c-7.6-3.5-15.7-5.9-23.9-7.2l-1.4-0.2
                c-5.9-0.8-11.8-1-17.7-0.6c-5.6,0.4-11.1,1.3-16.5,2.8c-2.1,0.6-4.3,1.3-6.3,2.1c0.1-2.8,0.3-5.6,0.5-8.5c0.3-4,0.6-8,1.1-12
                c2.6-22.6,8.8-44.5,22-53.7c2.9-2,6.1-3.7,9.5-4.8c3.8-1.3,7.8-1.8,11.8-1.5C953.7,78.3,969.5,104.4,962,133.4z"/>
            <path id="Path-49" className="st14" d="M1116.2,442.8l-16,15.6c-1.9,1.9-2,4.9-0.1,6.8c1.2,1.3,3.1,1.8,4.8,1.3l23.5-6.5
                c3.8-1,6.1-5,5-8.8c-0.2-0.9-0.6-1.7-1.2-2.4l-6-8.1L1116.2,442.8z"/>
            <path id="Path-50" className="st14" d="M938.7,475.8l-19,11.9c-2.3,1.4-2.9,4.4-1.5,6.7c0.9,1.5,2.6,2.4,4.4,2.3l24.3-1.5
                c4-0.2,7-3.7,6.7-7.6c-0.1-0.9-0.3-1.7-0.6-2.5l-4.2-9.1L938.7,475.8z"/>
            <path id="Path-51" className="st15" d="M838.4,119.9c-1.7,0.7-3.4,1.4-5.2,1.9h-0.1c-0.9,0.3-1.9,0.2-2.7-0.3c-2.2-1.4-4.2-2.9-6.2-4.7
                c-1.3-1.1-1.6-3.1-0.6-4.5c1.7-2.3,3.7-4.4,6-6.3l0.3-0.3c1.3-1.1,3.3-1.1,4.5,0.1l0.2,0.2c0.4,0.4,0.9,0.9,1.2,1.4
                c2,2.5,3.5,5.4,4.4,8.4C840.8,117.5,840,119.2,838.4,119.9L838.4,119.9z"/>
            <path id="Path-52" className="st16" d="M852.7,86.7c-0.1,0.1-1.6,1.9-3.8,4.4c-3.8,4.4-9.5,11.3-13,16.3c-0.4-0.5-0.8-0.9-1.2-1.4
                l-0.2-0.2c-1.2-1.2-3.2-1.3-4.5-0.2c0.3-0.3,3.2-3.2,7.5-7l0,0c3-2.7,6.8-5.8,10.7-8.8c0.4-0.3,0.7-0.6,1.1-0.8
                C850.5,88.3,851.6,87.5,852.7,86.7z"/>
            <path id="Path-53" className="st17" d="M1084.6,63.7c-1.6,12.3-6.3,33.4-19.7,49c-44.6-33.8-107.4-52.5-148.6-40.4
                c-0.4-1.9-0.5-3.8-0.5-5.7c0-3.6,0.6-7.2,1.9-10.6c0.2-0.5,0.4-1,0.6-1.6c2.5-6.8,6-15.7,9.8-23.8l0.7-1.5c0.2-0.4,0.4-0.9,0.6-1.3
                c2.1-4.3,5.1-8.1,8.8-11.2c4.9-4,10.1-7.6,15.6-10.7c5.9-3.3,13-4,19.4-1.9c4.4,1.4,10.1,3.3,16.8,5.7c2.7,0.9,5.6,2,8.6,3.1
                c20.8,7.6,47.9,18.7,72.5,32.3c2.1,1.1,4.1,2.3,6.2,3.5C1082.4,51.8,1085.4,57.7,1084.6,63.7L1084.6,63.7z"/>
            <path id="Path-54" className="st9" d="M1064.9,112.8L1064.9,112.8c-44.6-33.9-107.4-52.5-148.6-40.3c-0.4-1.9-0.5-3.8-0.5-5.7v-1.2
                c0-0.4,0-0.7,0.1-1.1v-0.2c0-0.2,0-0.5,0.1-0.7c0-0.2,0.1-0.5,0.1-0.7v-0.3c0-0.3,0.1-0.7,0.2-1c0-0.1,0-0.2,0.1-0.3
                c0.1-0.3,0.1-0.6,0.2-0.9s0.2-0.7,0.2-1c0.1-0.3,0.1-0.5,0.2-0.8l0.1-0.2c0.1-0.3,0.2-0.7,0.3-1s0.2-0.8,0.4-1.1
                c0.1-0.4,0.4-1,0.6-1.6c7-3.7,22.1-10.4,35.4-9.1C973.4,47.4,1003.7,56.1,1064.9,112.8z"/>
            <path id="Path-55" className="st18" d="M932.5,40.9c-0.1,1-0.9,1.9-1.9,2.3c-5.6,1.9-10.1,6.1-12.5,11.4c0,0-4.2,4.9-6.9-0.6l-0.1-0.3
                c-2.5-5.6-2.9-8.7,5.1-14.4c0.6-0.4,1.2-0.9,1.9-1.3c3.6-2.4,7.3-4.5,11.2-6.2c1.2-0.5,2.6,0.1,3.1,1.3c0.1,0.3,0.2,0.6,0.2,0.9
                C932.8,36.2,932.7,38.6,932.5,40.9z"/>
            <path id="Path-56" className="st9" d="M1056.1,49.3c0,5.7-0.7,11.3-2.2,16.8c-0.5,1.9-2.4,3-4.3,2.5c-0.1,0-0.2-0.1-0.3-0.1l-22-8.4
                c-1.5-0.6-2.4-2.2-2.2-3.8c0.4-2.5,0.7-4.9,1-7c0,0,0-0.1,0-0.1c0.4-3.5,0.6-6.6,0.8-9c0.1-1.9,1.8-3.4,3.8-3.2
                c0.3,0,0.7,0.1,1,0.2l22.2,8.8C1055.2,46.5,1056.1,47.8,1056.1,49.3L1056.1,49.3z"/>
            <path id="Path-57" className="st6" d="M1064.8,112.7c-0.5-0.4-1-0.8-1.5-1.2l-1.6-1.2l-1.8-1.3l-1.7-1.2c-0.6-0.4-1.2-0.9-1.8-1.3
                c-1-0.7-2.1-1.4-3.2-2.1c-1.8-1.2-3.7-2.4-5.6-3.5c-1.2-0.7-2.4-1.5-3.6-2.2c-9.8-5.8-20.1-10.9-30.7-15.2c-1-0.4-2.1-0.9-3.1-1.2
                c-7.2-2.8-14.5-5.3-22-7.3l-1.3-0.4c-3.6-1-7.3-1.8-10.9-2.6l-1.5-0.3c-6.3-1.3-12.7-2.1-19.2-2.6c-1.2-0.1-2.3-0.2-3.5-0.2
                c-12.9-0.7-25,0.4-35.6,3.5c-0.4-1.9-0.5-3.8-0.5-5.7v-1.2c4.5-3.6,13.7-8.9,28.5-8.9C973.1,56.5,1023.4,79,1064.8,112.7
                L1064.8,112.7z"/>
            <path id="Path-58" className="st18" d="M1022.6,3.1v5c-2.1-0.1-4.3-0.2-6.4-0.1c-5.6,0.2-13.5,1.3-17.7,5.1c-3-1.1-5.9-2.1-8.6-3.1
                c2.5-2.3,8.9-6.7,22.4-7.2C1015.7,2.6,1019.2,2.7,1022.6,3.1z"/>
            <path id="Path-59" className="st19" d="M1025.5,3.3l-0.2,1l-0.9,5.3c-0.2,1.2-1.3,2-2.5,1.8c0,0,0,0,0,0l-7.2-1.2c-1-0.2-1.7-1-1.8-2
                V8.2l-0.5-5.1V2.4c-0.1-1.2,0.8-2.3,2-2.4c0.1,0,0.3,0,0.4,0l8.9,0.7C1024.8,0.9,1025.7,2,1025.5,3.3
                C1025.5,3.2,1025.5,3.3,1025.5,3.3z"/>
            <path id="Path-60" className="st9" d="M1120,252.8c-1.1,10.6-3,21.1-5.4,31.4c-0.8,3.5-4.3,5.6-7.8,4.7c-0.5-0.1-1.1-0.3-1.6-0.6
                c-2.4-1.3-4.9-2.4-7.4-3.4c-7.7-3-15.8-4.9-24-5.5c-7-0.6-14-0.5-21,0.2c-10.5,1-20.9,3.2-30.8,6.7c-6.6-33.4-9-73.4-9-73.4
                s2.3-1.2,5.8-3.5l1.4-0.9l0.1-0.1l0.9-0.6h0.1l1-0.7c5-3.4,9.9-7,14.5-11c0.4-0.4,0.9-0.8,1.3-1.2c0.6-0.5,1.3-1.1,1.9-1.7
                c0.4-0.4,0.9-0.8,1.3-1.2c0.6-0.5,1.2-1.1,1.8-1.7c0.8-0.8,1.7-1.6,2.5-2.4c2.7-2.4,5.6-4.6,8.7-6.6c3.2-2.1,6.6-3.9,10.1-5.4
                c8.6-3.7,17.9-5.5,27.2-5.3c0.9,0,1.8,0.1,2.6,0.1c0.5,0,0.9,0.1,1.4,0.1h0.2l2,0.2l1.2,0.1c0.4,0,0.8,0.1,1.2,0.1
                c2.3,0.3,4.5,0.7,6.7,1.1c0.6,0.1,1.3,0.3,1.9,0.4c0.3,0.1,0.6,0.1,0.9,0.2c1.1,0.3,2.2,0.5,3.3,0.9
                C1122.5,200.8,1122.5,230.1,1120,252.8L1120,252.8z"/>
            <path id="Path-91" className="st11" d="M953.7,160c-1.8,5-3.8,10.1-5.8,15c-2.4,5.9-4.9,11.7-7.4,17.1c-8.2,17.8-16.3,32.3-21.1,37.8
                c-7.6,8.6-30.3,24.9-50.7,38.8c35.4-27.9,47.1-63.3,52.5-87.2c2.2-9.6,4-19.2,8.5-28.6C938,154,946.1,156.5,953.7,160z"/>
            <path id="Path-92" className="st10" d="M962,133.4c-2.2,8.6-5.1,17.6-8.4,26.6c-7.6-3.5-15.7-5.9-23.9-7.2c6.9-14.5,16-29.1,19-45.4
                c4.8-26-15-30.7-16.2-31C953.7,78.3,969.5,104.4,962,133.4z"/>
            <path id="Path-93" className="st20" d="M950.4,197.4c0,0-8,24.4-20.7,39c-18.5,21.3-94.7,54.9-97.4,56.2c2.8-1.8,72.6-46.5,87.1-62.8
                c4.9-5.5,13-19.9,21.1-37.8C943.7,193.9,947,195.7,950.4,197.4z"/>
            <path id="Path-94" className="st11" d="M1027.1,307.5c-10.5,7.5-21.3,14.5-32.5,20.8l-27.8,89.5l-2.9,3.9c0,0,1.6-76.5,18.3-121.9
                c2.8-7.5,4.9-15.3,6.3-23.1c8.5,1.1,16.8,3.1,24.9,5.9c2.9,1,5.7,2.2,8.5,3.5C1023.4,293.8,1025.1,301.1,1027.1,307.5L1027.1,307.5
                z"/>
            <path id="Path-95" className="st7" d="M1021.9,286.2c-2.8-1.3-5.6-2.5-8.5-3.5c-8.1-2.9-16.4-4.8-24.9-5.9c6.9-38.1-4.4-67.1-4.4-67.1
                c9.4,2.1,19.1,3.2,28.8,3.2c0,0,1.1,18.5,3.9,40.8C1018.1,264.1,1019.8,275.4,1021.9,286.2L1021.9,286.2z"/>
            <path id="Path-96" className="st21" d="M1112.8,174c-1.1-0.3-2.2-0.6-3.3-0.9c-0.3-0.1-0.6-0.2-0.9-0.2c-0.6-0.2-1.3-0.3-1.9-0.4
                c-2.2-0.5-4.5-0.8-6.7-1.1c-0.4-0.1-0.8-0.1-1.2-0.1l-1.2-0.1l-2-0.2h-0.2c-0.5,0-0.9-0.1-1.4-0.1c-0.9-0.1-1.8-0.1-2.6-0.1
                c-0.9,0-1.8,0-2.6,0h-1.2c-11.9,0.5-23.5,4.1-33.5,10.7c-6.1-11.9-9.9-25.4-13.5-37.9c-7-24.8-52.8-25.5-61.1,4.5
                s-29.1,49.5-29.1,49.5c-3.4-1.7-6.7-3.5-9.9-5.3c2.5-5.4,5-11.2,7.4-17.1c2-4.9,3.9-9.9,5.8-15c3.3-9,6.2-18,8.4-26.6
                c4.6-17.9,0.4-34.7-8.5-45.3c-5.5-6.6-12.8-10.9-20.9-11.6c7.2-1.8,14.5-2.7,21.9-2.7c25.7-0.4,51.2,5.3,74.3,16.7
                c1.8,0.9,3.4,1.7,5.1,2.6c10.9,5.7,21.3,12.3,31.1,19.7c13.6,10.3,25.5,22.1,34.6,34.8C1105.3,155.7,1109.8,164.6,1112.8,174
                L1112.8,174z"/>
            <path id="Path-97" className="st21" d="M1028.7,90.5c-23.1-11.4-48.5-17.1-74.3-16.7c-7.4,0-14.7,0.9-21.9,2.7c-4-0.3-8,0.2-11.8,1.5
                c-2.3-1-3.9-3-4.5-5.4c21.4-6.3,48.6-4.3,76.1,3.8C1004.8,79.9,1017,84.7,1028.7,90.5L1028.7,90.5z"/>
            <path id="Path-98" className="st7" d="M1112.8,174c-1.1-0.3-2.2-0.6-3.3-0.9c-0.3-0.1-0.6-0.2-0.9-0.2c-0.6-0.2-1.3-0.3-1.9-0.4
                c-2.2-0.5-4.5-0.8-6.7-1.1c-0.4-0.1-0.8-0.1-1.2-0.1l-1.2-0.1l-2-0.2h-0.2c-0.5,0-0.9-0.1-1.4-0.1c-0.9-0.1-1.8-0.1-2.6-0.1
                c-0.9,0-1.8,0-2.6,0h-1.2c-11.9,0.5-23.5,4.1-33.5,10.7c-3.1,2-6,4.2-8.7,6.6c-0.9,0.8-1.7,1.5-2.5,2.4c-0.6,0.6-1.1,1.1-1.8,1.7
                c-0.4,0.4-0.9,0.8-1.3,1.2c-0.6,0.6-1.3,1.1-1.9,1.7c-0.4,0.4-0.9,0.8-1.3,1.2c-4.6,4-9.4,7.6-14.4,11l-1,0.7h-0.1l-0.9,0.6
                l-0.1,0.1l-1.4,0.9c-3.5,2.3-5.8,3.5-5.8,3.5s2.5,40,9,73.4c0,0-1.5-41.4,6.7-60.9c11.9-28.2,45.6-36.1,61-16.7
                c17,21.4,9,63.7-15.9,70.8c8.3,0.7,16.4,2.5,24.1,5.6c2.5,1,5,2.2,7.4,3.4c3.1,1.7,7,0.6,8.7-2.5c0.3-0.5,0.5-1,0.6-1.6
                C1119.2,265,1128,216.4,1112.8,174L1112.8,174z"/>
            <path id="Path-99" className="st20" d="M1027.1,307.5c-10.5,7.5-21.3,14.5-32.6,20.8c9.1-13.9,15.5-29.4,18.9-45.7
                c2.9,1,5.7,2.2,8.5,3.5C1023.4,293.8,1025.1,301.1,1027.1,307.5L1027.1,307.5z"/>
            <path id="Path-100" className="st22" d="M1021.9,286.2c-2.8-1.3-5.6-2.5-8.5-3.5c2-9.6,3.2-19.3,3.4-29.1
                C1018.1,264.1,1019.8,275.4,1021.9,286.2z"/>
            <g id="Group-5" transform="translate(465.053 123.093)">
                <path id="Path-101" className="st11" d="M632.8,161.8c-2.1,4.2-4.1,7.8-5.7,10.8c-17-12.2-39.3-16.1-39.3-16.1c7-0.7,14-0.8,21-0.2
                    C617,156.9,625.1,158.8,632.8,161.8z"/>
                <path id="Path-102" className="st11" d="M625.3,192.7H621c-1.8,0-3.3-1.5-3.3-3.3c0-0.6,0.2-1.1,0.4-1.7l3.8-6.7L625.3,192.7z"/>
                <path id="Path-103" className="st11" d="M375.4,4.1c-2.1-0.8-5.8,0.3-7.4-1.4c0.2,0,3.5,0.7,5.6-0.2C375.4,1.7,376.8,3.2,375.4,4.1
                    L375.4,4.1z"/>
                <path id="Path-104" className="st11" d="M402.1,2.7l1.9-2.2c0.6-0.7,1.7-0.8,2.4-0.2c0.3,0.3,0.5,0.6,0.6,1l0.9,6L402.1,2.7z"/>
            </g>
            <path id="Path-105" className="st23" d="M838.4,119.9c-1.7,0.7-3.4,1.4-5.2,1.9c0.5-0.2,4.3-1.6,4.8-3.5c1-3.4-3.3-8.8-5-10.8
                c-1.7-2-3.2-1.5-3.4-1.4l0.3-0.3c1.3-1.1,3.3-1.1,4.5,0.1c0.5,0.5,1,1,1.4,1.5c2,2.5,3.5,5.4,4.4,8.4
                C840.7,117.5,840,119.2,838.4,119.9L838.4,119.9z"/>
            <path id="Path-106" className="st24" d="M824.2,115c0.3,1.4,2.9,3.2,3.8,2.6s-0.4-1-1.3-2c-1.3-1.5,0.6-2.5,0-3.4
                C826.2,111.4,823.8,112.8,824.2,115z"/>
            <path id="Path-107" className="st11" d="M885.6,92.8c-4.8-0.5-7.9,0.5-10.1,2.3c-5.2,4.1-5.4,12.2-12.2,12.8c-4.5,0.4-6.7-1.2-11.1-6.8
                s-11.7,2.6-12.9,5.9c-1.2,3.2,4.7,10,2.9,12.4s-8.9,2.5-8.9,2.5c1.8-0.5,3.5-1.2,5.2-1.9c1.5-0.7,2.3-2.4,1.9-4
                c-0.9-3.1-2.4-6-4.4-8.4c3.6-5,9.3-11.8,13-16.3c0.2,0.3,0.3,0.7,0.5,1c0.2,0.4,0.3,0.7,0.5,1.1s0.4,0.9,0.5,1.2
                c0.1,0.3,0.3,0.6,0.4,0.9c0.1,0.2,0.1,0.3,0.2,0.5c0.1,0.3,0.2,0.6,0.3,0.9c0.4,1,1.5,1.6,2.5,1.3c0.3-0.1,0.5-0.2,0.7-0.5l0.7-0.6
                c1-0.9,1-2.5,0-3.4c-0.1-0.1-0.1-0.1-0.2-0.2c-1.6-1.3-3.4-3.4-2.7-5.7c0-0.1,0.1-0.3,0.1-0.4c0.1-0.2,0.1-0.3,0.2-0.5
                c2.5-4.4,7.2,0.7,7.2,0.7l7.8,5.6c1.6,1.2,3.8,1,5.3-0.4c1-0.9,1.9-1.8,2.7-2.7l0.5,0.4L885.6,92.8z"/>
            <path id="Path-108" className="st25" d="M876.6,89.1l-0.9,0.9c-0.8,0.9-1.8,1.8-2.7,2.7c-0.8,0.8-1.9,1.2-3,1.1
                c9.7-5.5-2.1-16.5-10.6-14.7c-8.5,1.7-15.4-3.5-20.7-9c-5.7-5.9-25.6,11.8-26.7,12.8c6.4-7.2,18.8-24.1,30.6-26.4
                c13-2.5,19.8,3.5,25.9,15c2.2,4.3,4.8,8.3,7.9,12l0.3,0.3C878.1,85.3,878,87.6,876.6,89.1L876.6,89.1z"/>
            <path id="Path-109" className="st11" d="M837.5,98.7c0.4-0.6,5-8.2,0-12c-5-3.8-10.8-0.7-11.2-0.4c3.9-3,8.1-5.3,12.2-4.5
                c4.5,0.9,7.6,4.4,9.8,8.1C844.3,92.9,840.6,96.1,837.5,98.7z"/>
            <path id="Path-113" className="st7" d="M1064.7,112.6c-41.3-33.6-91.6-56.1-120.4-56c-14.8,0-24,5.3-28.5,8.9
                c7-7.8,16.5-12.8,26.8-14.2c17.5-2.4,30.1,11.6,47.7,12.8C1007.2,65.1,1060.6,109.2,1064.7,112.6z"/>
            <path id="Path-114" className="st7" d="M1056.1,49.3c0,5.7-0.7,11.3-2.2,16.8c-0.5,1.9-2.4,3-4.3,2.5c-0.1,0-0.2-0.1-0.3-0.1l-22-8.4
                c-1.5-0.6-2.4-2.2-2.2-3.8c0.4-2.5,0.7-4.9,1-7c0,1-0.3,8.5,2.6,8.6c3.1,0.1,9-9.2,16.2-7C1052.1,53.2,1056.1,49.3,1056.1,49.3z"/>
            <path id="Path-115" className="st6" d="M1012.9,8.2c-5.1,0.5-10.9,1.8-14.4,4.9c-3-1.1-5.9-2.1-8.6-3.1c5.7-4.8,15.1-2.1,18.5-3.3
                c1.9-0.5,3.4-2,3.9-4h0L1012.9,8.2z"/>
            <path id="Path-116" className="st26" d="M1025.3,4.3l-0.9,5.3c-0.2,1.2-1.3,2-2.5,1.8c0,0,0,0,0,0l-7.2-1.1c-1-0.2-1.7-1-1.8-2V8.2
                l-0.5-5.1c0.2,1,1,4.2,2.2,5C1017.4,10,1024.1,10.3,1025.3,4.3L1025.3,4.3z"/>
            <path id="Path-117" className="st6" d="M932.5,40.9c-0.1,1-0.9,1.9-1.9,2.3c-5.6,1.9-10.1,6.1-12.5,11.4c0,0-4.2,4.9-6.9-0.7l-0.1-0.3
                c-2.5-5.6-2.9-8.7,5.1-14.4c-0.3,0.2-5.3,4.5-4.3,8.2c1,3.7,2.7,7.3,4.3,5s2.5-8.5,7.3-10.3c4.9-1.8,9.4-9,5.8-10.5
                c1.2-0.5,2.6,0,3.2,1.2c0.1,0.3,0.2,0.6,0.2,0.9C932.8,36.2,932.7,38.6,932.5,40.9L932.5,40.9z"/>
            <path id="Path-118" className="st27" d="M1077.2,48.8c-2-1.2-4.1-2.3-6.2-3.5c8.6,7.7,5.6,48.1-22.3,39.3c-31.8-10-47.1-32-73.5-43.7
                c-16.2-7.2-28.6-5.6-35.7-3.2c-1.9,0.6-3.9-0.4-4.6-2.3c-0.1-0.2-0.1-0.4-0.1-0.6c-0.2-1.5-0.5-2.8-1.2-3.2c-1.7-1-4,0.1-4.2,0.2
                c1.2-0.5,2.6,0.1,3.1,1.3c0.1,0.3,0.2,0.6,0.2,0.9c0.1,2.3,0,4.7-0.2,7c-0.1,1-0.9,1.9-1.9,2.3c-5.6,1.9-10.1,6.1-12.5,11.4
                c7-3.7,22.1-10.4,35.4-9.1c19.8,2,50,10.6,111.3,67.3c13.3-15.6,18-36.7,19.7-49C1085.4,57.7,1082.4,51.8,1077.2,48.8L1077.2,48.8z
                "/>
            <path id="Path-119" className="st27" d="M1017.1,33.5c-0.1,0.2-0.2,0.3-0.4,0.3c-0.1,0-0.1,0-0.2,0l-31.9-13.6c-15.2-6.5-32.7-5-46.6,4
                l-10.1,6.6l0.7-1.5l8.9-5.8c14.1-9.2,31.9-10.7,47.4-4.1l31.8,13.5C1017.1,33,1017.2,33.3,1017.1,33.5
                C1017.2,33.5,1017.2,33.5,1017.1,33.5z"/>
            <g id="Group-7" transform="translate(553.45 444.591)">
                <path id="Path-126" className="st10" d="M368.2,42.5c0.6,1.1,1.9,1.6,3.1,1.1c0.1,0,0.1-0.1,0.2-0.1l4.6-2.6c1.1-0.6,1.5-2.1,0.8-3.2
                    c0,0,0-0.1,0-0.1l-0.6-1c-0.7-1.1-2.1-1.4-3.2-0.7c-0.1,0.1-0.2,0.2-0.3,0.2l-3.9,3.7C368,40.5,367.8,41.6,368.2,42.5L368.2,42.5z
                    "/>
                <path id="Path-127" className="st10" d="M378.2,35.7c0.3,0.6,1,0.8,1.6,0.6c0,0,0.1,0,0.1-0.1l2.4-1.4c0.6-0.3,0.8-1.1,0.4-1.6
                    c0,0,0,0,0,0l-0.3-0.5c-0.4-0.6-1.1-0.7-1.7-0.4c-0.1,0-0.1,0.1-0.2,0.1l-2,1.9C378.1,34.7,378,35.2,378.2,35.7z"/>
                <path id="Path-128" className="st10" d="M547.9,12.7c0.8,1,2.2,1.2,3.2,0.5c0.1,0,0.1-0.1,0.1-0.1l4-3.5c1-0.8,1.1-2.3,0.2-3.3
                    c0,0,0,0-0.1-0.1l-0.8-0.9c-0.9-0.9-2.3-0.9-3.3-0.1c-0.1,0.1-0.2,0.2-0.3,0.3L548,10C547.4,10.8,547.4,11.9,547.9,12.7z"/>
                <path id="Path-129" className="st10" d="M556.5,4.2c0.4,0.5,1.1,0.6,1.7,0.3c0,0,0.1,0,0.1-0.1l2.1-1.8c0.5-0.4,0.6-1.2,0.1-1.7
                    c0,0,0,0-0.1-0.1L560,0.4c-0.5-0.5-1.2-0.5-1.7,0c0,0-0.1,0.1-0.1,0.2l-1.6,2.3C556.2,3.2,556.2,3.8,556.5,4.2L556.5,4.2z"/>
            </g>
        </g>
            
        <g id="woman">
            <path id="Path-61" className="st9" d="M578.3,389.8l-0.8-0.3c9.5-27.2,3.1-49.8,3-50l0.9-0.2C581.4,339.5,587.9,362.4,578.3,389.8z"/>
            <path id="Path-62" className="st9" d="M591.8,383.9l-0.9-0.1c1.8-12.9,1.3-25.9-1.5-38.6l0.9-0.2C593.1,357.7,593.6,370.9,591.8,383.9z
                "/>
            <g>
                <path id="Path-10" className="st28" d="M803.4,580.7l-7.9-3.9l-2,16.9l6.8,0.8L803.4,580.7z"/>
                <path id="Path-11" className="st28" d="M521.7,666.9l-11.2,2l4.4-10.7l13.8-4.8L521.7,666.9z"/>
                <path id="Path-12" className="st29" d="M610.6,363.6l36.3-82.1l53.8-46.4l7.1-7.8l18.4-5.1v15.1l5.6,51.7l-54.1,74.7l-57.1,15.9
                    L610.6,363.6z"/>
                <path id="Path-13" className="st29" d="M734.3,331.4l36.8-45.7l3.7-19.4l-3.7-24.8l-4.8-8.1l7.4-26l-5.9-21.3l-4.6-13.3l-1.4-1.6
                    l-22.1,3.6l-12,35.1l-21.3,29.6l-5.8,42.9l20.7,53.3L734.3,331.4z"/>
                <path id="Path-14" className="st28" d="M803.4,580.7l-9.8,13c0,0-6.8-31.1-15.6-55.3c-9.2-25.2-19.3-59.1-14.8-69.5
                    c0,0-42.7,3.5-83-0.3c-39.4-21.4-19.8-46.3-16.1-59c3.3-11.2,26.6-25.8,42.3-22.9c24.3,10.6,95.2,42.7,101.2,56.8
                    C816.9,466,803.4,580.7,803.4,580.7L803.4,580.7z"/>
                <path id="Path-28" className="st28" d="M782.4,223.6c-1.6,0.5-5,0.6-8.6,0.9l-2.2,0.2c-6.7,0.4-13.7,0.7-13.7,0.7v-0.1
                    c15.6-14.4,7.6-25.8,5.4-38.7c-1.4-8.4,0-12.8-1.4-15.3c2.7,0.7,5.3,2.9,7.3,5.6c4.5,5.7,3.4,10.7,10.7,15.3
                    c3.3,2.1,5.2,3.5,5.9,4.9c0.7,1.4,0.4,2.7-0.7,4.7c-0.2,0.4-0.4,0.9-0.5,1.3C783.2,209.1,788.7,221.7,782.4,223.6L782.4,223.6z"/>
                <path id="Path-29" className="st14" d="M757.9,225.2c-0.7,0.6-1.4,1.2-2.1,1.9c-2.5-1.1-5.2-1.7-7.9-1.8c-1.7-0.2-3.4-0.2-5.1-0.1
                    c-0.3,0-0.6,0-0.9,0.1c-1.3,0.1-2.7,0.3-4,0.6c-1,0.2-2,0.5-3.1,0.8c-0.3,0.1-0.5,0.2-0.8,0.2c-0.5,0.2-1.1,0.4-1.6,0.6l-0.8,0.3
                    l-1,0.4l-0.8,0.3l-0.9,0.4c-0.5,0.2-0.9,0.4-1.4,0.7c-0.5,0.3-0.8,0.4-1.2,0.6c-0.4,0.2-0.6,0.3-0.9,0.5h-0.1l-0.9,0.5l-1,0.6
                    c-0.3,0.2-0.6,0.4-0.9,0.6l-0.9,0.7c0,0-1.2-4.4-13.7-6.1c4.3-2.9,7.6-7.1,9.5-12c4.2-11,2-40.6,22.6-47h0
                    c2.9-0.9,5.8-1.3,8.8-1.2c8.8,0,12,1.9,13.1,4.1c1.4,2.6-0.1,6.9,1.4,15.3C765.5,199.5,773.5,210.9,757.9,225.2L757.9,225.2z"/>
                <path id="Path-30" className="st28" d="M773.8,224.6l-1.4,1.7l-7.5,8.9c-2.2-3.5-5.4-6.3-9.2-8c0.8-0.6,1.5-1.3,2.1-1.9v0.1
                    c0,0,7-0.2,13.7-0.7L773.8,224.6z"/>
                <path id="Path-31" className="st28" d="M684.4,455c-1.4,4.5-2.8,9-4.3,13.7c-10.5,32.9-22.7,68.3-31.3,82.8
                    C631,581.7,521.7,666.9,521.7,666.9l-6.8-8.6c0,0,36.5-53.7,50.9-86s33-43.3,33-43.3c-1.5-11.4-2.7-22.2-3.6-32.2
                    c-2.7-30.5-2.7-55-0.8-74.9c9.6-22.4,51-27.5,77.7-12.9C679.6,413,685.2,437.9,684.4,455z"/>
                <path id="Path-32" className="st14" d="M714,368.8c-2.7,5.9-5.3,11.9-7.7,18c-4.3,10.9-8.1,21.9-11.3,33.1
                    c-2.8,9.5-6.4,21.8-10.6,35.1c-1.8-1.6-3.7-3.1-5.5-4.5c-5.3-4.1-11-7.8-16.9-11c-2.2-1.2-4.4-2.3-6.7-3.4
                    c-12.6-5.9-26-10.1-39.7-12.3c-1.9-0.3-3.7-0.6-5.4-0.8c-5.3-0.7-10.5-1.1-15.8-1.3c0.8-8.5,2.1-17,4-25.3
                    c0.2-0.9,0.4-1.7,0.6-2.5c0,0,0-0.1,0-0.1c0.2-0.8,0.4-1.5,0.6-2.3c0-0.1,0-0.2,0.1-0.2c0.2-0.7,0.4-1.3,0.5-1.9
                    c0.2-0.9,0.5-1.8,0.7-2.6l0.4-1.5c0-0.1,0-0.2,0.1-0.2c0.2-0.6,0.3-1.1,0.5-1.6c0.3-0.9,0.6-1.8,0.9-2.6c0.3-0.9,0.5-1.4,0.8-2.2
                    l0.6-1.5c0.4-1,0.8-2,1.2-2.9c0.9-2.2,1.9-4.4,2.9-6.4l0.2-0.5l0.7-1.3c0.4-0.9,0.9-1.7,1.4-2.5c2.9-5.1,6.3-10,10.1-14.4
                    c2.3-2.7,4.8-5.3,7.4-7.7c4-3.7,8.3-7.1,12.8-10.3c6.5-4.7,12.6-9.6,18.6-15c7.8-9.5,17.7-29.9,28.1-21c1.1,1,22,22.9,23.1,23.9
                    C720,327.5,721.5,352.2,714,368.8L714,368.8z"/>
                <path id="Path-33" className="st30" d="M721.5,233.4c-1.7,1.9-3.2,3.9-4.6,6.1l-1-1c1.2-1.3,2.4-2.6,3.7-3.7
                    C720.2,234.3,720.8,233.9,721.5,233.4C721.4,233.4,721.4,233.4,721.5,233.4z"/>
                <path id="Path-34" className="st29" d="M741.9,225.7l-0.9,0.2l-0.3,0.1l-0.3,0.1l-0.4,0.1l-0.4,0.1h-0.1c-0.3,0.1-0.6,0.1-0.9,0.2
                    c-0.4,0.1-0.7,0.2-1,0.3s-0.7,0.2-1,0.4c-0.3,0.1-0.7,0.2-1,0.4c-0.3,0.1-0.6,0.3-0.9,0.4c-0.6,0.3-1.2,0.6-1.8,0.9
                    c-0.3,0.2-0.6,0.3-0.9,0.5c-0.2,0.1-0.4,0.3-0.7,0.4c-0.1,0.1-0.3,0.2-0.4,0.3c-0.2,0.2-0.5,0.4-0.7,0.6c-0.2,0.2-0.6,0.4-0.8,0.7
                    l-0.3,0.3l-0.3,0.3c-0.1,0.1-0.2,0.2-0.3,0.3c-0.1,0.1-0.3,0.3-0.4,0.4l-0.4,0.4c-0.2,0.2-0.4,0.4-0.6,0.7
                    c-0.2,0.2-0.3,0.4-0.5,0.6v0c-0.1,0.1-0.2,0.2-0.3,0.3l-0.1,0.1c-0.2,0.2-0.4,0.5-0.5,0.7c-0.2,0.2-0.4,0.5-0.6,0.8
                    c-0.2,0.3-0.4,0.6-0.5,0.8s-0.4,0.6-0.5,0.9l-0.2,0.3l-0.1,0.2l-0.4,0.7c-0.2,0.3-0.3,0.6-0.5,1c-0.1,0.1-0.1,0.2-0.1,0.3
                    c-0.2,0.3-0.3,0.6-0.4,1c-0.1,0.1-0.1,0.3-0.2,0.5c0,0.1-0.1,0.1-0.1,0.2l-0.1,0.2c-0.1,0.3-0.2,0.6-0.4,0.9
                    c-0.1,0.2-0.1,0.4-0.2,0.5c-0.1,0.4-0.3,0.8-0.4,1.2c-0.1,0.4-0.2,0.8-0.3,1.1c-0.1,0.2-0.1,0.5-0.2,0.7c-0.1,0.4-0.2,0.7-0.3,1.1
                    c-0.1,0.6-0.3,1.3-0.4,1.9c-0.4,2-0.7,3.9-0.9,5.9c0,0.4-0.1,0.8-0.1,1.2c-0.2,2.8-0.3,5.7-0.3,8.6v1.1c0,0.6,0,1.2,0.1,1.8
                    c0.1,0.6,0.1,1.2,0.1,1.8c0,0.6,0.1,1.1,0.1,1.6c0,0.2,0,0.4,0,0.6c0,0.5,0.1,1.1,0.1,1.6c0.1,0.8,0.2,1.7,0.3,2.5l0.2,2
                    c0.1,0.6,0.1,1.2,0.2,1.8s0.2,1.1,0.2,1.6c0.1,0.6,0.2,1.2,0.3,1.8c0.1,0.7,0.2,1.5,0.4,2.2c0.1,0.4,0.2,0.8,0.2,1.2
                    c0.2,0.9,0.3,1.7,0.5,2.5c0,0.2,0.1,0.4,0.1,0.6l0.1,0.6c0.2,0.8,0.3,1.6,0.5,2.4c0.2,0.9,0.4,1.7,0.6,2.5
                    c0.7,2.6,1.4,5.2,2.1,7.6l1.3,4.2l1,3.1c0.9,2.9,1.8,5.7,2.7,8.3c0.2,0.6,0.4,1.2,0.6,1.8c0.3,1,0.7,1.9,1,2.9
                    c0.4,1.1,0.8,2.1,1.1,3.2c0.6,1.8,1.3,3.4,1.9,5c-5.6,8.4-10.6,17.2-15,26.2c-1.8,3.7-3.6,7.4-5.3,11.1
                    c-10.9-19.5-28.7-34.8-41.9-44.2c-1.7-1.2-3.3-2.3-4.8-3.4c-3.1-2.1-5.7-3.7-7.8-5c20.2-18.3,28.7-34.8,43.1-60.7
                    c1.7-3.1,3.6-6.1,5.8-9c0.8-1.1,1.6-2.1,2.5-3.1c2.6-3.2,5.6-6.1,8.8-8.6c-1.3,1.2-2.6,2.4-3.7,3.7l1,1c1.3-2.2,2.9-4.2,4.5-6.1
                    l0.9-0.7c0.3-0.2,0.6-0.4,0.9-0.6l0.9-0.6l0.9-0.5h0.1c0.3-0.2,0.6-0.3,0.9-0.5c0.3-0.2,0.8-0.4,1.2-0.6c0.4-0.2,0.9-0.5,1.4-0.7
                    l1-0.4l0.8-0.3l1-0.4l0.8-0.3c0.6-0.2,1.1-0.4,1.6-0.6c0.3-0.1,0.5-0.2,0.8-0.2c1.1-0.3,2.2-0.6,3.2-0.8s2.1-0.4,3.1-0.5l0.9-0.1
                    L741.9,225.7z"/>
                <path id="Path-35" className="st14" d="M514.9,658.2l-12.9,5.6c-3,1.3-4.3,4.8-3,7.7c0.2,0.4,0.4,0.9,0.7,1.2l16.1,20.5
                    c1.8,2.4,5.3,2.8,7.6,1c1.6-1.2,2.4-3.3,2-5.3l-3.7-22.2L514.9,658.2z"/>
                <path id="Path-36" className="st14" d="M803.4,580.7l15.4-4.5c2.6-0.8,5.3,0.7,6,3.3c0.5,1.7,0.1,3.4-1.1,4.7l-18.2,19.4
                    c-2.4,2.5-6.3,2.6-8.9,0.3c-1-0.9-1.6-2.1-1.9-3.4l-1.2-6.7L803.4,580.7z"/>
                <path id="Path-37" className="st9" d="M680.2,448.3l-1.2,2.2l-6,10.6c-0.5,1-1.8,1.3-2.7,0.7c-0.3-0.2-0.6-0.4-0.7-0.7
                    c-3-5.4-8.8-18.8-9.9-42.7c-0.5-12.1-0.8-24-1.8-34.5c-0.1-1.5-0.3-2.9-0.5-4.3c-0.6-5.9-1.8-11.8-3.7-17.5c-1-3.1-2.4-6-4.2-8.6
                    c-1.1-1.7-2.5-3.2-4-4.5l0.1-0.1c1.6-1.6,3.4-3.5,5.2-5.6l0.6-0.7l0.3-0.3c0.7-0.8,1.4-1.6,2-2.4c0.9-1,1.8-2.1,2.6-3.2
                    c0.9,0.9,1.8,1.8,2.6,2.8l0.2,0.2c3.4,4.2,7.1,10.9,7.9,20.7C668.4,379.7,668.2,430.2,680.2,448.3L680.2,448.3z"/>
                <path id="Path-38" className="st29" d="M653.6,362.1l-2.9,5.7l-7.6,15.4c-1.2,2.3-3.2,4.1-5.7,4.8c-2.3,0.7-5.5,1.6-9.4,2.6
                    c-9.7,2.6-19.6,4.5-29.5,5.8c0.2-0.9,0.4-1.7,0.6-2.5c0,0,0-0.1,0-0.1c0.2-0.8,0.4-1.5,0.6-2.3c0-0.1,0-0.2,0.1-0.2
                    c0.2-0.7,0.4-1.3,0.5-1.9c0.2-0.9,0.5-1.8,0.7-2.6l0.4-1.5c0-0.1,0-0.2,0.1-0.2c0.2-0.6,0.3-1.1,0.5-1.6c0.3-0.9,0.6-1.8,0.9-2.6
                    c0.3-0.9,0.5-1.4,0.8-2.2l0.6-1.5c0.4-1,0.8-2,1.2-2.9c0.9-2.2,1.9-4.4,2.9-6.4l0.2-0.5l0.7-1.3c0.4-0.9,0.9-1.7,1.4-2.5
                    c11.2,0.4,22.9-4.1,32.3-12.4c0.6-0.5,1.2-1.1,1.8-1.6l0.6-0.6l0.1-0.1c0.3,0.3,0.6,0.5,0.9,0.8c0.3,0.3,0.5,0.5,0.7,0.7l0.1,0.1
                    l0.6,0.7c0.4,0.5,0.9,1,1.2,1.6c0.2,0.2,0.3,0.4,0.4,0.6c0.1,0.2,0.4,0.6,0.6,0.9c0.2,0.3,0.4,0.7,0.6,1c0.2,0.3,0.4,0.7,0.6,1
                    s0.4,0.7,0.5,1.1c0.2,0.4,0.3,0.6,0.4,0.9c0.1,0.1,0.1,0.2,0.1,0.3c0,0.1,0.2,0.5,0.3,0.7C652.9,360.3,653.3,361.2,653.6,362.1
                    L653.6,362.1z"/>
                <path id="Path-39" className="st9" d="M729.4,317.8c-2.4,1.3-6.2,3.3-11.3,5.6c-18.7,8.4-38.6,13.8-58.9,15.9l-0.3,0
                    c-0.8-1-1.7-1.9-2.6-2.8c1.1-1.3,2.1-2.8,3.2-4.2c2-0.6,4.5-1.4,7.4-2.5c13.7-4.9,26.7-11.5,38.6-19.8c6.2-4.3,12-9.2,17.3-14.6
                    c0.7,2.6,1.4,5.2,2.1,7.6l1.3,4.2c0.2,0.6,0.4,1.1,0.5,1.7s0.3,0.9,0.4,1.4c0.5,1.5,0.9,3,1.4,4.4l0.7,2.2
                    C729.2,317.2,729.3,317.5,729.4,317.8L729.4,317.8z"/>
                <path id="Path-40" className="st28" d="M814.1,293.8l-48.7,19.5c2.8-9,4.7-18.2,5.7-27.5c2.2-18.5,1.5-38.9-6.2-50.6
                    c-2.2-3.5-5.4-6.3-9.2-8c-2.5-1.1-5.2-1.7-7.9-1.8c-1.7-0.2-3.4-0.2-5.1-0.1l-0.9,0.1l-0.9,0.1c-0.7,0.1-1.5,0.2-2.2,0.4l-0.8,0.2
                    c-1,0.2-2,0.5-3.1,0.8c-0.3,0.1-0.5,0.2-0.8,0.2c-0.5,0.2-1.1,0.4-1.6,0.6l-0.8,0.3l-1,0.4l-0.8,0.3l-0.9,0.4
                    c-0.5,0.2-0.9,0.4-1.4,0.7c-0.5,0.3-0.8,0.4-1.2,0.6c-0.4,0.2-0.6,0.3-0.9,0.5h-0.1l-0.9,0.5l-1,0.6c-0.3,0.2-0.6,0.4-0.9,0.6
                    l-0.9,0.7l-0.4,0.4c-1.5,1.8-2.9,3.7-4.2,5.7c-3.7,5.9-6.4,12.4-7.8,19.3c-3.6,18.1,1,33.7,13.6,36.6c0.7,2.6,1.4,5.2,2.1,7.6
                    l1.3,4.2c0.2,0.6,0.4,1.1,0.5,1.7c0.2,0.6,0.3,0.9,0.4,1.4c0.5,1.5,0.9,3,1.4,4.4v0.1l1.3,3.9c0.2,0.6,0.4,1.2,0.6,1.8
                    c0.3,1,0.7,1.9,1,2.9c0.4,1.1,0.8,2.1,1.1,3.2c0.6,1.8,1.3,3.4,1.9,5c6,15,11.9,22.7,20.1,23.9c5.2,0.8,14.7-6.4,24.7-16
                    c18-17.1,37.7-41.9,37.7-41.9L814.1,293.8z"/>
                <path id="Path-41" className="st9" d="M771.2,285.7c2.2-18.5,1.5-38.9-6.2-50.6c-2.2-3.5-5.4-6.3-9.2-8c0,0,17.3,4,21.8,28.5
                    C779.6,266.4,776.4,276.7,771.2,285.7z"/>
                <ellipse id="Oval" className="st10" cx="591.6" cy="384" rx="2.3" ry="3.1"/>
                <path id="Path-63" className="st21" d="M591.6,380.9c-0.1,0-0.3,0-0.4,0.1c1.2,0.6,1.9,1.8,1.9,3c0,1.3-0.7,2.5-1.9,3
                    c0.1,0,0.3,0,0.4,0.1c1.3,0,2.3-1.4,2.3-3.1S592.9,380.9,591.6,380.9z"/>
                <ellipse id="Oval-2" className="st10" cx="577.9" cy="389.7" rx="2.3" ry="3.1"/>
                <path id="Path-64" className="st21" d="M577.9,386.6c-0.2,0-0.3,0-0.5,0.1c1.1,0.6,1.8,1.8,1.8,3c0,1.3-0.7,2.4-1.8,3
                    c0.2,0,0.3,0.1,0.5,0.1c1.3,0,2.3-1.4,2.3-3.1S579.2,386.6,577.9,386.6z"/>
                <path id="Path-65" className="st10" d="M586.5,374.6c0.1,0.7-1.4,1.4-3.5,1.8c-0.4,0.1-0.7,0.1-1.1,0.2c-2.6,0.3-4.8-0.1-4.9-0.8
                    c-0.1-0.8,2-1.6,4.6-1.9l0.5,0C584.5,373.5,586.4,373.8,586.5,374.6z"/>
                <path id="Path-66" className="st21" d="M585,374.8c0.1,0.5-0.7,1.1-2.1,1.5c-0.4,0.1-0.7,0.1-1.1,0.2c-2.6,0.3-4.8-0.1-4.9-0.8
                    c-0.1-0.8,2-1.6,4.6-1.9l0.5,0C583.8,373.8,585,374.2,585,374.8z"/>
                <path id="Path-67" className="st10" d="M721.5,233.4L721.5,233.4c-0.6,0.4-1.2,0.9-1.8,1.4c-1.3,1.2-2.6,2.4-3.7,3.7
                    c-1.3,1.4-2.7,3.1-4.3,5.3c-0.8,1-1.6,2.1-2.4,3.4c-4.7,6.7-10.5,16.5-17.1,30.7c-1.4,3-2.9,6.1-4.4,9c-0.9,1.7-1.7,3.3-2.6,4.9
                    c-1.5,2.8-3,5.5-4.5,8.2c-0.5,0.9-1,1.8-1.5,2.6c-0.5,0.9-1,1.8-1.6,2.6c-0.5,0.9-1,1.8-1.6,2.6l-1.6,2.6
                    c-0.5,0.9-1.1,1.7-1.6,2.5c-0.5,0.8-1.1,1.7-1.6,2.5c-0.5,0.8-1.1,1.6-1.6,2.4c-0.5,0.8-1.1,1.6-1.6,2.4l-0.6,0.9
                    c-0.9,1.3-1.7,2.5-2.6,3.8l-0.8,1.1c-1.5,2.2-3.1,4.3-4.6,6.3c-1.1,1.5-2.2,2.9-3.2,4.2c-0.9,1.1-1.8,2.2-2.6,3.2
                    c-0.9,1-1.6,1.9-2.3,2.7l-0.6,0.7c-1.8,2.1-3.6,4-5.2,5.6l-0.1,0.1l-0.1,0.1l-0.6,0.6c-9.7,9.4-22.2,14.5-34.1,14
                    c-0.4,0-0.9,0-1.3-0.1h-0.1c-0.4,0-0.9-0.1-1.3-0.1l-1-0.1c-0.3,0-0.5-0.1-0.8-0.1c-0.3-0.1-0.6-0.1-0.9-0.2
                    c-0.4-0.1-0.8-0.2-1.2-0.2s-1-0.2-1.5-0.4l-0.8-0.2c-0.5-0.1-1-0.3-1.5-0.5l-0.9-0.3c-0.7-0.3-1.4-0.6-2.1-0.9
                    c-0.7-0.3-1.6-0.8-2.4-1.2l-0.3-0.2c-0.3-0.1-0.5-0.3-0.8-0.5c-0.5-0.3-1.1-0.6-1.6-1c-0.4-0.2-0.7-0.5-1.1-0.7
                    c-0.3-0.3-0.7-0.5-1.1-0.8l-0.2-0.2c-0.3-0.2-0.5-0.4-0.8-0.7c-0.1-0.1-0.2-0.1-0.3-0.2c-0.3-0.2-0.5-0.4-0.8-0.7
                    c-0.5-0.4-0.9-0.9-1.4-1.3c-0.4-0.3-0.7-0.7-1-1.1c-0.3-0.4-0.5-0.6-0.8-0.9c-0.2-0.3-0.3-0.4-0.5-0.5l-0.6-0.7
                    c-0.4-0.5-0.8-1.1-1.2-1.6c-0.3-0.4-0.6-0.9-0.9-1.3c-0.3-0.4-0.5-0.8-0.8-1.2c-0.1-0.1-0.2-0.2-0.2-0.4c-0.2-0.3-0.4-0.7-0.6-1
                    c-0.4-0.6-0.7-1.3-1.1-2c-0.5-1-1-2-1.4-3c0-0.1-0.1-0.2-0.1-0.2c-0.2-0.5-0.4-1-0.6-1.5l0-0.1c-0.2-0.5-0.4-1.1-0.6-1.6
                    c0-0.1,0-0.2-0.1-0.2c-0.2-0.6-0.4-1.2-0.6-1.8c-0.1-0.4-0.3-0.9-0.4-1.3c-0.1-0.4-0.3-0.9-0.4-1.3c-0.4-1.2-0.7-2.4-1-3.5
                    c-0.1-0.5-0.3-1-0.4-1.4c0-0.2-0.1-0.3-0.1-0.5c-0.2-0.6-0.3-1.3-0.5-1.9s-0.3-1.2-0.4-1.8c-0.3-1.2-0.5-2.4-0.7-3.5
                    c-0.1-0.6-0.2-1.1-0.3-1.7c-0.2-1.1-0.3-2.1-0.5-3.2c-0.1-0.5-0.1-1-0.2-1.5c-0.3-2.5-0.3-5.1-0.2-7.6c0-0.3,0-0.5,0-0.8
                    c0-0.3,0-0.7,0.1-1.1c0.1-1.2,0.3-2.3,0.5-3.5c0.1-0.3,0.1-0.5,0.2-0.8c0.2-0.7,0.4-1.5,0.6-2.2c0.2-0.5,0.3-0.9,0.5-1.3
                    c0.1-0.2,0.2-0.4,0.3-0.6c0.1-0.2,0.2-0.4,0.3-0.6c0.1-0.1,0.1-0.2,0.2-0.3c0.9-1.7,2.1-3.2,3.7-4.3c1.9-1.3,4.3-1.7,6.6-1.2
                    c6.1,1.3,11.2-3.2,18.1-10.4c5.6-5.8,12.5-13.3,22.1-20.8c20.6-15.9,45.4-26.2,65.5-29.1c5.2-0.8,10.5-1,15.7-0.7
                    c1,0.1,2,0.2,2.9,0.3l1.1,0.2C720.3,229.2,721.5,233.4,721.5,233.4L721.5,233.4z"/>
                <path id="Path-68" className="st9" d="M709.1,247.1c-4.7,6.7-10.5,16.5-17.1,30.7c-1.4,3-2.9,6.1-4.4,9c-0.9,1.7-1.7,3.3-2.6,4.9
                    c-1.5,2.8-3,5.5-4.5,8.2c-0.5,0.9-1,1.8-1.5,2.6s-1,1.8-1.6,2.6c-0.5,0.9-1,1.8-1.6,2.6l-1.6,2.6c-0.5,0.9-1.1,1.7-1.6,2.5
                    s-1.1,1.7-1.6,2.5c-0.5,0.8-1.1,1.6-1.6,2.4c-0.5,0.8-1.1,1.6-1.6,2.4l-0.6,0.9c-0.9,1.3-1.7,2.5-2.6,3.8l-0.8,1.1
                    c-1.5,2.2-3.1,4.3-4.6,6.3c-1.1,1.5-2.2,2.9-3.2,4.2c-0.9,1.1-1.8,2.2-2.6,3.2c-0.9,1-1.6,1.9-2.3,2.7l-0.6,0.7
                    c-1.8,2.1-3.6,4-5.2,5.6l-0.1,0.1l-0.1,0.1l-0.6,0.6c-9.7,9.4-22.2,14.5-34.1,14c-0.4,0-0.9,0-1.3-0.1h-0.4c-0.4,0-0.7,0-1-0.1
                    l-1-0.1c-0.3,0-0.5-0.1-0.8-0.1c-0.3-0.1-0.6-0.1-0.9-0.2c-0.4-0.1-0.8-0.2-1.2-0.2l-0.3-0.1c-0.3-0.1-0.6-0.1-0.9-0.2l-0.2-0.1
                    l-0.8-0.2c-0.5-0.1-1-0.3-1.5-0.5h-0.1c-0.3-0.1-0.6-0.2-0.9-0.3l-0.8-0.3c-0.4-0.2-0.9-0.4-1.3-0.5h0c-0.8-0.4-1.6-0.8-2.4-1.2
                    l-0.3-0.1c-0.3-0.2-0.5-0.3-0.8-0.5l-0.4-0.2c-0.4-0.2-0.7-0.5-1.1-0.7l-0.1-0.1c-0.4-0.2-0.7-0.5-1.1-0.7
                    c-0.3-0.3-0.7-0.5-1.1-0.8l-0.2-0.2c-0.3-0.2-0.5-0.4-0.8-0.7c-0.1-0.1-0.2-0.1-0.3-0.2l-0.1-0.1c-0.2-0.2-0.4-0.4-0.6-0.6
                    l-0.1-0.1l-0.5-0.5c-0.3-0.3-0.6-0.5-0.8-0.8s-0.7-0.7-1-1.1c-0.3-0.4-0.5-0.6-0.8-0.9c-0.1-0.1-0.3-0.3-0.4-0.5l-0.1-0.1
                    l-0.6-0.7l-0.3-0.4c-0.3-0.4-0.6-0.8-0.9-1.2l-0.1-0.1c-0.3-0.4-0.6-0.9-0.9-1.3c-0.3-0.4-0.5-0.8-0.8-1.2
                    c-0.1-0.1-0.2-0.2-0.2-0.4c0-0.1-0.1-0.1-0.1-0.2c-0.2-0.3-0.3-0.6-0.5-0.9c-0.1-0.2-0.2-0.4-0.3-0.6c-0.2-0.4-0.4-0.8-0.6-1.2
                    c0-0.1-0.1-0.1-0.1-0.2c-0.5-1-1-2-1.4-3c0-0.1-0.1-0.2-0.1-0.2l-0.1-0.2c-0.2-0.4-0.3-0.8-0.5-1.2l0-0.1
                    c-0.2-0.5-0.4-1.1-0.6-1.6c0-0.1,0-0.2-0.1-0.2c-0.2-0.6-0.4-1.2-0.6-1.8c-0.1-0.4-0.3-0.9-0.4-1.3s-0.3-0.9-0.4-1.3
                    c-0.4-1.2-0.7-2.4-1-3.5c-0.1-0.5-0.3-1-0.4-1.4c0-0.2-0.1-0.3-0.1-0.5c-0.2-0.6-0.3-1.3-0.5-1.9s-0.3-1.2-0.4-1.8
                    c-0.3-1.2-0.5-2.4-0.7-3.5c-0.1-0.6-0.2-1.1-0.3-1.7c-0.2-1.1-0.3-2.1-0.5-3.2c-0.1-0.5-0.1-1-0.2-1.5c-0.3-2.5-0.3-5.1-0.2-7.6
                    c0-0.3,0-0.5,0-0.8c0-0.3,0-0.7,0.1-1.1c0.1-1.2,0.3-2.3,0.5-3.5c0.1-0.3,0.1-0.5,0.2-0.8c0.2-0.7,0.4-1.5,0.6-2.2
                    c0.1-0.5,0.3-0.9,0.5-1.3c0.1-0.2,0.2-0.4,0.3-0.6c0.1-0.2,0.2-0.4,0.3-0.6c0.1-0.1,0.1-0.2,0.2-0.3c1.5-2.4,4.7-3.2,7.1-1.7
                    c1,0.6,1.7,1.5,2.1,2.5v0.1c4,10.4,2.8,36.8,24.3,49l0.4,0.2c5.6,3.1,10.8,4,15.8,3.2c3.4-0.6,6.6-1.9,9.5-3.7
                    c6.9-4.2,13.7-11.6,20.7-21.3C675.8,290.4,698.5,237.8,709.1,247.1z"/>
                <path id="Path-69" className="st9" d="M687.1,234.9c-2.7,5.3-9,12.9-23.5,29.2c-28.3,31.7-51.5,39.9-61.1,29.3c-1.8-2-2.8-4.7-2.8-7.4
                    c-0.1-2.5,0.5-5,1.6-7.3c0.8-1.6,1.8-3.1,3.1-4.4c5.9-6.3,12.2-12.2,19-17.6c18.5-14.2,40.1-24,58.9-27.9c2.3-0.5,4.5,1,5,3.3
                    C687.7,233.1,687.6,234.1,687.1,234.9z"/>
                <path id="Path-70" className="st31" d="M672.1,324.5c-1.9,1.7-3.7,3.5-5.3,5.3c-2.9,1.1-5.4,1.9-7.4,2.5c1.5-2,3-4.1,4.6-6.3l0.8-1.1
                    c0.9-1.2,1.7-2.5,2.6-3.8C668.8,322.2,670.4,323.3,672.1,324.5z"/>
                <path id="Path-71" className="st7" d="M666.8,329.9c-2.6,2.9-5.2,6.2-7.6,9.5l-0.2,0.3l-0.2-0.2l-0.7-0.9c-0.7-0.7-1.3-1.4-1.9-2
                    c1.1-1.3,2.1-2.8,3.2-4.2c0.7-0.2,1.6-0.5,2.5-0.8C663.3,331.1,665,330.6,666.8,329.9z"/>
                <path id="Path-72" className="st30" d="M722.7,295.4c-5.3,5.4-11.1,10.3-17.3,14.6c-0.8-1.1-1.5-2.3-2.2-3.6c-1-1.9-12.5,0.2-31.1,18
                    c-1.7-1.2-3.3-2.3-4.8-3.4l0.6-0.9c0.5-0.8,1.1-1.6,1.6-2.4c0.5-0.8,1.1-1.6,1.6-2.4c0.5-0.8,1.1-1.6,1.6-2.5s1.1-1.7,1.6-2.5
                    l1.6-2.6c0.5-0.9,1-1.8,1.6-2.6l1.6-2.6c0.5-0.9,1-1.8,1.5-2.6c1.5-2.6,3-5.4,4.5-8.2c0.9-1.6,1.8-3.3,2.6-4.9c1.5-3,3-6,4.4-9
                    c6.6-14.2,12.5-24,17.1-30.7c0.8-1.2,1.7-2.3,2.4-3.4c1.6-2.1,3.1-3.9,4.3-5.3l1,1c-3.8,5.9-6.4,12.5-7.8,19.4
                    C705.5,276.9,710.1,292.5,722.7,295.4L722.7,295.4z"/>
                <path id="Path-73" className="st30" d="M734.3,331.4c-5.9-1.7-11.4-4.4-16.2-8c5.1-2.3,8.9-4.3,11.3-5.6l0.3,0.9
                    c0.2,0.6,0.4,1.2,0.6,1.8c0.3,1,0.7,1.9,1,2.9c0.4,1.1,0.8,2.1,1.1,3.2C733.1,328.2,733.7,329.9,734.3,331.4L734.3,331.4z"/>
                <path id="Path-74" className="st7" d="M729.4,317.8c-2.4,1.3-6.2,3.3-11.3,5.6c-5-3.6-9.3-8.2-12.7-13.3c6.2-4.3,12-9.2,17.3-14.6
                    c0.7,2.6,1.4,5.2,2.1,7.6l1.3,4.2l1,3.1c0.5,1.5,0.9,3,1.4,4.4l0.7,2.2C729.2,317.2,729.3,317.5,729.4,317.8L729.4,317.8z"/>
                <path id="Path-75" className="st30" d="M732.4,326.5c-13.4,6.4-29.9,9.7-43.9,11.3c-1.1-1-2.3-2-3.4-3c11.3-2.8,22.3-6.6,32.9-11.4
                    c5.1-2.3,8.9-4.3,11.3-5.6l0.3,0.9c0.2,0.6,0.4,1.2,0.6,1.8c0.3,1,0.7,1.9,1,2.9C731.7,324.4,732,325.4,732.4,326.5L732.4,326.5z"
                    />
                <path id="Path-76" className="st31" d="M688.5,337.8c-9.9,1.2-19.8,1.7-29.7,1.6l0.4,0c8.8-0.9,17.4-2.4,26-4.6
                    C686.3,335.7,687.4,336.7,688.5,337.8z"/>
                <path id="Path-77" className="st21" d="M721.5,233.4L721.5,233.4c-0.6,0.4-1.2,0.9-1.8,1.4c-1.3,1.2-2.6,2.4-3.7,3.7
                    c-1.3,1.4-2.7,3.1-4.3,5.3c-0.8,1-1.6,2.1-2.4,3.4c-10.6-9.3-33.3,43.3-56,74.7c-7,9.7-13.8,17.1-20.8,21.3
                    c-2.9,1.8-6.1,3.1-9.5,3.7c-5.1,0.9-10.3-0.1-15.8-3.2l-0.4-0.2c30.8,5.6,53.4-44.6,63.1-61.8c23-40.3,27.9-35.5,39.3-46.4
                    c7-6.8,1.3-7.3-0.2-7.6C720.3,229.2,721.5,233.4,721.5,233.4z"/>
                <path id="Path-78" className="st7" d="M709.1,247.1c-4.7,6.7-10.5,16.5-17.1,30.7c-1.4,3-2.9,6.1-4.4,9c-0.9,1.7-1.7,3.3-2.6,4.9
                    c-1.5,2.8-3,5.5-4.5,8.2c-0.5,0.9-1,1.8-1.5,2.6s-1,1.8-1.6,2.6c-0.5,0.9-1,1.8-1.6,2.6l-1.6,2.6c-0.5,0.9-1.1,1.7-1.6,2.5
                    s-1.1,1.7-1.6,2.5c-0.5,0.8-1.1,1.6-1.6,2.4c-0.5,0.8-1.1,1.6-1.6,2.4l-0.6,0.9c-0.9,1.3-1.7,2.5-2.6,3.8l-0.8,1.1
                    c-1.5,2.2-3.1,4.3-4.6,6.3c-1.1,1.5-2.2,2.9-3.2,4.2c-0.9,1.1-1.8,2.2-2.6,3.2c-0.9,1-1.6,1.9-2.3,2.7l-0.6,0.7
                    c-1.8,2.1-3.6,4-5.2,5.6l-0.1,0.1l-0.1,0.1l-0.6,0.6c-0.6,0.6-1.2,1.1-1.8,1.6c-9.4,8.3-21.1,12.8-32.3,12.4c-0.4,0-0.9,0-1.3-0.1
                    h-0.4c-0.4,0-0.7,0-1-0.1l-1-0.1c-0.3,0-0.5-0.1-0.8-0.1c-0.3-0.1-0.6-0.1-0.9-0.2c-0.4-0.1-0.8-0.2-1.2-0.2l-0.3-0.1
                    c-0.3-0.1-0.6-0.1-0.9-0.2l-0.2-0.1l-0.8-0.2c-0.5-0.1-1-0.3-1.5-0.5h-0.1c-0.3-0.1-0.6-0.2-0.9-0.3l-0.8-0.3
                    c-0.4-0.2-0.9-0.4-1.3-0.5h0c-0.8-0.4-1.6-0.8-2.4-1.2l-0.3-0.1c-0.3-0.2-0.5-0.3-0.8-0.5l-0.4-0.2c-0.4-0.2-0.7-0.5-1.1-0.7
                    l-0.1-0.1c-0.4-0.2-0.7-0.5-1.1-0.7c-0.3-0.3-0.7-0.5-1.1-0.8l-0.2-0.2c-0.3-0.2-0.5-0.4-0.8-0.7c-0.1-0.1-0.2-0.1-0.3-0.2
                    l-0.1-0.1c-0.2-0.2-0.4-0.4-0.6-0.6l-0.1-0.1l-0.5-0.5c-0.3-0.3-0.6-0.5-0.8-0.8s-0.7-0.7-1-1.1c-0.3-0.4-0.5-0.6-0.8-0.9
                    c-0.1-0.1-0.3-0.3-0.4-0.5l-0.1-0.1l-0.6-0.7l-0.3-0.4c-0.3-0.4-0.6-0.8-0.9-1.2l-0.1-0.1c-0.3-0.4-0.6-0.9-0.9-1.3
                    c-0.3-0.4-0.5-0.8-0.8-1.2c-0.1-0.1-0.2-0.2-0.2-0.4c0-0.1-0.1-0.1-0.1-0.2c-0.2-0.3-0.3-0.6-0.5-0.9c-0.1-0.2-0.2-0.4-0.3-0.6
                    c-0.2-0.4-0.4-0.8-0.6-1.2c0-0.1-0.1-0.1-0.1-0.2c-0.5-1-1-2-1.4-3c0-0.1-0.1-0.2-0.1-0.2l-0.1-0.2c-0.2-0.4-0.3-0.8-0.5-1.2
                    l0-0.1c-0.2-0.5-0.4-1.1-0.6-1.6c0-0.1,0-0.2-0.1-0.2c-0.2-0.6-0.4-1.2-0.6-1.8c-0.1-0.4-0.3-0.9-0.4-1.3
                    c-0.1-0.4-0.3-0.9-0.4-1.3c8.8,16.6,20.3,18.1,31.9,12.1l0.4,0.2c5.6,3.1,10.8,4,15.8,3.2c3.4-0.6,6.6-1.9,9.4-3.7
                    c7-4.2,13.7-11.6,20.7-21.3C675.8,290.4,698.5,237.8,709.1,247.1L709.1,247.1z"/>
                <path id="Path-79" className="st31" d="M755.8,227.1c-2.5-1.1-5.2-1.7-7.9-1.8c-1.7-0.2-3.4-0.2-5.1-0.1c-0.3,0-0.6,0-0.9,0.1
                    c-1.3,0.1-2.7,0.3-4,0.6c-1,0.2-2,0.5-3.1,0.8c-0.3,0.1-0.5,0.2-0.8,0.2c-0.5,0.2-1.1,0.4-1.6,0.6l-0.8,0.3l-1,0.4l-0.8,0.3
                    l-0.9,0.4c-0.5,0.2-0.9,0.4-1.4,0.7c-0.5,0.3-0.8,0.4-1.2,0.6c-0.4,0.2-0.6,0.3-0.9,0.5h-0.1l-0.9,0.5l-1,0.6
                    c-0.3,0.2-0.6,0.4-0.9,0.6l-0.9,0.7c0,0-1.2-4.4-13.7-6.1c4.3-2.9,7.6-7.1,9.5-12c4.2-11,2-40.6,22.6-47
                    c-0.7,0.3-10.6,4.5-10.6,16.2c0,15.7,15.5,12.5,18.2,25.3C750.4,223.2,750.6,224.9,755.8,227.1L755.8,227.1z"/>
                <path id="Path-80" className="st32" d="M745.7,337.1c-8.2-15.1,3.4-37.4-6-62.1c-9.9-25.6-14.2-40.7-1-49.1l-0.8,0.2
                    c-1,0.2-2,0.5-3.2,0.8c-0.3,0.1-0.5,0.2-0.8,0.2c-0.5,0.2-1.1,0.4-1.6,0.6l-0.8,0.3l-1,0.4l-0.8,0.3l-1,0.4
                    c-0.5,0.2-0.9,0.4-1.4,0.7c-0.5,0.3-0.8,0.4-1.2,0.6c-0.4,0.2-0.6,0.3-0.9,0.5h-0.1l-0.9,0.5l-0.9,0.6c-0.3,0.2-0.6,0.4-0.9,0.6
                    l-0.9,0.7l-0.4,0.4c-0.5,0.5-1.4,1.6-2.5,3.2l-0.1,0.1c-0.2,0.3-0.5,0.7-0.7,1l-0.1,0.1c-0.3,0.4-0.5,0.8-0.8,1.3
                    c-3.7,5.9-6.4,12.4-7.8,19.3c-3.6,18.1,1,33.7,13.6,36.6c0.7,2.6,1.4,5.2,2.1,7.6l1.3,4.2c0.2,0.6,0.4,1.1,0.5,1.7
                    c0.2,0.6,0.3,1,0.4,1.4c0.5,1.5,0.9,3,1.4,4.4v0.1l1.3,3.9c0.2,0.6,0.4,1.2,0.6,1.8c0.3,1,0.7,1.9,1,2.9c0.4,1.1,0.8,2.1,1.1,3.2
                    c0.6,1.8,1.3,3.4,1.9,5c6,15,11.9,22.7,20.1,23.9c5.2,0.8,14.7-6.4,24.7-16C778.3,340.1,756.3,356.6,745.7,337.1L745.7,337.1z"/>
                <path id="Path-81" className="st32" d="M763.2,469c0,0-42.7,3.5-83-0.3c5.9-18.4,11.1-36,14.9-48.7c0,0,5.6,30.6,37.4,35.1
                    c31.8,4.5,40.2-3.4,39.9,20.8c-0.2,18.6-5,28,5.7,62.7C768.8,513.3,758.7,479.3,763.2,469z"/>
                <path id="Path-82" className="st31" d="M662,439.5c-2.2-1.2-4.4-2.3-6.7-3.4c-1.3-12.4-1.9-24.9-1.8-37.4c0-10.4-0.9-20.8-2.9-31
                    l2.9-5.7c4.8,14.1,5,34.8,6,56.3C659.8,425.5,660.7,432.6,662,439.5z"/>
                <path id="Path-83" className="st30" d="M653.6,362.1c-0.3-0.9-0.7-1.8-1-2.6c-0.1-0.2-0.2-0.5-0.3-0.7c0-0.1-0.1-0.2-0.2-0.3
                    c-0.1-0.3-0.3-0.6-0.4-0.9c-0.3-0.7-0.7-1.4-1.1-2.1c-0.2-0.3-0.4-0.7-0.6-1c-0.2-0.3-0.4-0.6-0.6-0.9c-0.2-0.3-0.3-0.4-0.4-0.6
                    l-0.3-0.4l-0.3-0.4l-0.7-0.9l-0.6-0.7l-0.1-0.1l-0.3-0.3l-0.3-0.3l-0.1-0.1l-0.8-0.7l-0.1-0.1l-0.1,0.1l-0.6,0.6
                    c-9.7,9.4-22.2,14.5-34.1,14c-4.1,7.3-7.3,15.1-9.7,23.2c17.9,1.4,29.7-8.5,39.8-21.5c1.9-2.4,5.4-2.9,7.9-1
                    c1.1,0.8,1.8,2,2.1,3.3v0.1L653.6,362.1z"/>
                <path id="Path-84" className="st32" d="M678.9,450.5l-6,10.6c-0.5,1-1.8,1.3-2.7,0.7c-0.3-0.2-0.6-0.4-0.7-0.7
                    c-2-3.5-5.1-10.4-7.3-21.2l0.2-0.2c-26.7-14.6-53.8-17.5-67.8-17.9c-1.9,19.9-1.9,44.4,0.8,74.9c1.1-10.8,3.4-21.4,6.9-31.6
                    c4.4-13.4,17-22.4,31.1-22.3h0.2c12.4,0.1,23.4,7.8,27.8,19.4c1.1,3,2.6,5.9,4.2,8.7c0.8,1.3,2.5,1.7,3.7,0.9
                    c0.5-0.3,0.8-0.7,1.1-1.2L678.9,450.5z"/>
                <path id="Path-85" className="st30" d="M644.1,358.8c0,0-7.4,11.6-16.2,31.8c-9.7,2.6-19.6,4.5-29.5,5.8c0.2-0.9,0.4-1.7,0.6-2.5
                    c0,0,0-0.1,0-0.1c0.2-0.8,0.4-1.5,0.6-2.3c0-0.1,0-0.2,0.1-0.2c0.2-0.7,0.4-1.3,0.5-1.9c0.2-0.9,0.5-1.8,0.7-2.6l0.4-1.5
                    c0-0.1,0-0.2,0.1-0.2c0.2-0.6,0.3-1.1,0.5-1.6c0.3-0.9,0.6-1.8,0.9-2.6c0.3-0.9,0.5-1.4,0.8-2.2l0.6-1.5c0.4-1,0.8-2,1.2-2.9
                    c0.9-2.2,1.9-4.4,2.9-6.4l0.2-0.5l0.7-1.3c0.4-0.9,0.9-1.7,1.4-2.5c11.2,0.4,22.9-4.1,32.3-12.4L644.1,358.8z"/>
                <path id="Path-86" className="st31" d="M609.2,433.9C609.2,434,609.1,434,609.2,433.9C609.1,433.9,609.1,433.9,609.2,433.9z"/>
                <path id="Path-87" className="st31" d="M615.7,423.9c13.7,2.3,27.1,6.4,39.7,12.3c-4.9-6.4-15.4-13.9-23.7-19.3
                    c-6.6-4.3-9.3-12.6-6.4-19.9c1-2.4,1.9-4.7,2.6-6.4c-9.7,2.6-19.6,4.5-29.5,5.8c-1.9,8.4-3.2,16.8-4,25.3
                    c5.3,0.2,10.6,0.6,15.9,1.3l2.5,0.3C613.8,423.6,614.8,423.7,615.7,423.9L615.7,423.9z"/>
                <path id="Path-88" className="st32" d="M785.2,201.7c-0.2,0.4-0.4,0.9-0.5,1.3c-0.9,0.4-2-0.6-0.7-1.6c1.4-1,2.2-2.7,1.9-4.4
                    C786.6,198.3,786.3,199.7,785.2,201.7L785.2,201.7z"/>
                <path id="Path-89" className="st32" d="M782.4,223.6c-1.6,0.5-5,0.6-8.6,0.9l-1.4,1.7l-0.8-1.5l-0.2-0.4c-0.4-0.7-0.1-1.6,0.6-1.9
                    c0.3-0.1,0.6-0.2,0.9-0.2L782.4,223.6z"/>
                <path id="Path-90" className="st7" d="M687.1,234.9c-2.7,5.3-9,12.9-23.5,29.2c-28.3,31.7-51.5,39.9-61.1,29.3c-1.8-2-2.8-4.7-2.8-7.4
                    c-0.1-2.5,0.5-5,1.6-7.3c0.1,3.6,1.1,14.1,10.6,11.9c11.5-2.6,13.9-26.6,31.7-36c17.8-9.4,47.1-17.4,38.8-25.8
                    c2.3-0.5,4.5,1,5,3.3C687.7,233.1,687.6,234.1,687.1,234.9z"/>
                <path id="Path-110" className="st7" d="M658.8,351.2c-2.2,8.1-3.2,11.4-1.5,28.3c-0.6-5.9-1.8-11.8-3.7-17.5c-1-3.1-2.4-6-4.2-8.6
                    c-0.5-0.8-1.1-1.5-1.7-2.2c-0.7-0.8-1.5-1.6-2.3-2.3l0.1-0.1c1.6-1.6,3.4-3.5,5.2-5.6l0.6-0.7l0.3-0.3c0.7-0.8,1.4-1.6,2-2.4
                    c0.9-1,1.8-2.1,2.6-3.2c0.6,0.6,1.2,1.2,1.9,2l0.7,0.9C658.9,339.7,661,343,658.8,351.2L658.8,351.2z"/>
                <path id="Path-111" className="st33" d="M658,338.5c-2.8,4.7-6.3,9-10.3,12.7c-0.7-0.8-1.5-1.6-2.3-2.3l0.1-0.1
                    c1.6-1.6,3.4-3.5,5.2-5.6l0.6-0.7l0.3-0.3c0.7-0.8,1.4-1.6,2-2.4c0.9-1,1.8-2.1,2.6-3.2C656.7,337.1,657.4,337.8,658,338.5z"/>
                <path id="Path-112" className="st33" d="M661.8,331.6c-1.1,2.4-2.4,4.7-3.8,7c-0.7-0.8-1.3-1.4-1.9-2c1.1-1.3,2.1-2.8,3.2-4.2
                    C660.1,332.2,660.9,331.9,661.8,331.6z"/>
                <g id="Group-6" transform="translate(146.922 575.651)">
                    <path id="Path-120" className="st34" d="M377.4,96l-9.4,1.6"/>
                    <path id="Path-121" className="st34" d="M378.7,100l-9.4,1.6"/>
                    <path id="Path-122" className="st34" d="M379.1,104.2l-9.4,1.6"/>
                    <path id="Path-123" className="st34" d="M660.2,2.3l2.3,9.3"/>
                    <path id="Path-124" className="st34" d="M664,0.8l2.3,9.3"/>
                    <path id="Path-125" className="st34" d="M668.1,0l2.3,9.3"/>
                </g>
            </g>
        </g>
</symbol>

</svg>
