
<svg xmlns="http://www.w3.org/2000/svg" width="1440" height="1100" viewBox="0 0 1440 1100">
    <linearGradient id="Path-15_1_" gradientUnits="userSpaceOnUse" x1="794.996" y1="798" x2="794.996" y2="1097.0417">
        <stop  offset="0" style="stop-color:#FFC88D"/>
        <stop  offset="1" style="stop-color:#FFC88D;stop-opacity:0"/>
    </linearGradient>
    <path id="Path-15" fill="url(#Path-15_1_)" d="M1446,813.2c0,0.2-0.2,289.8-0.4,289.8H141c-0.2,0,68.6-106.4,80.7-125.4
        c1.4-2.2,2.8-4.3,4.3-6.5c78.2-114.3,229.9-263.5,229.9-263.5c9.6-11.5,23.8-18.2,38.8-18.2H545c11,0,21.6-3.6,30.4-10.1l85.5-64.2
        c8.2-6.2,18.4-8.8,28.6-7.5l65.1,8.9c17.3,2.3,34.6-4.4,45.7-17.8l33.6-40.4l42-50.6c7.5-9,17.9-15.2,29.5-17.4
        c2.6-0.5,5.1-0.8,7.7-0.9l77.9-2.6l12.2-0.4c5.1-0.2,10.1-1.1,15-2.8l43.3-15.1l103.3-36.1l282.8-93.8l1.6-0.5L1446,813.2z"/>
    <linearGradient id="SVGID_1_" gradientUnits="userSpaceOnUse" x1="361.4576" y1="764.5725" x2="361.4576" y2="1088.4487">
        <stop  offset="0" style="stop-color:#EEAC75"/>
        <stop  offset="1" style="stop-color:#EEAC75;stop-opacity:0"/>
    </linearGradient>
    <path fill="url(#SVGID_1_)" d="M500.1,1003.3c-23.4-28.6-36.3-64.5-35.5-101.4c0.3-14.9,2.8-28.2,8.7-36.1
        c3.6-4.9,6.5-10.8,7.7-19.8l9.1-56.2c0.8-2,1.4-4,1.7-6.1c1.6-12.5-7.2-24-19.7-25.6l-0.9-0.1c-1.3-0.2-2.7-0.5-3.9-1
        c-8.4-3.5-11.7-13.5-7.3-21.1l13.2-23.1l-3.2-0.9c-1.9-0.6-3.5-1.8-4.6-3.4c-2.4-3.8-1.3-8.7,2.5-11.1c-0.1,0.1-0.3,0.2-0.4,0.2
        c-0.8,0.5-1.6,1-2.3,1.6c-0.2,0.2-0.5,0.4-0.7,0.5c-0.4,0.3-0.7,0.6-1.1,0.8c-0.3,0.2-0.6,0.4-0.8,0.7c-0.3,0.3-0.7,0.5-1,0.8
        c-0.5,0.5-1.1,0.9-1.6,1.4c-0.3,0.3-0.5,0.5-0.8,0.8c-0.3,0.3-0.7,0.7-1,1c-0.2,0.3-0.5,0.5-0.7,0.8c-0.5,0.5-0.9,1-1.3,1.5
        c-0.1,0.1-0.2,0.2-0.2,0.3l0,0C455,708.6,304,857.2,226,971.2c-1.5,2.1-2.9,4.3-4.3,6.5C209.6,996.6,140.8,1103,141,1103h440.9
        L500.1,1003.3z"/>
    <linearGradient id="Path-19_1_" gradientUnits="userSpaceOnUse" x1="970.2766" y1="442.507" x2="1512.2765" y2="815.507">
        <stop  offset="0" style="stop-color:#EEAC75"/>
        <stop  offset="1" style="stop-color:#EEAC75;stop-opacity:0"/>
    </linearGradient>
    <path id="Path-19" fill="url(#Path-19_1_)" d="M1446.1,941.6c0,0-454.5-22.5-631.1-174.2c-0.1-0.3-5.9-17-5.9-17l-2.2-6.3
        c-4.7-13.5,0.5-28.5,12.6-36.1l73.5-46.3c14.3-9,18.7-27.9,9.7-42.3c-1.9-3-4.3-5.7-7.1-7.9l-11.8-9.2
        c-9.2-7.2-13.5-18.9-11.2-30.3l15.3-74.8c5.4-3.4,11.3-5.8,17.6-7c2.6-0.5,5.1-0.8,7.7-0.9l77.9-2.6l12.2-0.4
        c5.1-0.2,10.1-1.1,15-2.8l43.3-15.1l103.3-36.1L1449,338L1446.1,941.6z"/>   
</svg>
